<?xml version="1.0" encoding="UTF-8"?>
<svg id="Capa_1" xmlns="http://www.w3.org/2000/svg" version="1.1" viewBox="0 0 94 25">
  <!-- Generator: Adobe Illustrator 29.3.1, SVG Export Plug-In . SVG Version: 2.1.0 Build 151)  -->
  <path d="M47,10.4s.1,0,.2,0c.1,0,.2,0,.3,0,.2,0,.4,0,.6-.2.2-.2.2-.4.2-.6,0-.2,0-.3-.1-.5,0-.1-.2-.2-.4-.3h0c-4.3-3-7.5-3.2-10.7-3.3-2.9-.2-5.7-.3-9.4-2.8-2.8-1.9-6.4-2.8-10.8-2.8-3.5,0-7,.6-10.4,1.5h-.2c0,0,0,0,0,0-.2,0-.3.2-.4.4-.1.2-.1.4-.1.6,0,.2.1.4.3.5.2.1.3.2.5.2.1,0,.2,0,.3,0h.1c3.2-1,6.5-1.5,9.9-1.5,4,0,7.4.8,9.9,2.5,4.1,2.7,7.2,2.9,10.2,3.1,2.9.2,5.9.3,9.8,3h.2Z"/>
  <path d="M43,13c-1.1,0-2.3.3-3.2,1-.9.6-1.7,1.5-2.1,2.6-.4,1.1-.6,2.2-.3,3.3.2,1.1.8,2.1,1.6,3,.8.8,1.8,1.4,3,1.6,1.1.2,2.3.1,3.3-.3,1.1-.4,2-1.2,2.6-2.1.6-.9,1-2.1,1-3.2,0-1.5-.6-3-1.7-4.1s-2.5-1.7-4.1-1.7ZM47.1,18.8c0,.8-.2,1.6-.7,2.3-.4.7-1.1,1.2-1.8,1.5-.7.3-1.6.4-2.4.2-.8-.2-1.5-.5-2.1-1.1-.6-.6-1-1.3-1.1-2.1-.2-.8,0-1.6.2-2.4.3-.7.8-1.4,1.5-1.8s1.5-.7,2.3-.7c1.1,0,2.1.4,2.9,1.2.8.8,1.2,1.8,1.2,2.9Z"/>
  <path d="M23.9,13c-.2,0-.4,0-.6.2-.2.2-.2.4-.2.6v4.9c0,1.1-.5,2.1-1.2,2.8-.8.7-1.8,1.2-2.8,1.2s-2.1-.4-2.8-1.2c-.8-.7-1.2-1.7-1.2-2.8v-4.9c0-.1,0-.2,0-.4,0-.1,0-.2-.2-.3,0,0-.2-.2-.3-.2-.1,0-.2,0-.3,0s-.2,0-.3,0c-.1,0-.2.1-.3.2,0,0-.1.2-.2.3,0,.1,0,.2,0,.4v4.9c0,1.5.7,2.9,1.7,4,1.1,1.1,2.5,1.6,4,1.6s3-.6,4-1.6c1.1-1.1,1.7-2.5,1.7-4v-4.9s0,0,0,0c0-.1,0-.2,0-.3,0-.1-.1-.2-.2-.3,0,0-.2-.1-.3-.2s-.2,0-.3,0Z"/>
  <path d="M35.6,13h-8.8c-.2,0-.4,0-.6.3-.2.2-.2.4-.2.6,0,.1,0,.2,0,.3,0,.1.1.2.2.3,0,0,.2.1.3.2.1,0,.2,0,.3,0h3.5v9s0,0,0,0c0,.1,0,.2,0,.4,0,.1,0,.2.2.3,0,0,.2.2.3.2.1,0,.2,0,.3,0s.2,0,.3,0c.1,0,.2-.1.3-.2,0,0,.1-.2.2-.3,0-.1,0-.2,0-.4v-9h3.6c.1,0,.2,0,.4,0,.1,0,.2,0,.3-.2,0,0,.2-.2.2-.3,0-.1,0-.2,0-.3s0-.2,0-.3c0-.1-.1-.2-.2-.3,0,0-.2-.1-.3-.2s-.2,0-.4,0"/>
  <path d="M79.9,13h-8.8c-.2,0-.4.1-.5.3-.1.2-.2.4-.2.6,0,.2,0,.4.2.6.1.2.3.2.5.3h3.5v9c0,.1,0,.2,0,.4,0,.1,0,.2.2.3,0,0,.2.2.3.2.1,0,.2,0,.3,0s.2,0,.3,0c.1,0,.2-.1.3-.2,0,0,.1-.2.2-.3,0-.1,0-.2,0-.4v-9h3.5c.1,0,.2,0,.4,0,.1,0,.2,0,.3-.2,0,0,.2-.2.2-.3s0-.2,0-.3,0-.2,0-.3c0-.1-.1-.2-.2-.3,0,0-.2-.1-.3-.2s-.2,0-.4,0"/>
  <path d="M93.1,13c-.1,0-.3,0-.4,0-.1,0-.2.1-.3.2l-3.8,4.8-4.4-4.8c0-.1-.1-.2-.2-.3,0,0-.2-.1-.3-.1-.1,0-.2,0-.4,0-.1,0-.2,0-.3.1,0,0-.2.2-.2.3,0,.1,0,.2-.1.3,0,.1,0,.2,0,.4,0,.1.1.2.2.3,0,0,0,0,0,0l4.8,5.3v4c0,.1,0,.2,0,.4,0,.1,0,.2.2.3,0,0,.2.2.3.2.1,0,.2,0,.3,0s.2,0,.3,0c.1,0,.2-.1.3-.2s.1-.2.2-.3c0-.1,0-.2,0-.4,0,0,0,0,0,0v-3.8l4.3-5.5s0,0,0,0c0-.1.1-.3.1-.4,0-.2,0-.4-.2-.6-.2-.2-.4-.2-.6-.3"/>
  <path d="M56.9,14.7h3.9c.2,0,.4-.1.5-.3.1-.2.2-.4.2-.6s0-.4-.2-.6c-.1-.2-.3-.3-.5-.3h-3.9c-1.5,0-2.9.7-4,1.7-1.1,1.1-1.6,2.5-1.6,4s.6,3,1.6,4c1.1,1.1,2.5,1.7,4,1.7h3.9c.1,0,.2,0,.3,0,.1,0,.2,0,.3-.2,0,0,.2-.2.2-.3,0-.1,0-.2,0-.3s0-.2,0-.3c0-.1-.1-.2-.2-.3,0,0-.2-.1-.3-.2-.1,0-.2,0-.3,0h-3.9c-1.1,0-2.1-.4-2.9-1.2-.8-.8-1.2-1.8-1.2-2.9s.4-2.1,1.2-2.9c.8-.8,1.8-1.2,2.9-1.2"/>
  <path d="M66.2,13c-.1,0-.2,0-.3,0s-.2.1-.3.2c0,0-.1.2-.2.3,0,.1,0,.2,0,.3v9.9c0,.2,0,.4.3.6.2.1.4.2.6.2s.4,0,.6-.2c.2-.1.3-.3.3-.5,0,0,0,0,0,0v-9.9c0-.2-.1-.4-.3-.6-.2-.2-.4-.2-.6-.2"/>
  <path d="M11.8,23.3l-5.1-9.7c0-.2-.2-.3-.4-.4-.2-.1-.4-.2-.5-.2-.2,0-.4,0-.6.2-.2.1-.3.3-.4.5L0,23.4s0,0,0,0C0,23.5,0,23.6,0,23.7,0,24,0,24.2.2,24.3c.2.2.4.2.6.2.1,0,.3,0,.4-.1.1,0,.2-.2.3-.3,0,0,0,0,0,0l4.1-8.6,4.5,8.5c0,.2.2.3.4.4.2,0,.4.1.6,0,.2,0,.4-.1.5-.3.1-.2.2-.3.2-.5,0-.1,0-.2,0-.4,0,0,0,0,0,0"/>
</svg>