<?xml version="1.0" encoding="UTF-8"?>
<svg id="Capa_1" xmlns="http://www.w3.org/2000/svg" baseProfile="tiny" version="1.2" viewBox="0 0 400 400">
  <!-- Generator: Adobe Illustrator 29.3.1, SVG Export Plug-In . SVG Version: 2.1.0 Build 151)  -->
  <polygon points="250.4 170.6 275.7 155.9 275.8 103.8 275.8 97.3 275.7 97.4 275.8 97.3 264.6 90.8 250.4 82.6 250.4 82.6 225 68 225 67.9 199.6 53.3 148.8 82.7 148.8 82.7 123.5 97.3 123.5 97.3 148.9 111.9 148.9 170.7 149.1 170.6 148.9 170.7 173.7 185.3 225.1 214.6 249.8 229.3 249.8 287.8 249.8 287.8 225.1 273.3 199.8 287.9 199.7 287.9 199.7 287.9 199.7 287.9 174.3 273.3 174.3 273.2 174.3 243.9 148.9 229.3 123.5 243.9 149.1 258.5 149.1 287.8 149.1 287.8 148.9 287.9 199.7 317.2 199.6 317.3 199.7 346.6 225.1 331.9 225.4 331.7 250.5 317.2 250.5 317.2 275.8 302.6 275.8 273.3 275.8 243.9 275.8 214.6 250.5 200 225.1 185.3 225.1 185.3 199.7 170.7 176.9 157.5 174.5 156.1 174.3 126.6 174.3 126.6 174.3 126.6 174.3 126.6 199.6 112 199.6 112 199.7 111.9 199.8 82.7 225.1 97.3 250.3 112 250.3 170.6 250.4 170.6"/>
  <polygon points="187.5 45.1 199.7 36.3 211.8 45.1 207.1 30.9 219.3 22.1 204.3 22.1 199.7 7.8 195 22.1 180 22.1 192.2 30.9 187.5 45.1"/>
  <polygon points="211.8 355.3 199.7 364.1 187.5 355.3 192.2 369.5 180 378.4 195 378.3 199.7 392.6 204.3 378.3 219.3 378.3 207.1 369.5 211.8 355.3"/>
</svg>