<?xml version="1.0" encoding="UTF-8"?>
<svg id="Capa_1" xmlns="http://www.w3.org/2000/svg" baseProfile="tiny" version="1.2" viewBox="0 0 41 14">
  <!-- Generator: Adobe Illustrator 29.3.1, SVG Export Plug-In . SVG Version: 2.1.0 Build 151)  -->
  <g>
    <path d="M-42.2,116.3v6h-12v6h6v6h-6v6h-6v-24h18Z"/>
    <path d="M-18.2,122.3v6h-12v12h-6v-18h18Z"/>
    <path d="M5.8,122.3v18H-12.2v-12h6v6H-.2v-6h-6v-6H5.8Z"/>
    <path d="M23.8,122.3v6h-6v12h-6v-18h12ZM29.8,128.3v12h-6v-12h6Z"/>
    <path d="M77.8,116.3v6h-6v6h-12v-6h6v-6h12ZM71.8,134.3v6h-12v-6h12ZM77.8,128.3v6h-6v-6h6Z"/>
    <path d="M95.8,128.3v6h6v6h-12v-6h-6v-6h12ZM95.8,116.3v6h-6v-6h6Z"/>
    <path d="M113.8,122.3v6h-6v-6h6ZM113.8,134.3v6h-6v-6h6ZM119.8,128.3v6h-6v-6h6ZM125.8,122.3v6h-6v-6h6ZM125.8,134.3v6h-6v-6h6Z"/>
    <path d="M137.8,116.3v6h6v6h-6v6h-6v-18h6ZM149.8,134.3v6h-12v-6h12Z"/>
    <path d="M173.8,122.3v18h-18v-18h18ZM161.8,128.3v6h6v-6h-6Z"/>
  </g>
  <path d="M-17.1,31.5c.3,0,.7,0,.9.2.3.1.5.4.6.6l-.4.3c-.1-.3-.3-.4-.5-.5-.2-.1-.4-.2-.7-.2s-.4,0-.5,0c-.1,0-.2.1-.3.2,0,0,0,.2,0,.3s0,.3.1.4c0,.1.3.2.5.3l.9.2c.4,0,.6.2.8.4.2.2.2.4.2.6s0,.4-.2.6c-.1.2-.3.3-.5.4-.2,0-.5.1-.8.1s-.5,0-.8-.1c-.2,0-.4-.2-.6-.3-.2-.1-.3-.3-.4-.4l.4-.3c0,.2.2.3.3.4.1.1.3.2.4.3.2,0,.4,0,.6,0s.4,0,.5,0c.2,0,.3-.1.3-.2,0,0,.1-.2.1-.4s0-.2-.1-.3c0-.1-.2-.2-.5-.2l-.9-.2c-.2,0-.4-.1-.6-.2-.2,0-.3-.2-.3-.3s0-.3,0-.4,0-.4.2-.6c.1-.2.3-.3.5-.4.2-.1.5-.2.8-.2Z"/>
  <path d="M-14,31.6v4h-.5v-4h.5Z"/>
  <path d="M-9.9,35.6h-.6l-1.1-1.6-1.1,1.6h-.6l1.4-2-1.3-2h.6l1,1.5,1-1.5h.5l-1.3,1.9,1.3,2Z"/>
  <path d="M-6.3,31.6v.5h-1.4v3.5h-.5v-3.5h-1.4v-.5h3.3Z"/>
  <path d="M-4,31.5c.4,0,.7,0,1,.3.3.2.5.4.6.7s.2.7.2,1.1,0,.8-.2,1.1-.4.5-.6.7c-.3.2-.6.3-1,.3s-.7,0-1-.3c-.3-.2-.5-.4-.6-.7-.2-.3-.2-.7-.2-1.1s0-.8.2-1.1c.2-.3.4-.5.6-.7.3-.2.6-.3,1-.3ZM-4,32c-.3,0-.5,0-.7.2-.2.1-.4.3-.5.5s-.2.5-.2.9,0,.6.2.9.3.4.5.5c.2.1.4.2.7.2s.5,0,.7-.2c.2-.1.4-.3.5-.5s.2-.5.2-.9,0-.6-.2-.9-.3-.4-.5-.5c-.2-.1-.4-.2-.7-.2Z"/>
  <line x1="1.1" y1="33.6" x2="4.7" y2="33.6" fill="none" stroke="#000" stroke-miterlimit="10"/>
  <line x1="-24.7" y1="33.6" x2="-21" y2="33.6" fill="none" stroke="#000" stroke-miterlimit="10"/>
  <g>
    <path d="M6.1,5.5h0s0,0,0,0h0s0,0,0,0Z"/>
    <path d="M5.9,5.6s0,0,0,0h0s0,0,0,0c0,0,0,0,0,0Z"/>
    <path d="M6.2,5.6s0,0,0,0h0s0,0,0,0h0Z"/>
    <path d="M6.8,6.4c.1,0,.2,0,.2,0,0,0,.1,0,.2,0,.1,0,.3,0,.4-.1.2,0,.2,0,.3,0,0,0,.2,0,.3,0,.4-.1.7-.1,1.1-.3,0,0,.2,0,.3,0,.2,0,.3,0,.5-.1.1,0,.2,0,.2,0,.2,0,.3,0,.4-.1.2,0,.4,0,.5-.2,0,0,0,0,.1,0,.1,0,0-.1,0-.2.1,0,.2,0,.1-.2,0,0,0,0,0,0,0-.1-.4-.3-.5-.2,0,0-.1,0-.1,0-.3.1-.6.2-.9.3,0,0-.2,0-.2,0,0,0-.2,0-.3.1-.1,0-.2,0-.2,0,0,0-.3,0-.3.1-.2,0-.2,0-.3,0,0,0-.2,0-.3,0-.2,0-.2,0-.3,0,0,0-.2,0-.2,0,0,0-.5,0-.5.2-.1,0-.2,0-.3,0,0,0-.2,0-.2,0-.1,0-.2,0-.2,0,0,.1-.3,0-.4,0,0,0,0,0-.1,0,0,0,0,0,0,0-.1,0-.2,0-.3,0,0,0-.2,0-.2,0-.2,0-.7.2-.7.2,0,0-.1,0-.2,0,0,0-.3,0-.4.1,0,0-.1,0-.2,0-.1,0-.3,0-.4.1-.3,0-.5,0-.7.2-.1,0-.2,0-.2,0-.1,0-.3,0-.4.1-.1,0-.1,0-.2,0,0,0-.1,0-.2,0,0,0,0,0,0,0,0,0,0,0-.1,0,0,0-.2,0-.3.2,0,0-.2.1-.3.1h-.1c0,.1,0,.1-.1.2,0,0,0,.2,0,.2,0,0,0,0,.2,0h0s0,0,0,0c-.1,0,0,0,0,.2,0,0,.2.2.2.1.2,0,.5-.1.8-.1,0,0,.3,0,.3-.1.2,0,.2,0,.3,0,0,0,.2,0,.2,0,0,0,.1,0,.1,0,0,0,.3,0,.3-.1.2,0,.2,0,.3,0,0,0,.2,0,.2,0,.2,0,.5-.2.7-.2h0c0,0,.2,0,.2,0,0,0-.1.1-.2.2,0,0,0,0,0,0,0,0,0,0,0,0,0,0,0,.1,0,.2-.1,0-.1.2-.2.1,0,0,0,0,0,0,0,.2,0,.2-.2.3,0,0,0,.1-.1.2-.3.4,0,.3-.4.6,0,.1-.2.4-.3.5h0c0,.2-.4.2-.5.3,0,0-.2,0-.3.1,0,0,0,0,0,0,0,0,0,0,0,0h0c0,0-.3,0-.3.2,0,0-.1,0-.1,0h0s0,0,0,0c0,0-.2,0-.3,0,0,0-.2,0-.2.1,0,0-.2,0-.2,0,0,0-.2,0-.2,0-.2,0-.5,0-.7.1,0,0,0,.1-.1.1-.1,0,0,.2-.1.2,0,0,0,.1,0,.2,0,0,.4.4.4.2,0,0,0,0,0,0,.2,0,.3,0,.4,0,0,0,.1,0,.2,0,.2-.1.1,0,.5-.2,0,0,0,0,.1,0,.3,0,.1,0,.4-.1.2,0,.2,0,.3-.1,0,0,.1,0,.1,0-.1.1-.2.5-.4.6,0,.2-.2.3-.2.5-.1.2-.2.5-.3.7,0,0,0,.1,0,.2,0,0,0,.2,0,.2,0,0-.1.3,0,.4,0,0,0,.1,0,.1,0,0,0,0,0,.2,0,.1.2.1.3.2.1,0,.2,0,.3,0,.2,0,.2-.4.3-.5,0-.1,0-.3.1-.4,0,0,0-.2,0-.2,0,0,0-.1,0-.1,0,0,0-.1,0-.1,0,0,0-.1.1-.2,0,0,0-.1,0-.2,0-.1.1-.2.2-.3,0,0,0,0,0,0,.1-.2.3-.5.5-.8,0-.2.3-.4.3-.6,0-.2,0-.1.2-.2,0,0,.2,0,.3,0,0,0,.2,0,.2-.1,0,0,.3,0,.4-.1.1,0,.2,0,.2,0,.1,0,.5-.1.6-.2.1,0,.1,0,.2,0,0,0,.1,0,.2,0,0,0,.2,0,.2,0,.2-.3,0-.2,0-.3,0-.1,0-.4-.2-.4-.1,0-.3.1-.5,0,0,0-.2,0-.2.1-.1,0-.3,0-.4.1-.1,0-.2,0-.3,0,0,0,0,0,0,0,0,0,0,0,0,0h0s0,0,0-.1c0,0,0,0,0,0,0,0,0,0,0,0h0s0,0,0,0c0-.1,0-.2,0-.4,0,.2.2,0,.2-.1,0,0,.2-.3.2-.3,0,0,0-.1.1-.2,0,0,0-.1.1-.1,0,0,0,0,0,0,0,0,.2-.2.2-.2,0-.2,0,0,0-.2h0s0,0,0,0c0,0,.1-.1.1,0,.1,0,0-.2.2-.2,0,0,0,0,0-.1-.2-.1.4-.1.4-.2.2,0,.2,0,.3,0ZM1.9,7s0,0,0,0h0s0,0,0,0h0ZM.4,11h0s0,0,0,0h0s0,0,0,0ZM.5,11h0s0,0,0,0h0s0,0,0,0ZM2.1,10h0s0,0,0,0c0,0,0,0,0,0h0ZM4.2,8.6s0,0,0,0h0s0,0,0,0h0ZM4.4,8.9s0,0,0,0c0,0,0,0,0,0h0s0,0,0,0c0,0,0,0,0,0ZM4.3,8.7h0s0,0,0,0h0s0,0,0,0ZM4.5,8.7h0s0,0,0,0c0,0,0,0,0,0h0c0,0,0-.1,0-.1h0c0,0,0,.1,0,.1ZM4.5,8.5s0,0,0,0c0,0,0,0,0,0,0,0,0,0,0,0ZM4.5,8.3h0s0,0,0,0h0ZM4.5,8.7h0s0,0,0,0c0,0,0,0,0,0ZM4.5,8.3h0s0,0,0,0c0,0,0,0,0,0,0,0,0,0,0,0h0s0,0,0,0ZM4.6,7.7s0,0,0,0c0,0,0,0,0,0,0,0,0,0,0,0,0,0,0,0,0,0,0,0,0,0,0,0h0s0,0,0,0ZM4.8,8.2s0,0,0,0c0,0,0,0,0,0,0,0,0,.1-.1.2,0,0,0,0,0,0,0,0,0,0,0,0,0,0,0-.1,0-.2h0s0,0,0,0c0,0,0,0,0,0,0,0,0,0,0,0,0,0,0,0,0,0h0s0,0,0,0ZM5,7.5s0,0,0,0h0s0,0,0,0ZM5,7.5s0,0,0-.1c0,0,0,0,0,0,0,0,0,.1,0,.1,0,0,0,0,0,0ZM4.8,7.2c.1,0,.2.2.1.2h0s0,0,0,0c0,0,0,0,0,0,0,0-.1,0,0,0ZM4.9,8h0s0,0,0,0c0,0,0,0,0,0,0,0,0,0,0,0,0,0,0,0,0,0,0,0,0,0,0,0ZM5,7.7s0,0,0,0c0,0,0,0,0,0,0,0,0,0,0,0,0,0,0,0,0,0ZM5,7.9s0,0,0,0h0s0,0,0-.1c0,0,0,0,0,0,0,0,0,0,0,0,0,0,0,0,0,0ZM5,7.8s0,0,0,0h0s0,0,0,0ZM5.1,7.5s0,0,0,0c0,0,0,0,0-.1h0s0,0,0,0ZM5.2,7.1c0,0-.1.1-.2.2,0,.1,0-.1,0-.1h0s0,0,0,0c0,0,0,0,0,0,0,0,.1-.1.1-.2,0,0,0,0,0,0,0,0,0,.1,0,.1ZM5.4,7.3s-.1,0,0,0c0,0,0,0,0-.1,0,0,0,.1,0,.1ZM5.5,7.2h0s0,0,0,0h0s0,0,0,0ZM5.5,6.9s0,0,0,0c0,0,0,0,0,0,0,0,0,0,0,0h0ZM5.5,7.1h0s0,0,0,0h0s0,0,0,0ZM5.7,6.9s0,0,0,0c0,0,0,0,0,0h0s0,0,0,0ZM5.8,6.8s0,0,0,0c0,0,0,0,0,0,0,0,0,0,0,0h0c0,0,.2-.2.2,0h0ZM5.9,6.8h0s0,0,0,0h0s0,0,0,0Z"/>
    <path d="M6.1,6.7h0s0,0,0,0h0s0,0,0,0Z"/>
    <path d="M8.6,11.4s0,0,0-.2c0,0,0,0-.1.1,0,0,0,0,0,0Z"/>
    <path d="M8.6,11.2h0c0,0,0,0-.1,0,0,0-.1,0-.2.1.2,0,0,.1,0,0,0,0,0,0,0,0,0,0,0,0,0,0,0,0,0,0,0,0,0,0-.1,0-.2,0-.1,0-.1-.2,0-.3.1,0,0-.2,0-.2,0,0,0,0,0,0,0,.2-.1,0,0,0,0,0,0,0,0,0,.6-1.2,1.5-2.4,2-3.5,0-.1,0-.2,0-.3,0,0-.1,0-.2-.1h0s0,0,0,0h0s0,0,0,0c-.3-.6-.8.1-1.1.1.2-.3.4-.8,0-1,0,0,0,0,0,0-.7-.6-1.1.3-1.5.8-.3.6-.5,1.1.2,1.5,0,0,0,0,0,0,0,0,0,0,0,0,0,0-.3.3,0,.3h0c0,0,.1,0,0-.1,0,0,0,0,0,0,0,0,0,0,0,0h0c0-.1.1-.2.1-.1,0,0,0,0,0,.1,0,0,0,0,0,0,0,0,0,0,0,0,0,0,0,0,0,0,0,0,0,0,0,.1,0-.1.1-.2.3-.2,0,0,0,0,0,0,0,0,.4-.2.4-.2-.4.7-1,1.6-1.4,2.5,0,.2-.2,1,0,.5,0,0,.1-.2.1-.3,0,0,0,0,0,0,0,0,0,0,0,0,0,0,0,0,0,0,0,0,0,0,0,.1,0,.1,0,.2,0,.3h0s0,0,0,0c0,0-.1,0,0,.2h0c0,0,.2.3.2.3,0-.1.1,0,0,0,0,0,0,0,0,0,0,0,0,0,0,0,0,0,0,0,0,0,.1.1.3,0,.4,0,0,0,0,0,0,0,0,0,0,0-.2,0h0s0,0,0,0c0,0,0,0,0,0h0c0,0-.2,0,0,0,0,0,0,0,0,0,0-.1,0-.1.1-.1,0,0,0,0,0,0,0,0,0,.2,0,.2.1,0,.2-.2.3-.2.1,0,.3,0,.2-.1.1-.1.2,0,.2-.2,0,0,.2,0,.1,0,0,0,.1,0,.1-.1,0,0,.1-.2.2-.1,0,0,0,0,0,0h.1c0-.1,0-.2,0-.2,0,0,0,0,0,0,0,0,0,0,0,0,0,0,0,0,0,0,0,0,0,0-.1,0,0,0,0,0,0,0,0,0,0,0-.1,0,0,0,0,0,0,0,0,0,0-.1,0-.1,0,0,0,0-.2,0ZM9.5,7.1s0,0,0,0c0,0,.1,0,.1,0,0,0-.1,0-.2,0,0,0,0,0,0,0ZM8.8,6.8s0,0,0,0c0,0,0,0,0,0h0ZM8.1,6.9s0,0,0,0c0,0,0,0,0,0,0,0,0,0,0,0ZM7.9,7.4c0,.2-.3.6-.2.2,0-.1.2-.5.3-.5,0,0,0,.2-.1.3ZM8.1,8.5s0,0,0,0c0,0,0,0,0,0,0,0,0,0,0,0ZM7.5,11.5s0,0,0,0c0,0,0,0,0,0,0,0,0,0,0,0ZM7.5,10.7s0,0,0,0h0s0,0,0,0c0,0,0,0,0,0h0s0,0,0,0h0s0,0,0,0ZM7.5,11.3s0,0,0,0h0s0,0,0,0ZM7.4,11.5s0,0,0-.1c-.1-.1,0,0,0,0,0,0-.1.1-.1,0ZM7.5,11.8c0,0-.1-.1,0-.1,0,0,.1,0,0,.1ZM7.7,10.3c0,0,0-.1,0,0,0,0,0,0,0,0ZM7.9,11.9h0c.1,0,0,0,0,0ZM8.1,12s0,0,0,0c0,0,0,0,0,0h0ZM8.7,11.3c0,.2-.1,0-.3.2,0-.1,0-.1,0-.1,0,0,.1-.2.1-.2,0,0,.1,0,0,.1Z"/>
    <path d="M6.7,10.5h0c0,0,0,0,0,0,0,0,0,0,0,0Z"/>
    <path d="M9,10.4h0s0,0,0,0c0,0,0,0,0,0Z"/>
    <path d="M9.1,11s0,0,0,0c0,0,0,0,0,0h0Z"/>
    <path d="M8.1,11.4s0,0,0,0c0,0,0,0,0,0Z"/>
    <path d="M7.3,9.6s0,0,0,0c0,0,0,0,0,0,0,0,0,0,0,0,0,0,0,0,0,0,0,0,0,0,0,0Z"/>
    <path d="M7.7,8.9s0,0,0,0c0,0,0,0,0,0Z"/>
    <path d="M7.5,9.2c0,0,.1-.1,0-.1h0Z"/>
    <path d="M8.2,11.3c0,0,0,0,0-.1,0,0,0,.2,0,.1Z"/>
    <path d="M7.4,9.4s0,0,0,0c0,0,0,0,0,0Z"/>
    <path d="M6.8,10.4s0,0,0,0c0,0,0,0,0,0,0,0,0,0,0,0Z"/>
    <path d="M7.4,8.8h0s0,0,0,0c0,0-.2,0-.1.2,0,0,0,0,0,0,0,0,.3-.3,0-.3,0,0,0,0,0,0Z"/>
    <path d="M7.5,12.2h0s0,0,0,0h0Z"/>
    <path d="M6.9,10.2h0s0,0,0,0h0Z"/>
    <path d="M9.4,10.1s0,0,0,0c0,0,0,0,0,0Z"/>
    <path d="M7,10.1s0,0,0,0c0,0,0,0,0,0,0,0,0,0,0,0,0,0,0,0,0,0Z"/>
    <path d="M7.1,9s0,0,0,0c0,0,0,0,0,0,0,0,0,0,0,0Z"/>
    <path d="M9.1,11s0,0,0,0c.2,0,.1-.2,0,0Z"/>
    <path d="M13.6,7.5s0,0,0,0h0s0,0,0,0Z"/>
    <path d="M15.3,7.4h0s0,0,0,0h0s0,0,0,0Z"/>
    <path d="M14.1,7.6h0s0,0,0,0c0,0,0,0,0,0Z"/>
    <path d="M14.9,7.8h0s0,0,0,0c0,0,0,0,0,0,0,0,0,0,0,0Z"/>
    <path d="M15,7.8s.2-.3.2-.3h0s0,0,0,0c-.1.1-.3.3-.1.3Z"/>
    <path d="M13.8,7.9h0s0,0,0,0h0s0,0,0,0Z"/>
    <path d="M15,7.9s0,0,0,0h0s0,0,0,0h0Z"/>
    <path d="M13,7.3s0,0,0,0h0s0,0,0,0c0,0,0,0,0,0,0,0,0,0,0,0Z"/>
    <path d="M14.2,9.5s0,0,0,0c0,0,0,0,0,0h0s0,0,0,0Z"/>
    <path d="M13.9,7.6h0s0,0,0,0h0s0,0,0,0Z"/>
    <path d="M12.8,6.7h0s0,0,0,0c0,0,0,0,0,0,0,0,0,0,0,0Z"/>
    <polygon points="13.5 8.2 13.6 8.2 13.6 8.2 13.5 8.2"/>
    <path d="M14.3,6.7s0,0,0,0h0c0,0,0,0,0,0Z"/>
    <path d="M12.5,7.2s0,0,0,0c0,0,0,0,0,0h0s0,0,0,0Z"/>
    <path d="M14.8,8.8h0s0,0,0,0c0,0,0,0,0,0Z"/>
    <path d="M14.3,9.5h0s0,0,0,0h0s0,0,0,0c0,0,0,0,0,0Z"/>
    <path d="M12.8,7.1h0s0,0,0,0c0,0,0,0,0,0h0Z"/>
    <path d="M14.8,8.7h0s0,0,0,0c0,0,0,0,0,0Z"/>
    <path d="M13,7s0,0,0,0c0,0,0,0,0,0h0Z"/>
    <path d="M14.8,8.7s0,0,0,0h0s0,0,0,0Z"/>
    <path d="M19.4,8.9h0c0,0,0,0,0,0Z"/>
    <path d="M19.5,8.8h0s0,0,0,0c0,0,0,0,0,0h0Z"/>
    <path d="M19.9,8.4s0,0,0,0h0s0,0,0,0Z"/>
    <path d="M19.5,8.5h0s0,0,0,0c0,0,0,0,0,0Z"/>
    <path d="M19.9,7.5c0,0,.1,0,0,0,0,0-.1,0,0,0Z"/>
    <polygon points="19.2 8 19.2 8 19.2 8 19.2 8"/>
    <path d="M20.1,7.3h0s0,0,0,0h0s0,0,0,0Z"/>
    <path d="M19.9,8.2c0,0-.2,0-.2,0,0,0,0,0,0,0,0,0,0,0,0,0,0,0,0,0,0,.1,0,0,0,.1-.1.1,0,.1-.1.1,0,0,0,0,0,0,0,0,0,0,0,.1-.1.1,0,0,0,0,0,0,0,0,0-.1,0,0,.1,0,0,0,.1-.2,0,0,0-.1.1-.2,0,0,.1,0,0-.1,0,0,0,0,0,0h0c.3-.2.1-.2.1-.3.1,0,.2,0,0,0,0,0,0,0,0,0h0c0,.1,0,0,0,0,0,0,.2-.4.2-.4h0c-.2-.2-.2.1-.4.2,0,0-.1.1-.1.2,0,0-.1,0-.1.1-.1.2-.3.2-.5.5-.3.3-.4.4-.7.7,0,0-.2.2-.2.2,0,0-.3.5-.3.3.2-.5.5-1,.7-1.5,0,0,0,0,0-.1,0,0,0,0,0-.1,0-.1.1-.2.1-.3,0,0,.1-.2.2-.3,0-.2.2-.5.3-.7,0-.3-.1-.4-.3-.6-.3-.2-.3-.4-.6-.2,0,0-.1,0-.1.1,0,0,0,0-.1,0-.2.2-.4.4-.6.6-.3.2-.5.7-.7.8,0,0,0,0,0,0,0,0,0,0,0,0,0,0,0,0,0,0h0s0,0,0,0c0-.1,0-.3.2-.4,0,0,0,0,0,0,0-.2,0-.3.1-.4,0,0,0,0,0,0,0-.3-.4-.3-.5-.4-.1,0-.2,0-.2,0-.1.3-.2.5-.3.7,0,.1,0,.3-.2.4,0,.2-.2.4-.3.7-.1.1-.3.3-.4.4,0,0-.2.2-.1,0,0,0,.2-.2,0-.3-.2,0,0,.2-.2.2,0,0-.1.1-.1.2,0,0,0,0,0,0,0,0,0,0,0,0h0s0,0,0,0h0c0,0,0,.2-.2.2,0,0,0,.2-.1.2-.2.2-.4.4-.5.6,0,0-.1,0-.1.1,0,0-.1,0-.2.2,0,0,0,0,0,.1h0s0,0,0,0c0-.3.3-.6.2-.7,0,0,0-.1,0-.1,0,0,0-.1.2-.3,0,0,0,0,0-.1.1-.3.3-.6.5-.9,0,0,0-.1,0-.2.1-.2.2-.4.3-.6h0c.2-.2-.6-.7-.7-.5-.2.2-.4.4-.5.6-.1,0,0,.3-.2,0,0,0,0,0,0,0,0-.2-.3-.4-.5-.5-.2,0-.2,0-.2,0,0,0-.1,0-.1,0,0,0,0,0-.1,0,0,0-.2,0-.3.2,0,.1-.2,0-.2.2,0,0-.2.1-.2.2-.1,0-.2.2-.3.3-.6.9-1.5,1.8-2.1,2.7,0,0-.2.2-.1.2,0,0,0-.1.2,0,0,0,0-.2,0,0,.3-.1.2.3,0,.4,0,0-.2,0-.2,0,0,0,0,.2,0,0,0,0,0,0,0,0,0,0,0,0,0,.1,0,0,0-.2,0,0h0c0-.1.1-.2.2-.3-.2,0-.3,0-.3.2,0,0-.2,0-.2.1,0,0,0,.1,0,0h0s0,0,0,0c-.2.1,0,.3,0,.1h0s0,0,0,0h0s0,0,0,0c0,0,0,0,0,0,0,0,0,0,0,0,0,0,0,0,0,0,0,0,0,0,0,0h0c0,0,.1,0,.1,0,0,0,0,0,0,0,0,0,.1.2.1.2,0,0,.1-.1.1,0,0,0-.1.1,0,.2,0,0,0,0,.2-.1,0,0,0,0,.2-.1,0,0,0-.1.2-.1.2.2.3,0,.4-.2,0,0,0,0,0,0,0,0,0,.1,0,.2,0,0,0,.2,0,.3,0,0,0,0,0,.1,0,0,0,0,0,.1-.1.2,0,.4.2.4.2,0,.4.1.5,0,.1,0,.2-.1.3-.1,0,0,.1,0,.1-.1,0,0,.2-.2.3-.2v-.2c.3,0,.5-.4.6-.5,0,0,0,0,0-.1,0,0,.1,0,.1-.1,0,0,0,0,0,0,.2-.2,0,0,.3-.3.2-.3.2-.2.3-.4h0s0,0,0,0c0,0,0,0,0,0,.1,0,0-.2.1-.2,0,0,0,0,0,0,0,0,0,.2,0,.2,0,.1,0,.3-.2.4,0,0,0,.2,0,.2,0,.1,0,.3-.1.4,0,.1,0,.3,0,.3,0,0,0,.2,0,.3,0,0,.2.1.3.2,0,0,0,0,.1,0,0,0,.1,0,.1,0h0c.2-.1.5-.3.6-.5,0,0,0,0,0,0,0-.2.2-.2.2-.3,0,0,.1-.1.2-.2,0,0,0,0,0-.1,0,0,.1,0,0-.1,0,0,.1-.1.1-.1,0,0,0,0,0,0,0,0,0,0,0,0,0,0,0,.1,0,.1,0,0,0,0,0,0,0,0,0,.1,0,.2,0,0,0,.1,0,.2-.1.1,0,.4,0,.5,0,.1,0,.2,0,.2,0,0,0,0,0,0,0,0,.4,0,.5,0,.4,0,.6-.4.8-.7.2-.2.3-.4.5-.6.2-.3.3-.4.4-.5,0,0,0,0,0,0,.6-.7,1.1-1.6,1.8-2.2h0s0,0,0,0h0s0,0,0,0c0,0,0,0,0,0h0s0,0,0,0c0,0,0,.1-.1.1-.1.2-.2.5-.4.7,0,0,0,.1,0,.1h0c0,.2-.1.3,0,.4,0,0,0,.1-.1.2,0,0-.1.3-.2.3,0,.2-.2.3-.2.5,0,0-.1.2-.1.3,0,0,0,0,0,.1,0,.2,0,.3,0,.4,0,.2,0,.3,0,.5.1.1.2.1.4.2h.1c0-.1.3,0,.4-.2,0,0,.2,0,.2-.1,0,0,.2-.2.2-.2,0,0,0,0,0,0,0,0,0-.2,0-.1,0,0,0,0,0,0,.2,0,.4-.3.5-.4.1-.1.4-.3.3-.5,0-.1.1,0,.2-.1,0,0,.2-.1.2-.2,0,0-.1,0-.2,0,0,0,0,0,0,0,0,0,0,0,0,0,0,0,0,0,0,0,0,0,0-.1,0,0,0,0,.2,0,.2,0h0c.3,0,.1,0,.1-.1,0,0,.1,0,.2,0,0,0-.1,0-.1,0h0c0,0,0-.1.1-.1,0,0,0,0,.2-.1,0,0,0,0,.1,0,0,0,0,0,0-.1,0,0,0,0,0,0h0c0,0,0,0,.1-.1,0,0,0,0,0,0h0c0,0,0-.1,0-.1,0,0,0,0,0,0,0,0,.1,0,0-.1,0,0,0,0,0,0ZM19.4,7.8h0s0,0,0,0c0,0,0,0,0,0,0,0,0,0,0,0ZM19.3,8s0,0,0,0c0,0,0,0,0,0,0,0,0,0,.1,0,0-.1,0-.1,0-.1,0,0,0,0,0,0h0s0,0,0,0h0c0,0,0,.1-.1.1,0,0,0,0,0,0,0,0,0,.1-.1.1,0,0,0,0,0,0,0,0,0,0,0,0h0s0,0,0,0c0,0,0,0,0,0h0ZM19.3,8.2h0s0,0,0,0c0,0,0,0,0,0h0ZM14.2,6.6c0-.2.3.2,0,.1h0c0,0,0-.1,0-.1ZM13.5,8.3s0,0,0,0c0,0,0,0,0,0h0ZM13.6,8.2h0s0,0,0,0c0,0,0,0,0,0,0,0,0,0,0,0,0,0,0,0,0,0h0s0,0,0,0c0,0,0,0,0,0ZM13.7,8.2s0,0,0,0h0s0,0,0,0ZM13.7,8.1s0,0,0,0h0c0,0,0,0,0,0h0ZM14,7.2h0s0,0,0,0c0,0,0,0,0,0,0,0,0,0,0,0h0c0,0,0,0,0,0ZM13.8,7.7s0-.1.1-.2c0,0,0,0,0,0h0s0,0,0,0c0,0,0,0,0,0h0s0,0,0,0c0,0,0,0,0,0,0,.2-.2.2-.2.4,0,0-.1,0,0,0,0,0,0,0,0,0h0s0,0,0,0c0,0,0,0,0,0,0,0,0,0,0,0,0,0,0-.1,0-.2ZM13.7,7.3h0s0,0,0,0c0,0,0,0,0,0h0ZM13.5,7.5s0,0,0,0c0,0,0,0,0,0,0,0,0,0,0,0,0,0,0,0,0,0,0,0,0,0,0,0,.1,0,0,.2,0,0h0s0,0,0,0h0s0,0,0,0h0s0,0,0,0ZM13.5,8.4s0,0,0,0h0s0,0,0,0h0s0,0,0,0ZM13.4,8.5h0s0,0,0,0h0s0,0,0,0h0ZM13.4,8.8h0s0,0,0,0h0s0,0,0,0ZM13.3,8.8s0,0,0,0c0,0,0,0,0,0h0s0,0,0,0ZM9.5,10c-.1,0,0,.1,0,.2h0c0,.1,0,0,0,0,0,0,0,.1-.1,0,0,0,0,0,.1,0,0,0,0-.1,0,0,0,0-.1,0,0,0,0,0,0,0,0,0,0,0,0,0,0,0,0-.1.4-.2.2,0ZM9.6,9.8h0s0,0,0,0h0ZM12.6,6.8s0,0,0,0c0,0,0,0,0,0h0s0,0,0,0ZM12.7,6.8s0,0,0,0c0,0,0,0,0,0,0,0,0,0,0,0ZM12.6,6.7s0,0,0,0c0,0,0,0,0,0,0,0,0,0,0,0ZM12.5,6.9s0,0,0,0h0s0,0,0,0c0,0,0,0,0,0ZM12.4,6.7s0,0,0,0h0s0,0,0,0h0s0,0,0,0ZM12.3,7s0,0,0,0c0,0,0,0,0,0,0,0-.2,0,0,0ZM10.5,8.6s0,0,0,0c0,0,0,0,0,.1,0,0,0,0,0,0,0,0,0,0,0,0ZM10.3,8.8s0,0,0,0c0,0,0,0,0,0,0,0-.1.1-.2.2,0,0,0-.2,0-.2ZM9.9,9.8s0,0,0,0c0,0,0,0,0,.1,0,0-.2-.1,0-.1ZM9.7,10.3s0,0,0-.1c0,0,0,0,0,0,0,0,0,0,0,0ZM9.8,10.1s0,0,0,0c0,0,0,0-.1-.1,0,0,.1,0,.2,0v.2ZM11,9.9s0,0,0,0c0,0,0,0,0,0,0,0,0,0,0,0ZM11.1,9.7s0,0,0,0c0,0,0,0,0,0,0,0,0,0,0,0ZM11.3,9.5s0,0,0,0c0,0,0,0,0,0,0,0,0,0,0,0ZM11.4,9.4h0s0,0,0,0c0,0,0,0,0,0ZM11.8,8.8h0s0,0,0,0ZM11.9,8.7c-.4.6-.7.9-1,1.3,0,0-.2.2-.2.2h0s0,0,0,0h0s0,0,0,0c0,0,0,0,0,0h0s0,0,0,0c0,0,0-.1,0-.2,0,0,0,0,0-.1.2-.3.4-.9.6-1.2.2-.4.5-.8.8-1,.2-.2.2-.2.4,0,0,0,0,.1,0,.2-.2.3-.4.5-.7.9ZM13.1,7h0s0,0,0,0h0s0,0,0,0h0c0,.2.2.4,0,.4,0,.1-.1,0,0,.1,0,0-.1-.1-.1-.1,0,0,0-.1-.1-.2h0s0,0,0,0c0,0,0,.1,0,.1.1.2.2.2,0,.4,0,0-.1-.2-.1-.4,0,0-.2-.2-.2-.3h0c0,.1.1,0,.1,0h0s0,0,0,0c0,0,0-.1,0-.1h0s0,.1.1.1h0s0-.2,0-.2c0,0,0,0,0,0,0-.1,0,0,0-.2-.2,0,0-.1-.1-.2h0s0,0,0,0c0,0,0,0,0,0,0,0,.2,0,.2,0,0,0,0,.1,0,.1,0,0,0,0,0,.1,0,0,0,0,0,0h0s0,0,0,0c0,0,0,0,0,0ZM13.2,9.1s0,0,0,0c0,0,0,0,0,0,0,0,0,0,0,0,0,0,0,0,0,.1h0c0,0,0-.1,0-.1,0,0,0,0,0,0h0s0,0,0,0h0s0,0,0,0c0,0,0,0,0,0h0s0,0,0,0ZM13.8,9.3s0,0,0,0h0s0,0,0,0c0,0,0,0,0,0ZM13.9,9.5h0s0,0,0,0h0s0,0,0,0ZM15,8.3c.1,0,.2-.2.3-.3,0,0,0,.2-.2.3,0,0-.1.2-.1.3,0,0,0,0,0,0,0,0,0,0,0,0-.1,0,0,0,0-.2ZM14.6,8.7h0s0,0,0,0h0s0,0,0,0ZM14.1,9.1s0,0,0,0c0,0,0,0,0,0h0ZM14.1,9h0s0,0,0,0h0s0,0,0,0ZM14,9.4h0s0,0,0,0c0,0,0,0,0,0,0,0,0,0,0,0ZM13.9,9.2h0s0,0,0,0c0,0,0-.1,0-.1h0s0,0,0,0c0,0,0,.1,0,.2ZM14.1,9.3s0,0,0,0c0,0,0,0,0,0,0,0,0,0,0,0,0,0,0,0,0,0ZM14.2,9.2h0s0,0,0,0c0,0,0,0,0,0ZM14.2,9.8s0,0,0,0c0,0,0,0,0-.1,0,0,0,0,0,0ZM14.3,9.7s0,0,0,0c0,0,0,0-.1,0,0,0,0,0,0,0h0s0,0,0,0c0,0,0,0,0-.1,0,0,0,0,0,0,.1-.2.3-.4.4-.6,0,0,0,0,0,0,0,0,0-.1.2-.1,0,0,0,0,0,0,0,0,0,0,0,0h0s0,0,0,0c0,0,0,0,0,0,0,0,0,0,0,.1,0,.1-.2.2-.2.4,0,0-.1.2-.1.2,0,0-.2.3-.2.3,0,0,0,0,0,0,0,0,0,0,0,0ZM18.7,9.5h0s0,0,0,0c0,0,0,0,0,0,0,0,0,0,0,0ZM18.7,9.4h0s0,0,0,0c0,0,0,0,0,0,0,0,0-.2,0-.1,0,0,0,0,0,0ZM18.8,8.7h0s0,0,0,0h0s0,0,0,0ZM18.8,9.2h0s0,0,0,0c0,0,0,0,0,0h0ZM18.8,9.1c0,.1,0,0,0,0h0s0,0,0,0ZM19,9.2h0s0,0,0,0c0,0,0,0,0,0,0,0,0,0,0,0ZM18.9,9.2s0,0,0,0h0ZM18.9,9.2s0,0,0,0h0s0,0,0,0c0,0,0,0,0,0h0s0,0,0,0h0ZM19.2,8.2h0s0,0,0,0c0,0,0,0,0,0h0ZM18.9,8.7s0,0,0,0h0s0,0,0,0h0s0,0,0,.1ZM19,8.6s0,0,0,0h0s0,0,0,0h0ZM19,8.5s0,0,0,0h0s0,0,0,0c0,0,0,0,0,0ZM19,9s0,0,0,0h0s0,0,0,0c0,0,0,0,0,0ZM19.1,8.8s0,0,0,0c0,0,0,0,0,0,0,0,0,0,0,0ZM19.1,8.1s0,0,0,0c0,0,0,0,0,0,0,0,0,0,0,0,0,0,0,0,0,0,0,0,0,0,0,0h0s0,0,0,0c0,0,0,0,0,0h0ZM19.2,8.4h0c0,0,0-.2,0-.2,0,0,0,0,0,0,0,0,0,0,0,.1h0ZM19.2,8.7s0,0,0,0c0,0,0,0,0,0h0c0,0,0,0,0,0ZM19.2,8.8s0,0,0,0c0,0,0,0,0,0,0,0,0,0,0,0ZM19.2,8.8s0,0,0,0h0s0,0,0,0ZM19.5,8.6h0s0,0,0,0c0,0,0,0,0,0,0,0,0,0,0,0ZM19.7,8.4h0s0,0,0,0c0,0,0,0,0,0h0Z"/>
    <path d="M19.9,8c0,0,.1,0,0,0h0s0,0,0,0c0,0,0,0,0,0Z"/>
    <path d="M20.1,6.9s0,0,0,0h0s0,0,0,0c0,0,0,0,0,0,0,0,0,.1,0,.1h0s0,0,0,0c0,0,0-.1.1-.1,0,0,0,0,0,0h0Z"/>
    <path d="M19.9,7.8s0,0,0,0c0,0,0,0,0,0h0s0,0,0,0Z"/>
    <path d="M20.2,6.7h0s0,0,0,0h0s0,0,0,0Z"/>
    <path d="M20.8,5.9s0,0,0,0c0,0,0,0,0,0h0s0,0,0,0Z"/>
    <path d="M20.9,5.8s0,0,0,0h0s0,0,0,0h0s0,0,0,0Z"/>
    <path d="M20.5,6.3s0,0,0,0c0,0,0,0,0,0h0s0,0,0,0Z"/>
    <path d="M20.4,6.4s0,0,0,0c0,0,0,0,0,0,0,0,0,0,0,0,0,0,0,0,0,0Z"/>
    <path d="M20.4,6.5s0,0,0,0c-.2.1,0,.1,0,0h0s0,0,0,0Z"/>
    <path d="M19.7,7.7h0s0,0,0,0h0Z"/>
    <path d="M19.4,8h0s0,0,0,0c0,0,0,0,0,0Z"/>
    <path d="M19.4,8h0s0,0,0,0c0,0,0,0,0,0Z"/>
    <path d="M24,6s0,0,0,0c0,0,0,0,0,0,0,0,0,0,0,0Z"/>
    <path d="M30,7.2h0s0,0,0,0c0,0,0,0,0,0h0Z"/>
    <path d="M29.9,8.1s0,0,0,0c0,0,.1-.1.2-.2,0,0,0-.1.1-.1.2-.3.6-.5.8-.8,0,0,0,0,0,0,0,0,0,0,0,0,0,0,0,0,0,0,0,0,0,0,0,0,0,0,0-.1,0-.2,0,0,0,0,0,0,0,0,0,0,0,0,0,0,0,0,0,0h0s0,0,0-.1h0c0,0,0,0,.1.1,0,0,0-.1,0-.2,0,0-.3,0-.1-.2,0,0,0,0,0-.1,0,0,0,0,0,0h0s0,0,0,0c0,0,0,0,0,0h0s0,0,0,0h0s0,0,0,0h0c0,0-.2.2-.2.1,0,0-.3.2-.3.3,0,0-.2.1-.2.2,0,0,0,.2-.1.2-.1.1-.2.1-.2.2,0,0,0,.1-.2.1,0,0-.3.4-.3.1,0,0-.1,0,0,0,0,0,0,0,0,0,0,0,0,0-.1.1h0c0,0,0,.1,0,0,0,0,0,0,0,0,0,0,0,0,0,0,0,0,0,0,0,0h0s0,0,0,0c0,0,0,0,0,0h0s0,0,0,0c0,0,0,0,0,0,0-.2-.2,0-.2-.1,0,0,0,0,0,0,0,0-.1.1-.2.1h0c-.4.2-.1.3-.3.4,0,0,0,0,0,0,.1-.5.3-1,.5-1.4,0,0,0-.1,0-.1,0-.2.1-.3.2-.4,0,0,0,0,0-.1,0-.2.2-.3.3-.5,0,0,.2-.2.1-.3,0,0,0-.1.1-.2,0-.3.3-.5.4-.8,0,0,0,0,0-.1,0,0-.2,0-.2,0-.1,0-.2.1-.3,0-.2,0-.4.3-.5.5,0,0,0,0,0,0,0,0-.2,0-.3.1-.1,0-.2,0-.3.2-.2,0-.3.1-.5.2,0,0,0,0,0,0,0,0,0,0-.1,0,0,0-.1,0-.1,0,0,0-.1,0-.1,0,0,0-.1,0-.1.1,0,0-.2,0-.2.1-.2,0-.4.4-.6.3,0-.1-.2-.2-.3-.3-.1,0-.2-.2-.4-.2,0,0-.1,0-.1,0,0,0,0,0-.1,0-.4-.1-.7,0-1,0,0,0,0,0-.1,0,0,0,0,0,0,0,.1-.1.2-.2.4-.4,0,0,0,0,0,0h0c0,0,0,0,.1,0,0-.1.2,0,.2-.2.2-.1.4-.3.6-.4.2-.1.6-.5.9-.6,0,0,.1,0,.1-.1,0,0,.2-.1.3-.2.2,0,.3-.2.5-.3,0,0,0,0,0,0,0,0,0,0,.1,0,0,0,.2,0,.2-.1,0,0,0,0,.1,0,0,0,.1,0,.1,0,0,0,0,0,0,0,0,0,0,0,0,0,0,0,.1,0,.1,0,0,0,.2,0,.2-.1.3,0,.2,0,0,.3,0,0-.1,0-.1.1,0,0,0,.1-.1.1h0s0,0,0,0c0,0,0,0,0,0,0,0,0,0,0,.1,0,0,0,0,0,0,0,.2.2.1.3.2.1-.1,0,0,.3,0,.1,0,.2-.2.3-.1,0,0,0,0,0,0,0,0,.1-.1.2-.1,0-.1.2-.2.3-.4.2-.4,0-.5-.2-.8h0c-.1-.1-.2-.3-.4-.3-.4-.1-1.1.3-1.5.4,0,0-.2,0-.2.1,0,0-.2,0-.2,0,0,0,0,0-.1,0,0,0-.1.1-.1.1,0,0-.2.1-.3.1,0,0,0,0,0,0-.3.2-.5.3-.8.5,0,0-.2,0-.2.1-.2,0-.4.2-.6.4,0,0-.1.1-.2.1-.1.1-.3.2-.4.4,0,0,0,0,0,0,0,0,0,0,0,.1,0,0,0,0-.1,0,0,.2-.1.1-.3.3h0s0,0,0,.1c-.1.1-.3.3-.4.4,0,0,0,0,0,0,0,0-.1.1-.1.2h0s0,0,0,0c0,0,0,0,0,0h0s0,0,0,0c-.1,0,0,0,0,0,0,0,0,0-.1,0,0,.1,0,.5.2.4,0,0,0,0,.1,0,0,0,0,0,0,0,0,0,0,0,0,0h0c0,.1,0,0,0,0h0c-.3.1,0,.2.2.1,0,0,0,0,0,0,0,0,0,0,0,0,0,0,0,0,0,0,0,0,.2,0,.2,0,0,0,0,0,0,0,0,0,0,0,0,0,.1,0,.2-.1.3,0h.2s.3,0,.3,0c.2,0,.4.1.5.2,0,0,.2.2,0,.2-.3.2-.5.4-.8.6,0,0-.2,0-.2.1,0,0-.2,0-.2.1-.3.2-.5.4-.8.6-.4.3-.7.5-1,.8,0,0,0,0-.1.1,0,0,0,.1-.1.1,0,0-.1.1-.1.1-.3.2-.5.5-.7.8,0,0,0,0,0,.2,0,0,0,.3,0,.3,0,.1.1.2.2.3.1.1.4.2.6.2,0,0,.2,0,.2,0,0,0,0,0,.1,0,0,0,0,0,0,0,0,0,.1,0,.2,0,0,0,.2,0,.2-.2,0,0,.2-.1.3-.1.2-.1.3-.3.6-.4,0,0,0,0,0,0,0,0,0,0,0,0,.2-.2.5-.3.7-.6,0,0,0,0,.1,0,0,0,0,0,.1-.1.1-.1.2-.1.3-.3.4-.4.8-.9,1.1-1.5,0,0,0,0,0-.1,0,0,0-.1,0-.2,0,0,0,0,0,0,0,0,0-.2,0-.3,0,0,.1,0,.1,0h0c0,0,0,0,0,0,0,0,0,0,.1,0,0,0,0,0,.1,0,0-.1.2-.2.4-.2,0,0,0,0,.2-.1,0,0,.2,0,.2-.1,0,0,0,0,.1,0,0,0,0,0,0,0,0,0,0,0,.1,0-.2.4-.4.9-.6,1.3,0,0,0,0,0,.1-.1.3-.2.7-.3,1,0,0,0,.1,0,.2,0,0,0,.1,0,.2,0,.3,0,.6.3.7,0,0,0,0,0,0,0,0,0,0,0,0,.2-.1.5-.1.7-.3,0,0,.1,0,.2,0,0,0,0-.1.1-.1,0,0,0,0,0,0,0,0,0,0,.1,0,0,0,.1-.1.2-.2,0,0,0,0,.1,0,0,0,0,0,0-.1,0,0,0,0,.1-.1,0,0,0-.1.1-.1ZM30.2,2.4h0s0,0,0,0h0s0,0,0,0ZM25.1,4.6h0s0,0,0,0h0s0,0,0,0ZM24.5,5.2h0s0,0,0,0h0s0,0,0,0ZM26,7.6h0s0,0,0,0c-.2.2-.3.6-.5.7-.2.2-.4.4-.6.6,0,0,0,0,0,0,0,0-.1.1-.2.1-.2.2-.5.4-.6.5-.1,0-.3.2-.5.3-.1,0-.2.1-.3.1,0,0,0,0,0,0h0s0,0,0,0h0s0,0,0,0c.2-.3.5-.6.8-.8,0,0,0-.1.1,0,0,0,0-.1.1-.1,0,0,0,0,0,0,0,0,0,0,0,0,.1-.1.2-.2.4-.3.2-.2.5-.3.7-.5,0,0,.1,0,.1,0,.1-.1.3-.2.5-.4,0,0,0,0,0,0l-.3.2c.1-.1.2-.2.3-.2h0s0,0,0,0c0,0,0,0,0,0ZM27,7.3s0,0,0,0h0s0,0,0,0h0s0,0,0,0ZM27,7.2h0c0,0,0,0,0,0h0s0,0,0,0h0ZM27,7.1h0s0,0,0,0h0s0,0,0,0h0ZM29.2,7.9h0s0,0,0,0c0,0,0,0,0,0,0,0,0,0,0,0ZM29.1,7.9s0,0,0,0c0,0,0,0,0,0h0s0,0,0,0c0,0,0,0,0,0h0c0,0,0,0,0,0ZM29.2,8.1s0,0,0,0h0s0,0,0,0h0s0,0,0,0Z"/>
    <path d="M29.1,7.9s0,0,0,0c0,0,0,0,0,0,0,0,0,0,0,0Z"/>
    <path d="M29.9,7.3s0,0,0,0h0c0,0,0,0,0,0Z"/>
    <path d="M29.7,7.5h0s0,0,0,0h0s0,0,0,0Z"/>
    <path d="M31.4,5.8h0s0,0,0,0h0s0,0,0,0Z"/>
    <path d="M29.5,7.4h0c0,.1,0,0,.2,0,0,0,0,0-.1,0h0Z"/>
    <path d="M29.6,7.3h0s0,0,0,0h0s0,0,0,0Z"/>
    <path d="M29.7,7.5s0,0,0,0c0,0,0,0,0,0,0,0,0,0,0,0h0s0,0,0,0Z"/>
    <path d="M29.9,7.4h0s0,0,0,0h0s0,0,0,0Z"/>
    <path d="M29.6,7.7h0s0,0,0,0c0,0,0,0,0,0,0,0,0,0,0,0Z"/>
    <path d="M30.5,6.7h0s0,0,0,0c0,0,0,0,0,0h0Z"/>
    <path d="M31.5,5.7s0,0,0,0h0s0,0,0,0h0Z"/>
    <path d="M29.3,7.7s0,0,0,0c0-.1,0-.1.1-.1h0c0,0,0,0,0,0,0,0,0,0-.1,0,0,.1-.2,0-.2.2,0,0,0,0,.1,0Z"/>
    <path d="M28.2,9.4s0,0,0,0c0,0,0,0,0,0h0Z"/>
    <path d="M31.3,6s0,0,0,0h0s0,0,0,0c0,0,0,0,0,0Z"/>
    <path d="M30.6,6.6s0,0,0,0c0,0,0,0,0,0h0s0,0,0,0Z"/>
    <path d="M30.2,3.1s0,0,0,0c-.1,0-.2.1-.3.1,0,0-.1,0,0,0,0,0,0,.4,0,.4,0,0,0,0,0,0,0,.2.2.2.3.1.1,0,.4,0,.5,0,0,0,.2,0,.2-.1h0c0-.3,0-.2,0-.4,0,0,0,0,0,0-.1-.1,0,0-.2-.4,0,0-.2,0-.2,0-.1,0,0,0-.2,0,0,0-.1,0-.2,0Z"/>
    <path d="M31,6.2s0,0,0,0h0s0,0,0,0c0,0,0,0,0,0Z"/>
    <path d="M31.3,6.3s0,0,0,0c0,0,0,0,0,0h0s0,0,0,0Z"/>
    <path d="M30.8,6.4s0,0,0,0c0,0,0,0,0,0,0,0,0,0,0,0Z"/>
    <path d="M31.3,6.3h0s0,0,0,0h0s0,0,0,0Z"/>
    <path d="M31.2,8.1s0,0,0,0h0s0,0,0,0c0,0,0,0,0,0Z"/>
    <path d="M31.4,8.1s0,0,0,0c0,0,0,0,0,0h0s0,0,0,0Z"/>
    <path d="M34.7,4.2s0,0,0,0h0s0,0,0,0Z"/>
    <path d="M34.3,4.1s0,0,0,0c0,0,0,0,0,0,0,0,0-.1,0-.1,0,0-.2,0-.1,0,0,0,0,0,0,0Z"/>
    <path d="M34.1,7s0,0,0,0c0,0-.1,0-.2,0,0,0,0,0,0,0,0,.1-.2.3-.3.4-.2.3-.5.6-.8.8,0,0,0,0,0-.2,0,0,0-.3,0-.4,0,0,0-.3,0-.3,0-.3,0-.5,0-.8.1-.2.4-.4.5-.6.1,0,.3-.3.4-.4,0,0,.3-.3.3-.4.2-.1.4-.4.5-.6,0,0,0-.1.2-.2,0,0,0,0,0-.1,0,0,0,0,0,0h0c0,0,0,0-.2,0,0,0,0,0,0,0,0,0,0,0,0,0h0s0,0,0-.1c0,0,0,0,0,0-.1,0-.2.3-.4.3,0,0,0,0,0,0,0,0,0,0,0-.1h0c0-.2.2-.3.2-.4-.3,0-.7.7-.9.8-.3.2-.4.5-.7.7,0-.3,0-.6-.1-.7,0-.2,0-.2,0-.4,0-.2-.2-.5-.4-.5-.2,0-.5.1-.6.3,0,.1-.1.4,0,.6,0,.1.2.1.2.3,0,0,0,.4,0,.5,0,0,0,.1,0,.2,0,0,0,.2,0,.3h0c0,.2,0,.4,0,.5,0,0,0,0,0,.1-.2.2-.3.3-.4.5-.2.1-.3.4-.5.5,0,.1-.2.2-.1.3,0,0,0,0,0,0h0s0,0,0,0c0,0,0,0,0,0-.2.2-.5.6-.7.9,0,.1-.3.4-.2.6,0,.1,0,.2.2.1.1.1.4-.2.5-.2,0,0,.1-.1.2-.2,0,0,0,0,.1-.2,0-.2.5-.5.4-.8,0,0,0,0,0,0h0c0,0,0,0,0-.1-.2,0,0,0-.2,0h0s0-.1.1-.1h0c0,0,0-.1.1-.2h0s.1-.1.2-.1h0s0,0,0,0c0,0,0,0,0,0h0c0,0,0,.1-.1.1,0,0,0,.1,0,0,0,0,.1,0,.2,0,.4-.4.3.6.4.7,0,0,0,.1,0,.1,0,0,0,0,0,.1,0,0,.2.2.3.2,0,0,.1,0,.2,0,0,0,.2,0,.3,0,0,0,0,0,0,0,.1,0,.2,0,.3-.3,0-.1.4-.5.4-.5,0,0,0,0,0,0,0,0,0,0,0,0,0,0,0,0,0,0h0c0-.1.1,0,.1,0,0,0,0-.1,0-.2h0c0-.1-.1,0-.2-.1,0,0,0,0-.1,0,0,0,0,0,0,0,0,0,0,0,0,0,0,0,.1,0,.1-.1,0,0,0,0,.1,0,0,0,0,0,0-.1,0,0,0,0,0-.1,0,0,.1-.2.2-.2,0,0,0-.1,0-.1h0s0,0,0,0ZM34.4,4.3h0s0,0,0,0h0s0,0,0,0ZM34.1,4.3s0,0,0,0h0s0,0,0,0h0ZM31.8,4.8c0,0,0-.1,0-.1,0,0,0,0,0,0h0ZM30.5,8.6s0,0,0,0h0s0,0,0,0h0s0,0,0,0ZM30.6,8.6h0s0,0,0,0c0,0,0,0,0,0h0ZM33.3,8.6s0,0,0,0c0,0,0,0,0,0h0s0,0,0,0ZM33.5,8h0s0,0,0,0h0s0,0,0,0h0Z"/>
    <polygon points="31.5 7.8 31.5 7.8 31.5 7.8 31.5 7.8"/>
    <path d="M34.3,6.7h0s0,0,0,0c0,0,0,0,0,0h0Z"/>
    <path d="M34.5,6.3h0s0,0,0,0c0,0,0,0,0,0,0,0,0,0,0,0Z"/>
    <path d="M34.2,6.8s0,0,0,0h0s0,0,0,0h0Z"/>
    <path d="M34.3,6.7h0s0,0,0,0h0s0,0,0,0Z"/>
    <path d="M34.3,4.2s0,0,0,0c0,0,0,0,0,0h0Z"/>
    <path d="M31.4,8.1s0,0,0,0h0s0,0,0,0Z"/>
    <path d="M33.9,7.4s0,0,0,0c0,0,0,.3-.3.3h0s0,0,0,0h0s0,0,0,0c0,0,0-.2,0-.1,0,0,0,0,0,0,0,0,0,0,0,0,0,0,0,0,0,0Z"/>
    <path d="M34,7.3c0,0,0,0,0,0,0,0,0,0,0,0,0,0,0,0,0,0Z"/>
    <path d="M31.6,8s0,0,0,0h0s0,0,0,0h0Z"/>
    <path d="M34.1,7s0,0,0,0c0,0,0,0,0,0h0s0,0,0,0Z"/>
    <path d="M33.9,7.8s0,0,0,0c0,0,0-.1-.1,0h0c0,0,0,0,0,.1Z"/>
    <path d="M33,3.2h0s0,0,0,0h0s0,0,0,0Z"/>
    <path d="M33.3,2.6h0s0,0,0,0h0s0,0,0,0h0Z"/>
    <path d="M33.1,3.3h0s0,0,0,0h0s0,0,0,0h0Z"/>
    <path d="M33.1,2.7h0s0,0,0,0h0s0,0,0,0Z"/>
    <path d="M33.1,2.6h0s0,0,0,0h0s0,0,0,0Z"/>
    <polygon points="32.8 3.1 32.8 3.1 32.8 3.1 32.8 3.1 32.8 3.1"/>
    <path d="M33.1,2.6h0s0,0,0,0c0,0,0,0,0,0Z"/>
    <path d="M37,5.7s0,0,0,0h0s0,0,0,0Z"/>
    <path d="M33.7,3s0,0,0,0c0,0,0,0,0,0,0,0,0,0,0,0Z"/>
    <path d="M33.6,2.9s0,0,0,0c0,0,0,0,0,0,0,0,0,0,0,0,0,0,0,0,0,0Z"/>
    <path d="M37,6.1s0,0,0,0h0s0,0,0,0Z"/>
    <path d="M37,5.7h0s0,0,0,0c0,0,0,0,0,0Z"/>
    <path d="M33.9,2.7s0,0,0,0c0,0,0,0,0,0,0,0,0,0,0,0Z"/>
    <path d="M33.2,3.4s0,0,0,0c0,0,0,0,0,0h0s0,0,0,0Z"/>
    <path d="M37.3,5.4h0s0,0,0,0c0,0,0,0,0,0,0,0,0,0,0,0Z"/>
    <path d="M36.8,5.7s0,0,0,0h0s0,0,0,0Z"/>
    <path d="M33.3,2.9s0,0,0,0h0s0,0,0,0c0,0,0,0,0,0Z"/>
    <path d="M39.2,5h0s0,0,0,0h0s0,0,0,0Z"/>
    <path d="M37,6.5s0,0,0,0c0,0,0,0,0,0h0Z"/>
    <path d="M33.2,3.3s0,0,0,0c0,0,0,0,.1,0,0,0-.2-.1-.1,0Z"/>
    <path d="M33.5,3.1s0,0,0,0c0,0,0,0,0,0h0s0,0,0,0Z"/>
    <path d="M38.4,4.6s0,0,0,0h0s0,0,0,0Z"/>
    <path d="M38,5.3s0,0,0,0h0s0,0,0,0Z"/>
    <path d="M40.8,3.9h0c0-.1,0-.3,0-.3,0-.2,0-.3-.1-.3,0,0,0,0,0,0,0-.2-.3-.4-.5-.4,0,0,0,0,0,0,0,0-.1,0-.2,0,0,0-.4,0-.5,0-.3,0-.5.2-.8.3-.2.1-.3.2-.5.3-.3.2-.7.4-.9.8,0,.1.3.3.4.4h0s0,0,0,0h0s0,0,.1,0h0c0,0,0,.1,0,.2,0,0,0,0,0,0h0s0,0,0,0c0,0,0,0,0,0,0,0-.1.1-.1.2,0,0-.1,0,0,0,0,0,0,0,0,0,0,0,0,0,0,0,0,0,0,0,0,0,0,0,0,.1,0,0,0,0,0,0,0,0,0,0,0-.2.1-.2,0-.1.1-.1.1-.2,0,0-.2,0-.2,0,0,0-.1.2-.2.2,0,0-.1.1,0,.2,0,0,0,0,0,0,0,0,0,0,0,0-.1.2-.3.2-.5.5-.3.3-.4.4-.7.7,0,0-.2.2-.2.2,0,.1-.2.2-.3.3h0s0,0,0,0c0,0,0,0,0,0,0,0,0,0,0,0,0,0,0,0,0,0,0,0,0,0,0,0,0,0,0-.2,0-.2.1-.4.4-.7.5-1.1.1-.1,0-.3.2-.4h0c.1-.4.3-.7.4-1,.1-.3.3-.6.4-.9.1-.3.3-.6.5-.9,0,0,0-.2.1-.2,0-.2.2-.1.4-.2.4-.1.6,0,1-.1.3,0,1.2.3.9-.3-.1-.2-.2-.4-.4-.5-.2,0-.4,0-.5,0,0,0-.4,0-.4,0,0,0-.4,0-.5,0,0-.3.6-.6.1-.8,0-.2-.3-.2-.4-.3,0,0-.1.1-.2.2,0,0,0,0,0,0,0,0,0,0,0,0,0,.1-.2.3-.3.5-.1.3-.2.4-.5.5-.1.1-.6.1-.8.2-.1,0-.1,0-.3,0,0,0-.2,0-.3,0-.1,0-.5.1-.7.2-.2,0-.1,0-.4.1-.3,0-.4,0-.6.2,0,0-.1,0,0,.1h0s0,0,0,0h0s0,0,0,0h0s0,0,0,0c0-.1-.1,0-.2,0,0,0,0,0,0,0h0c.2.1-.2.1-.1.2,0,0,0,0,.2,0,0,0,.2-.1.2,0,0,0,.1,0,.1.1h0s0,0,0,0h0s0,0,0,0c0,0,0,0,0,0h0s0,0,0,0c0,.1-.2,0-.2.2,0,0,0,0,0,0,0,0,0-.1,0,0,0,0,0,.1,0,.1.1,0,.2,0,.4,0,0,0,.4-.1.5-.1,0,0,.5-.2.6-.2.5-.2,1-.3,1.5-.4-.2.7-.9,1.5-1.1,2.3-.2.3-.4.7-.5,1,0,0,0,.1,0,.2,0,.1-.1.3-.2.4,0,0,0,.1,0,.2,0,.2-.1.3-.2.4,0,.1,0,.3-.1.5,0,.1,0,.2,0,.4,0,.2-.1.4,0,.6h0s0,0,0,0c.1.2.2.1.4.2h.1c0,0,.3,0,.4-.1.1-.1.3-.2.4-.3,0,0,0,0,0,0,0,0,0-.2,0-.1,0,0,0,0,0,0,.3-.2.5-.5.7-.8.1-.1,0-.2,0-.3.1,0,.3,0,.3-.2-.1,0-.1-.1-.2,0,0,0,0,0,0,0,0,0,0,0,0,0h0c0-.2.2,0,.2,0h0c.2,0,.1,0,.1-.1,0,0,.1,0,.2,0,0,0-.1,0-.1,0h0c.2-.2.1-.2.3-.3,0,.1-.1.3-.1.5,0,.2,0,.5-.2.7,0,0,0,.3,0,.3,0,0,0,.1,0,.2.4.5.2.3.5.3,0,0,0-.1,0,0,0,0,0,0,0,0,0,0,.2,0,.2,0,.2,0,.2-.2.4-.2,0,0,0-.2.2-.2.1,0,0-.1.2-.2,0,0,0,0,0,0,0,.1-.2,0,0,.2.1,0,.3-.2.4-.3.2-.2.4-.5.6-.7,0,0,0-.1,0-.2,0,0,.2-.2.2-.3,0,0,0,0,0,0,.1-.3.4-.6.5-.9,0,0,0-.1,0-.1,0-.1.1-.2.2-.4,0,0,.2-.3.2-.4,0,0,0-.1,0-.2,0,0,0-.1,0-.1,0,0,0,0,0-.1ZM33.5,2.7c0,0,0,0,0,0h0s0,0,0,0ZM33.8,2.8h0s0,0,0,0c0,0,0,0,0,0h0s0,0,0,0c0,0,0,0,0,0,0,0,0,0,0,0,0,0,0,0,0,0,0,0,0,0,0,0h0s0,0,0,0h0ZM33.8,3s0,0,0,0h0s0,0,0,0h0ZM34,2.7s0,0-.1,0c0,0,0,0-.1,0,0-.2,0,0,.1-.2,0,0,0,0,0,0h0ZM34.1,2.6s0,0,0,0c0,0,0,0,0,0,0,0,0,0,0,0h0ZM34.2,3.1s0,0,0,0h0s0,0,0,0h0ZM36.3,7.2s0,0,0,0c0,0,0,0,0,0h0s0,0,0,0c0,0,0,0,0,0ZM36.3,7.1s0,0,0,0c0,0,0-.2,0-.1,0,0,0,0,0,0ZM36.4,6.4h0s0,0,0,0h0s0,0,0,0ZM36.4,6.9h0s0,0,0,0h0s0,0,0,0ZM36.4,6.7c0,0,0,0,0,0h0s0,0,0,0ZM36.6,6.9s0,0,0,0h0s0,0,0,0c0,0,0,0,0,0h0s0,0,0,0ZM36.5,6.9s0,0,0,0h0s0,0,0,0ZM36.5,6.9s0,0,0,0c0,0,0,0,0,0,0,0,0,0,0,0h0ZM37,5.5h0s0,0,0,0c0,0,0,0,0,0h0ZM37,5.7s0,0,0,0c0,0,0,0,0,0,0,0,0,0,.1,0,0,0,0-.1,0-.1,0,0,0,0,0,0h0s0,0,0,0c0,0,0,0,0,0,0,0,0,0-.1.1,0,0,0,0,0,0,0,0,0,.1-.1.1,0,0,0,0,0,0,0,0,0,0,0,0h0s0,0,0,0c0,0,0,0,0,0ZM36.9,5.9h0s0,0,0,0c0,0,0,0,0,0h0ZM36.8,5.9h0s0,0,0,0c0,0,0,0,0,0h0ZM36.5,6.3h0s0,0,0,0c0,0,0,0,0,0ZM36.5,6.4s0,0,0,0c0,0,0,0,0,0,0,0,0,0,0,0ZM36.6,6.3h0s0,0,0,0c0,0,0,0,0,0h0ZM36.6,6.2s0,0,0,0h0s0,0,0,0c0,0,0,0,0,0h0s0,0,0,0ZM36.7,6.7s0,0,0,0h0s0,0,0,0c0,0,0,0,0,0ZM36.7,6.5s0,0,0,0c0,0,0,0,0,0,0,0,0,0,0,0,0,0,0,0,0,0ZM36.7,5.8s0,0,0,0h0s0,0,0,0c0,0,0,0,0,0h0s0,0,0,0c0,0,0,0,0,0h0ZM36.8,6.1h0c0,0,0-.2.1-.1,0,0,0,0,0,.1h0ZM36.8,6.4s0,0,0,0c0,0,0,0,0,0h0c0,0,0,0,0,0ZM36.8,6.5s0,0,0,0c0,0,0,0,0,0ZM36.8,6.4h0s0,0,0,0c0,0,0,0,0,0ZM37.1,6.3h0s0,0,0,0c0,0,0,0,0,0,0,0,0,0,0,0ZM37.2,6.1s0,0,0,0c0,.1-.1.1,0,0-.1,0,0,0-.2.2,0,0,0,0,0,0,0,0,0-.1,0,0,.1,0,0,0,.1-.2,0,0,0-.1.1-.2,0,0,.1,0,0,0,0-.1.3-.2.2-.3,0,0,.1,0,.1,0,0,.2-.2.4-.3.6,0,0,0,0,0,0h0s0,0,0,0c0,0,0,0,0,.1,0,0,0,0,0,0,0,0,0,0,0,0,0,0,0,0,0,0ZM37.4,8.2s0,0,0,0c0,0,0,0,0,0h0s0,0,0,0ZM37.6,7.5h0c0,0,0,0,0,0ZM37.6,7.5h0s0,0,0,0c0,0,0,0,0,0h0s0,0,0-.1h0s0,0,0,0c0,0,0,0,0,0ZM38.6,4.7c0,0,0,0,.2-.1,0,0-.1.1-.2.1ZM38.3,4.9s0,0,0,0h0c0-.1,0-.2,0-.2,0,0,0,0,0,0h0s0,0,0,0h0s0,0,0,0c0,0,0,.1,0,.2h0c0,.1-.1.2-.1.3,0,0,0,0-.1,0h0s0,0,0,0c0,0,0,0,0,0,0-.1,0-.2.2-.3ZM37.9,5.5h0s0,0,0,0c0,0,0,0,0,0ZM38,5.4s0,0,0,0h0s0,0,0,0c0,0,0,0,0,0h0s0,.1,0,.1c0,0,0,0,0,0ZM37.7,6s0,0,0,0h0s0,0,0,0h0ZM37.8,7.7h0c0,0,0-.1,0,0,0,0,0,0,0,0ZM37.9,8h0s0,0,0,0c0,0,0,0,0,0h0s0,0,0,0ZM37.9,7.5s0,0,0,0h0s0,0,0,0ZM38.7,7.3h0s0,0,0,0c0,0,0,0,0,0,0,0,0,0,0,0ZM38.9,7.1s0,0,0,0c0,0,0,0,0,0,0,0,0,0,0,0ZM38.9,7s0,0,0,0h0s0,0,0,0c0,0,0,0,0,0h0s0,0,0,0ZM39.1,6.8h0s0,0,0,0h0s0,0,0,0c0,0,0,0,0,0,0,0,0,0,0,0,0,0,0,0,0,0,0,0,0,0,0,0h0s0,0,0,0c0,0,0,0,0,0h0s0,0,0,0ZM39.1,6.7s0,0,0,0c0,0,0,0,0,0,0,0,0,0,0,0h0s0,0,0,.1ZM39.2,6.7s0,0,0,0c0,0,0,0,0,0ZM39.3,6.6s0,0,0,0c0,0,0,0,0,0,0,0,0,0,0,0,0,0,0,0,0,0ZM39.3,6.6h0s0,0,0,0c0,0,0,0,0,0ZM39.4,6.4s0,0,0,0c0,0,0,0,0,0,0,0,0,0,0,0,0,0,0,0,0,0h0s0,0,0,0ZM39.5,6.3h0s0,0,0,0h0s0,0,0,0ZM39.6,6.2s0,0,0,0c0,0,0-.1,0-.1,0,0,0,0,0,0ZM39.6,6.1s0,0,0,0h0c0,0,0-.1,0-.1h0s0,0,0,0c0,0,0,0,0,.1ZM40,4h0s0,.2,0,.2c0,0,0,.1,0,.1,0,0,0,.2-.1.2h0c0,.1,0,.1-.1.2,0,.1-.1.3-.2.4.1,0-.1.2-.2.3,0,0-.1.2-.2.3,0,0-.1,0-.1.1-.2.3-.5.6-.7,1-.1,0-.2.2-.3.3,0,0-.2.2-.3.2h0s0,0,0,0c0,0,0-.2.1-.3,0,0,0-.1,0-.2,0-.1,0-.4.2-.5,0,0,0-.1,0-.1,0,0,0,0,0-.1,0-.2.2-.3.2-.5,0,0,0,0,0-.2,0-.1.2-.3.2-.4,0-.1,0,0,0-.2,0,0,0,0,0,0,0,0,0-.1.2-.2,0-.2,0-.1,0-.3,0,0,0,0,0,0,0,0-.1.1-.2.2,0,0,0,0,0,0,0,0,0,0,0,0,0,0,0,0,0,0,0,0,0,0,0,0,.1-.2.3-.3.5-.4.2,0,.1-.1.2,0,.2,0,.7-.3.5.2Z"/>
    <path d="M38.5,7.6s0,0,0,0h0s0,0,0,0h0Z"/>
  </g>
  <path d="M-25.5,17.8s0,0,0,0c0,0,0,0,0,0,0,0,0,0,0,0,0,0,0,0,0,0,0,0,0,0,0,0,0,0,0,0,0,0,0,0,0,0,0,0h0c0,.1,0,.1,0,.2h0s0,0,0,0c0,0,0,0,0,0s0,0,0,0c0,0,0,0,0,0,0,0,0,0,0,0,0,0,0,0,0,0,0,0,0,0,0,0,0,0,0,0,0,0,0,0,0,0,0,0s0,0,0,0c0,0,0,0,0,0,0,0,0,0,0,0,0,0,0,0,0,0h0s0,0,0,0c0,0,0,0,0,0,0,0,0,0,0,0,0,0,0,0,0,0,0,0,0,0,0,0,0,0,0,0,0,0h0c0,0,0,0,0,0,0,0,0,0,0,0,0,0,0,0,0,0,0,0,0,0,0,0,0,0,0,0,0,0h0s0,0,0,0c0,0,0,0,0,0,0,0,0,0,0,0,0,0,0,0,0,0,0,0,0,0,0,0,0,0,0-.1.1-.1.1-.1.2-.2.2-.2,0,0,0,0,0-.1,0,0,0,0,0,0s0,0,0,0c0,0,0,0,0,0,0,0,0,0-.1,0,0,0,0,0,0,0,0,0,0,0,0,0,0,0,0,0,0,0,0,0,0,0-.1,0,0,0,0,0,0,0,0,0,0,0,0,0,0,0,0,0,0,0,0,0,0,0,0,0,0,0,0,0,0,0,0,0,0,0,0,0,0,0,0,0,0,0s0,0,0,0c0,0,0,0,0,0,0,0,0,0,0,0,0,0,0,0,0,0,0,0,0,0,0,0s0,0,0,0,0,0,0,0c0,0,0,0,0,0,0,0,0,0,0,0,0,0,0,0,0,0s0,0,0,0c0,0,0,0,0,0,0,0,0,0,0,0,0,0,0,0,0,0,0,0,0,0-.1,0,0,0,0,0,0,0s0,0,0,0c0,0,0,0,0,0,0,0,0,0,0,0,0,0,0,0-.1,0,0,0,0,0,0,0s0,0,0,0c0,0,0,0,0,0,0,0,0,0,0,0,0,0,0,0,0,0,0,0,0,0-.2,0,0,0-.1,0-.3.1-.1,0-.3.1-.3.2,0,0,0,0,0,0,0,0,0,0,0,0,0,0,0,0,0,0,0,0,0,0,0,0,0,0,0,0,0,0s0,0,0,0h-.1c0,.1,0,.1,0,.1s0,0,0,0c0,0,0,0,0,0,0,0,0,0,0,0s0,0,0,0c0,0,0,0,0,0,0,0,0,0,0,0,0,0,0,0,0,0,0,0,0,0,0,0s0,0,0,0c0,0,0,0,0,0,0,0,0,0,0,0h0s0,0,0,0,0,0,0,0h0s0,0,0,0c0,0-.1.1-.1.1,0,0,0,0,0,0,0,0-.1,0-.1.1s0,0,0,0c0,0,0,0,0,0,0,0,0,0,0,0,0,0,.1,0,.1,0,0,0,0,0,0,0,0,0,0,0,0,0,0,0,0,0,0,0h.1c0,0,0,0,.1,0,0,0,0,0,0,0,0,0,0,0,0,0,0,0,.1,0,.1,0,0,0,0,0,0,0s0,0,0,0c0,0,0,0,0,0s0,0,0,0c0,0,0,0,0,0,0,0,0,0,0,0s0,0,0,0c0,0,0,0,0,0,0,0,0,0,0,0,0,0,0,0,0,0,0,0,0,0,.1,0h0c0,0,0,.1,0,.1s0,0,0,0h0c0,0,0,.1,0,.1,0,0,0,0,0,0,0,0,0,0,0,0,0,0,0,0,0,0,0,0,0,0,0,0s0,0,0,0c0,0,.1,0,.2-.1,0,0,0,0,.1,0,0,0,0,0,0,0,0,0,0,0,0,0,0,0,0,0,.1,0,0,0,0,0,0,0,0,0,0,0,0,0,0,0,0,0,0,0,0,0,0,0,0,0,0,0,0,0,.1,0,0,0,0,0,0,0s0,0,0,0c0,0,0,0,0,0,0,0,0,0,.1,0,0,0,0,0,0,0,0,0,0,0,0,0,0,0,0,0,0,0,0,0,0,0,0,0,0,0,0,0,0,0,0,0,0,0,.1,0,0,0,0,0,.1,0h0s0,0,0,0c0,0,0,0,0,0s0,0,0,0c0,0,0,0,0,0,0,0,0,0,0,0,0,0,0,0,0,0,0,0,0,0,0,0,0,0,0,0,0,0,0,0,0,0,.1,0h.2s0,0,.2,0c0,0,0,0,0,0,0,0,0,0,.1.1,0,0,0,0,0,.1,0,0,0,0,0,0,0,0,0,0,0,0,0,0,0,0,0,0h0s0,0,0,0h0s0,0,0,0c0,0,0,0,0,0,0,0,0,0,0,0,0,0,0,0,0,0,0,0,0,0,0,0,0,0,0,0,0,0h0s0,0,0,0c0,0,0,0,0,0s0,0,0,0c0,0,0,0,0,0,0,0,0,0,0,0h0s0,0,0,0c0,0,0,0,0,0,0,0,0,0,0,0,0,0-.2.1-.3.2,0,0,0,0,0,0s0,0,0,0h0s0,0,0,0c0,0,0,0,0,0,0,0,0,0,0,0,0,0,0,0,0,0h0s0,0,0,0c0,0,0,0-.1,0h0s0,0,0,0,0,0,0,0c0,0,0,0,0,0,0,0,0,0,0,0,0,0,0,0,0,0,0,0,0,0,0,0,0,0,0,0-.1,0,0,0,0,0,0,0,0,0,0,0,0,0,0,0-.1,0-.1,0s0,0,0,0c0,0,0,0,0,0s0,0,0,0c0,0,0,0,0,0s0,0,0,0c0,0,0,0-.1,0,0,0,0,0,0,0,0,0,0,0,0,0,0,0-.1,0-.1,0,0,0,0,0,0,0,0,0,0,0,0,0,0,0,0,0,0,0,0,0,0,0,0,0h0s0,0,0,0c0,0,0,0,0,0s0,0,0,0c0,0,0,0,0,0,0,0,0,0,0,0,0,0,0,0,0,0,0,0,0,.1,0,.2,0,0,0,0,0,0h0s0,0,0,.1c0,0,0,0,0,0,0,0,0,0,0,0s0,0,0,0c0,0,0,0,0,0,0,0,0,0,0,0s0,0,0,0h0c0,.2,0,.3-.1.3-.2.2-.4.4-.6.5,0,0,0,0,0,0,0,0,0,0,0,0,0,0,0,0,0,0,0,0,0,0,0,0,0,0,0,0,0,0,0,0-.1.1-.2.1,0,0,0,0,0,0s0,0,0,0c0,0,0,0,0,0s0,0,0,0c0,0,0,0,0,0s0,0,0,0c0,0,0,0-.1.1,0,0-.1,0-.1,0,0,0-.1,0-.3.1,0,0,0,0-.1,0,0,0,0,0-.1,0,0,0,0,0,0,0s0,0,0,0c0,0,0,0,0,0,0,0-.2,0-.2,0,0,0,0,0-.1,0,0,0-.1,0-.1,0s0,0,0,0h0s0,0,0,0c0,0,0,0,0,0,0,0,0,0,0,0s0,0,0,0,0,0,0,0c0,0-.1,0-.1,0,0,0,0,0,0,0,0,0,0,0,0,0,0,0,0,0,0,0s0,0,0,0c0,0,0,0,0,0s0,0,0,0c0,0,0,0,0,0,0,0,0,0,0,0h0s0,0,0,0c0,0,0,0,0,0,0,0,0,0,0,0s0,0,0,0h0s0,0,0,0c0,0,0,0,0,0,0,0-.1,0-.2,0,0,0,0,0,0,0,0,0,0,0-.1,0s-.1,0-.1,0c0,0,0,0,0,0,0,0,0,0-.1,0,0,0,0,0,0,0,0,0,0,0,0,0,0,0,0,0,0-.1,0,0,0,0,0,0s0,0,0-.1c0,0,0,0,0-.1s0,0,0-.1c0,0,0,0,0,0,0-.1,0-.2,0-.2,0,0,0,0,0,0,0,0,0,0,0,0,.2-.2.3-.3.5-.5,0,0,0,0,0,0s0,0,0,0c0,0,0,0,.1-.1,0,0,0,0,0,0,0,0,0,0,0,0,0,0,.1-.1.1-.1h.1c0-.1,0-.1,0-.1,0,0,0,0,0,0s0,0,0,0c0,0,0,0,0,0s0,0,0,0c0,0,0,0,0,0,0,0,0,0,0,0,0,0,0,0,0,0,0,0,0,0,0,0,0,0,0,0,0,0,0,0,0,0,.1,0,0,0,0,0,.1,0,0,0,0,0,.1,0,0,0,0,0,0,0,0,0,0,0,.1,0,0,0,0,0,.1,0,.1,0,.2-.1.2-.1.1,0,.2,0,.2-.1,0,0,0,0,0,0,0,0,0,0,.1,0,0,0,0,0,0,0s0,0,.1,0c0,0,0,0,0,0,0,0,0,0,0,0,0,0,0,0,0,0h.2c0-.1.2-.2.2-.2,0,0,0,0,.1,0,0,0,0,0,.1,0,0,0,0,0,.1,0,0,0,0,0,.1,0h0s0,0,0,0c0,0,0,0,0,0,0,0,0,0,0,0,0,0,0,0,0,0,0,0,0,0,0,0,0,0,0,0-.1-.1,0,0,0,0,0,0,0,0,0,0-.2,0,0,0,0,0-.1,0,0,0-.2,0-.2,0h-.2c0,0-.2,0-.2,0,0,0,0,0,0,0,0,0,0,0,0,0,0,0,0,0,0,0,0,0,0,0,0,0h0s0,0,0,0c0,0,0,0,0,0,0,0,0,0,0,0,0,0,0,0,0,0,0,0,0,0,0,0h0s0,0,0,0c0,0,0,0-.1,0,0,0,0,0-.1,0,0,0,0,0,0,0s0,0,0,0c0,0,0,0,0,0h0s0,0,0,0h0s0,0,0,0c0,0,0,0,0,0h0s0,0,0,0c0,0,0,0,0,0,0,0,0,0,0,0,0,0,0,0,0,0,0,0,0,0,0,0,0,0,0,0,0,0,0,0,0,0,0,0,0,0-.1-.2-.1-.3h0c0-.2,0-.2,0-.1,0,0,0,0,0,0,0,0,0,0,0,0,0,0,0,0,0,0h0s0,0,0,0h0s0,0,0,0h0s0,0,0,0c0,0,0,0,0,0,0,0,0,0,0,0,0,0,0,0,0,0,0,0,0,0,0,0,0,0,0,0,0,0h0c0-.2,0-.2.1-.2,0,0,0,0,0,0,0,0,0,0,0,0,0,0,0,0,0,0,0,0,0,0,0,0,0,0,0,0,0,0s0,0,0,0h0c.1,0,.2-.1.2-.1,0,0,0,0,0,0,0,0,0,0,0,0,0,0,0,0,0,0,0,0,0,0,0,0s0,0,0,0c0,0,0,0,0,0,0,0,0,0,0,0s0,0,0,0c0,0,0,0,0,0,0,0,0,0,0,0,0,0,0,0,0,0,0,0,0,0,.1,0,0,0,.1,0,.1,0,0,0,0,0,0,0,0,0,0,0,0,0,0,0,0,0,0,0s0,0,0,0c0,0,0,0,0,0s0,0,0,0c0,0,0,0,.1,0,0,0,0,0,.1,0,.1,0,.2-.1.2-.1,0,0,0,0,0,0,0,0,0,0,0,0,0,0,0,0,0,0,0,0,0,0,.1,0,0,0,0,0,.1,0,0,0,0,0,0,0,0,0,.1,0,.1,0,.1,0,.2,0,.2,0,0,0,0,0,0,0s0,0,0,0c0,0,0,0,0,0,0,0,0,0,0,0s0,0,0,0c0,0,0,0,0,0,0,0,0,0,0,0,0,0,.1,0,.1,0,0,0,0,0,0,0,0,0,0,0,0,0,0,0,0,0,0,0,0,0,0,0,0,0,0,0,0,0,0,0s0,0,0,0c0,0,0,0,0,0,0,0,0,0,0,0,0,0,0,0,0,0,0,0,0,0,0,0,0,0,0,0,.1,0,0,0,0,0,.1,0s0,0,.1,0c0,0,0,0,0,0,0,0,0,0,0,0s0,0,0,0c0,0,0,0,.1,0s0,0,.1,0c0,0,0,0,0,0s0,0,0,0c0,0,0,0,.1,0,0,0,0,0,.1,0,0,0,0,0,0,0s0,0,0,0c0,0,0,0,0,0,0,0,0,0,.1,0h.2s0,0,.2,0h.2s0,0,.1,0h0s0,0,0,0c0,0,0,0,0,0s0,0,0,0,0,0,0,0c0,0,0,0,0,0s0,0,0,0c0,0,0,0,0,0,0,0,0,0,0,0h0s0,0,0,0c0,0,0,0,0,0,0,0,0,.1,0,.2,0,0,0,0,0,.1,0,0,0,.1,0,.2ZM-30.4,22.4h0c0,0,0,0,0,0,0,0-.2.1-.3.2l.3-.2h-.1c0,0,.1,0,.1,0h0s0,0-.1,0c0,0-.1,0-.1,0,0,0,0,0,0,0,0,0,0,0,0,0s0,0,0,0c0,0,0,0,0,0,0,0,0,0,0,0,0,0,0,0,0,0,0,0,0,0,0,0,0,0,0,0-.1,0-.2,0-.3.1-.3.1,0,0,0,0-.1,0,0,0-.1,0-.1,0h0s0,0,0,0c-.1,0-.2.1-.2.1,0,0,0,0,0,0s0,0,0,0c0,0,0,0,0,0,0,0,0,0,0,0,0,0,0,0,0,0s0,0,0,0c0,0-.1,0-.2.1,0,0,0,0,0,0,0,0,0,0,0,0,0,0,0,0-.1,0,0,0,0,0,0,0s0,0,0,0c0,0,0,0,0,0,0,0,0,0,0,0,0,0,0,0,0,0,0,0,0,0,0,0,0,0,0,0,0,0,0,0-.1,0-.2.1,0,0,0,0,0,0,0,0,0,0,0,0,0,0,0,0,0,0h0s0,0,0,0c0,0,0,0,0,0s0,0,0,0h0s0,0,0,0h0s0,0,0,0c0,0,0,0,0,0,0,0,0,0,0,0,0,0,0,0,0,0,0,0,0,0,0,0,0,0,0,0,0,0,0,0,0,0,0,0,0,0,0,0,0,0,0,0,0,0,0,0,0,0,0,0,.1,0,0,0,0,0,0,0s0,0,0,0c0,0,.2,0,.3-.2,0,0,0,0,.1,0,0,0,0,0,.1,0,0,0,0,0,.1,0,0,0,0,0,0,0,0,0,0,0,0,0,0,0,0,0,0,0,0,0,0,0,0,0,0,0,0,0,0,0,0,0,0,0,0,0,0,0,0,0,0,0,0,0,0,0,0,0,0,0,0,0,0,0,0,0,0,0,0,0,0,0,0,0,.1,0,0,0,0,0,0,0,0,0,0,0,0,0,0,0,0,0,0,0h.1c0-.2,0-.2,0-.2,0,0,0,0,.1,0,0,0,0,0,.1-.1s0,0,.1-.1,0,0,.1-.1c0,0,0,0,0-.1,0,0,0,0,0-.1ZM-32.4,19.9h0,0s0,0,0,0h0ZM-32.2,20.6h0s0,0,0,0,0,0,0,0h0s0,0,0,0,0,0,0,0ZM-31.5,19.8h0s0,0,0,0h0s0,0,0,0ZM-30.9,19.4h0s0,0,0,0h0s0,0,0,0ZM-30.4,22.4s0,0,0,0h0s0,0,0,0ZM-29.4,22.2s0,0,0,0h0s0,0,0,0,0,0,0,0h0ZM-29.4,22.1h0s0,0,0,0h0c0,0,0,0,0,0ZM-29.3,22h0s0,0,0,0h0s0,0,0,0ZM-26.6,20.3s0,0,0,0c0,0,0,0,0,0,0,0,0,0,0,0,0,0,0,0,0,0,0,0,0,0,0,0,0,0,0,0,0,0ZM-26.4,20.4s0,0,0,0c0,0,0,0,0,0ZM-25.5,17.8h0s0,0,0,0h0s0,0,0,0Z"/>
</svg>