<?xml version="1.0" encoding="UTF-8"?>
<svg id="Capa_1" xmlns="http://www.w3.org/2000/svg" version="1.1" viewBox="0 0 234 24">
  <!-- Generator: Adobe Illustrator 29.3.1, SVG Export Plug-In . SVG Version: 2.1.0 Build 151)  -->
  <path d="M18,0v6H6v6h6v6h-6v6H0V0h18Z"/>
  <path d="M42,6v6h-12v12h-6V6h18Z"/>
  <path d="M66,6v18h-18v-12h6v6h6v-6h-6v-6h12Z"/>
  <path d="M84,6v6h-6v12h-6V6h12ZM90,12v12h-6v-12h6Z"/>
  <path d="M138,0v6h-6v6h-12v-6h6V0h12ZM132,18v6h-12v-6h12ZM138,12v6h-6v-6h6Z"/>
  <path d="M156,12v6h6v6h-12v-6h-6v-6h12ZM156,0v6h-6V0h6Z"/>
  <path d="M174,6v6h-6v-6h6ZM174,18v6h-6v-6h6ZM180,12v6h-6v-6h6ZM186,6v6h-6v-6h6ZM186,18v6h-6v-6h6Z"/>
  <path d="M198,0v6h6v6h-6v6h-6V0h6ZM210,18v6h-12v-6h12Z"/>
  <path d="M234,6v18h-18V6h18ZM222,12v6h6v-6h-6Z"/>
</svg>