<?xml version="1.0" encoding="UTF-8"?>
<svg id="Capa_1" xmlns="http://www.w3.org/2000/svg" baseProfile="tiny" version="1.2" viewBox="0 0 202 100">
  <!-- Generator: Adobe Illustrator 29.3.1, SVG Export Plug-In . SVG Version: 2.1.0 Build 151)  -->
  <path d="M128,53.8c0,0,0-.4,0-.5.6-1.9,3-6.8-.1-6.2-1.2.2-2.2.8-3.3,1.5-.4.2-1,.6-1.2.5-.2,0-.2-.3,0-.7.2-.6.7-1.3.8-1.8.1-.6-.2-1-.7-.8-.4.1-.7.4-1,.8-1.8,2.2-5,5.9-6.4,7.5,0,0-.5.6-.4.4.1-.4,1.9-5.2,2.7-7.2.2-.5.3-1.2-.5-.8-.9.3-1.5,1.4-2.4,1.5-1,0-2-1.1-3.1-.8-1.2.2-2.1,1.6-3.3,1.6-.6,0-1-.6-1.4-1.1-.5-.7-1.5-.9-2.3-.6-1.6.5-2.5,2.3-3.7,3.7-.2.2-.4.4-.6.5-.5.2.4-1.5.5-1.8.7-1.6,1.6-3.6,2.1-4.6.3-.5.1-.9-.7-.5-1,.6-1.4,1.8-1.8,2.8-.3.9-.6,1.5-1.5,1.7-1.2.2-2.5,0-3.8.1-1,0-2.2.2-2.2-.6,3.6-9.3,23.6-40,16.2-46.2-3.2-2.4-9.6,2.2-11.7,4.7,0,.1,0,.4.3.2,1.6-.7,4.3-2.5,6.3-3,1.1-.2,2.4,0,3.5,0,.6,0,1.1.2,1.3.8.2.7,0,1.9-.1,3.1-.4,2.1-1.1,4.6-1.7,6.5-2.6,6.1-12.9,32-16.6,34.4-.7.2-1.4-.7-1.6-1.5-.7-3.1-2.2-6.1-4.3-8.5-8.6-9.3-23.1-10.5-35.3-9.8-12,.9-27,4.6-38.3,9.1-2.7,1.1-5.1,2.3-6.9,3.5-2.6,1.7-5.7,4.8-.8,6.4,3.8,1.3,10.1,1.4,14.4,1.4,22.7,2.5,45.9-.4,68.7,1,1.6,0,1.6,1.1,1.8,2.6.1,1,0,2-.5,2.9-5.7,11.3-12.2,22.3-17.2,34-.8,2-3.6,7.3-1.6,8.4,2.4.4,6.6-6.5,8.1-8.6,5.3-8.3,10.3-17.7,12-27.4.4-2.8.8-6.4,1.6-9.1.8-3,1.8-2.6,4.4-2.8.9,0,2.4-.2,2.9,0,.5.1.2.7.1,1.1-.5,1.6-1,3.3-1.4,4.9-.2.9-.2,1.2.4,1,1.5-.5,4.3-4.7,5.9-6.7.3-.3.5-.6.9-.8.6-.3,1.4-.1,1.8.5,1,1.8-.8,5.6,1,6.8,1.6.5,3.4-1.9,4.9-3.1.2-.1.4-.4.6-.4.2,0,.3.1.3.4,0,.5,0,1.4,0,1.9.1,1.1,1,1.6,2.1,1,.8-.3,1.7-1.4,2.2-1.7.6-.1-.2,1.6,1,1.4,2-.3,5.8-5.1,7.4-6.5.2-.1.4-.4.5,0,0,1.4-.4,3-.6,4.4-.1.8-.3,1.5.2,1.9.8.6,2.5-.2,3.2-.9,1.6-1.4,3.9-3.6,4.3-5.3,0-.2,0-.4-.2-.4-1.1.6-3.6,2.8-4.6,3.5-.1,0-.3.2-.4.2h0ZM77.4,49.8c-19.1.8-40.6.1-59.7-.9-2.9-.2-14.6-1-15.3-3.2,0-.3.2-.5.5-.7,4.1-3.4,9.4-5.9,14.8-7.8,20.7-6.6,60.6-15.5,70.3,10.3.3,1,0,1.5-.9,1.4-3.3-.1-6.4.7-9.6.8h0ZM71.2,94.3c.4-1.4,15.7-32,16.8-34.6,0,0,0,.2-.1.8-2.3,12.3-8.3,24.8-16.7,33.8h0ZM107.2,55.3c-.2-2.4,5.2-7.5,6.4-6.3.3.3.2.7,0,1.2-1,1.8-3.2,3.5-4.9,4.6-.5.3-1.4.9-1.5.6h0Z"/>
  <path d="M201,63.7c-.2-.4-.6-.7-1-.8-1-.4-2.1,0-2.9.3-3.4.4-52.4,0-64.1.1,0,0-.2,0-.3,0-.3,0-.4.1-.3-.4,1-4.3,5-8.1,5.1-12.5-.3-1.5-2.2,1.7-2.6,2.6-1.7,3.4-3.3,8.5-4.2,9.9-.2.2-.4.3-.6.4-.5,0-1.4,0-2.3,0-4.1,0-8.2.5-12.3,0-2.6-.3-5-1.4-7.8-1.9-1.4-.3-2.7-.3-4.1-.3-2.2,0-8.4-.2-9.8,1.5-.5,1.7,2.7,2.3,4,2.3,8.4.3,14.6-3.8,21.7,4.5,1,1.3.8,2.6-.2,3.7-.8.7-1.8,1.9-2.8,1.1-.6-.5-1.4-1.4-1.9-1.8-.2-.1-.3-.3-.5-.2-.1,0-.3.2-.4.3-1.3,1.2-4.8,4.8-6.1,5.7-.3,0-.2-.4-.2-.6,0-2,2.3-5.5,3.2-7.7,0-.3,0-.6-.2-.8-1.1-.6-1.8,1.2-2.5,1.9-.7.8-1.3,1.1-2.4,1.9-1.2.8-2.6,1.6-3.9,2.2-1.3.8-1.3-.1-1-1.1.5-1.8,2.2-2.9,4-3.6.5-.2,1.4-.7.8-1.3-1.9-1.6-6.4,2.5-6.7,4.5-.2.7-.3,1.5-.4,2.2,0,2.5-2.2,3.6-3.6,5.4-1.9,2.1-1.3,4,1.7,3.7,2.4-.4,5-2.2,5.4-4.7.2-1.3-.7-2.8-.2-3.8.7-1,2-1.6,3.1-2.1.9-.4,2.1-.7,2,.7,0,1.4-1.8,5.1.9,4.9,2.7-.4,4-3.6,6.3-5,.9-.3,1.1.8.8,1.6-.4,1-1.6,1.7-2.2,2.7-.6.9-.2,1.7.8,1,.8-.5,1.5-1.7,2.4-2,.2,0,.5,0,.7,0,.9.3,2.1,1.4,3.5,1.5.5,0,1,0,1.4,0,.2,0,.2,0,.3.2-.1,1.9-1,7.7-1.2,9.6,0,.4.1.6.5.6.7-.1,1.3-1,1.5-1.7,3-7.7,5.4-15.6,8.8-23.1.3-.6.4-.9.6-.9,3.3-.3,67.6.6,69.3-.3h0ZM123.6,74.6c-.2-.2-.2-.4-.3-.7-.2-.9-.3-2.2-.4-3,0-.3-.2-.5-.5-.7-1.1-1.1-3.3-3.5-4.5-4.8-.6-.7-1-.9-1.2-1.4,1.4-.1,11.1,0,13.2,0,.2,0,.4,0,.3.3,0,.3-.4.9-.6,1.6-.9,2.2-3.2,8.7-5.9,8.7h0Z"/>
  <path d="M134.7,67.6c-2.7,2.1.3,5.3.7,6.9,0,.2,0,.3-.1.5-1,1.2-2.4,2.5-3.5,3.7-.8.9-1.3,1.3-1.2,0,.2-1.6,1.8-3.8,2-5.3.2-.7-.3-1.5-1-1.2-.6.3-.7,1.1-1.1,2-.4,1.4-2.3,6.3-.1,6.8,1.5.2,3.6-1.6,4.5-3,.4-.6.8-1.3,1.2-1.9.5-.8.7-1.4,1.5-1.7.6-.3,1.5-.3,2.3-.5.7-.1,1.4-.6,1.4-.9,0-.2-.1-.3-.3-.3-.6-.3-2.6.3-2.7-.6,0-.3,0-.7.1-1,.7-2.9-1.2-5.1-3.7-3.5h0Z"/>
</svg>