<?xml version="1.0" encoding="UTF-8"?>
<svg id="Capa_1" xmlns="http://www.w3.org/2000/svg" baseProfile="tiny" version="1.2" viewBox="0 0 960 1580">
  <!-- Generator: Adobe Illustrator 29.3.1, SVG Export Plug-In . SVG Version: 2.1.0 Build 151)  -->
  <path d="M384,1580c1.8-15,9.1-28.9,12.7-43.8,14.7-59.8,26.4-121.1,51-178,2.4-5.6,4.8-15.1,7.4-19.6s9.9-9.8,12.6-15.4,4.5-12.9,6.9-19.1,5-14.3,5.5-14.9c5.8-6.8,11.7,10.3,12.5,14.5s1.3,9.7,1.3,11.7c-.1,4.5-3.4,7.1-4,10.1-2.1,11.5,3.9,20.9,10.4,29.5,1.8,2.4,7.2,7.6,8.5,9.9s-.6,2.3.6,3.1,2.4,0,3.4.6c3.3,1.7,6.4,4.6,10,5.3-1,3.1-7.6-2.4-8-2-1.8,7.6-1.8,13.4,0,21l2-1c-1,3.4,4.6,8,3,11s-2.2-1.4-3,.5c3,3.6,3,8.1,3,12.5l3-4c.3,5.2-1.1,11.5-1.1,16.5s1.5,5.8,1.2,9.1-2.3.6-2.1,2.4c4.9-.4,1.9.6,2.4,2.3,2.3,7.8.9,20.3,1,29,0,2.9,0,6.9,3.6,5.7.4,1.7-1.5.5-1.8,1.5-.6,1.9,2.8,9.5,2.9,13,.2,5.8-2.9,11.6-3.1,17.5,5.1-.4,2.1.8,2.2,3.5.2,4,1.1,17.7,1.9,20.9s3.4,5.5,3.7,7.3-1.1,3.7-.8,5.6,1.7.7,2,1.4c2.2,4.7,2,9.1,3.3,13.5s5.6,12,4.7,18.8h-159Z" fill="#fefefe"/>
  <path d="M265,1148c1-5.9-8.8-5.8-10.6-9s.5-4.6,2-4.8c2.9-.4,4.6,10.8,10.5,4.8-.7,2.5-1.2,6.7,0,9h-2Z" fill="#515151"/>
  <path d="M288,1018c-12.4-.5-25.6.5-38-1-2.3-2.3-7.8-4.5-9.7-6.3s-8.6-19.6-10.1-23.4c-12.2-32.6-26.4-72.2-30.2-106.8s-2.4-34.8-6.3-53.7c-3.5-17.2-15.8-51.8-13.8-67.3.7-5.1,11.9-11.2,16.1-14.9,21.7-19.6,48.8-64.5,73.2-74.8,2.2-.9,10.3-2.9,10.3.3,0,5.4-1.5,11.7-1.6,17.4-.8,43.3,13.3,84,10.7,127.9-1.2,20.5-10.3,41.5-10.6,60.2s3.2,20.4,3.1,29-2.5,17.3-3.1,25c-2.2,31.1-3.2,46,7,76s5.4,8.6,3,12.5Z" fill="#fefefe"/>
  <path d="M532,135l-1-9c-1.9,4.3-.1,8.7.5,13,.5-2.6,3-1.4,3.8-3.2,1.3-2.8.5-6.8.7-9.8-2.1.9-.5,5.1-1.2,7.3s-1.5,1.9-2.8,1.7ZM532,141c-6.3,2.8-10.9-2.3-16-3.6s-1.7,3.5.5,5.6c7.2,6.7,10,5.9,15.5-2ZM492,404c-3.7.1-7.1-3-6.7,2.4s2.9,4.1,3.6,3.6,3.4-5.7,3.1-6ZM223.9,1040c-2.9-1.9-6.2,4.1-3.9,6.9l5.5-1.9c.2-.5-1.4-4.8-1.6-5ZM271,1064c-.9-4.5-5.9-6.6-10-5-.6,3.6,8.8,6,10,5ZM248,1076c-3.4-1-2.2,4.2-3.1,4.9s-4.1-1-3.9,1.1c3.7,2.4,4.9,4,10,3-2.8-2.3,2.3-3.7,1-5s-2.7-1-2.9-.9c-.4.3-.6,3-2.1,2.9l1-6ZM233.8,1081.1c-.3-.4-8.5-3.8-9.8-3.1.2,2.9-1.3,5.6-1.1,8.5s1.5,1.2,2.1,2.3-1.3,4,3.6,4.1,3.4-2,3.8-3.2c.6-1.9,3.2-6.6,1.5-8.6Z" fill="#fefefe"/>
  <g>
    <path d="M584,419l-4-2c2.1.7,2.9,1.5,4,2Z" fill="#515151"/>
    <g>
      <path d="M813,1011c-.9-.3-1-1.2-1-2,.3,0,.8,0,1,0,0,.7,0,1.3,0,2Z" fill="#515151"/>
      <path d="M749,720c0-.2-1.9-.5-2-2.4-.4-8.4,11.9-.8,14.4-.7s11.8-2,13.3-2.6,3.9-5.4,8.7-6.3,2,1.6,1.5,2-3.8-1.4-3,2c1.9-.3,4.6.5,6.3,0s.6-1.9.7-2c1.9-1.4,1.9,1.3,2.3,1.6.8.5,2.1,0,2.7,1,.9,1.5.5,4.8,1,6.6s3,0,.9,3.7c1.8.5,2.7-1.2,3.9-1.6,5.4-1.4,4.7,4.1,0,1.6v3c8.7,2.8,18.3-1.2,26.5,0s7,9.8,10,14,6,3.9,6.2,4.2c.4.5,4.3,11.2,4.8,12.8,7.7,27.5,1.8,57.2-2.5,84.6s.3,25.4-2.3,38.7c-4.2,21.8-11.6,44-17.4,65.6s-7.6,25.8-9.3,39.2l2.3-2.2,1.7-4.8c-.3,4.5-1.6,8.7-2,13l-4-.5c0,1.9,1.4,4,1.1,5.8s-1.7.5-2,1.3c-.5,1.8-1.1,9.3-1.1,11.4-.4,0-1.7-1.4-2-1,.3,6-3.1,12.1-1.5,18,1.2-1.4,1.8-3.3,2.5-5,.1,9.2-5.1,16.6-8,24.5-6.8,18.4-15.2,40.4-29.5,54.5s-3,.8-3.3,1.2-.7,3.3-2.2,5.8c-.9-2.6-2.9.8-4.1,1.4-4.1,2.2-4.7,3.8-5.9,4.6s-2.8,1.4-4,2c-3-3.3,2.1-3.8,2-4.5s-1.9-3.4-3-3.5c0,2.7.7,3.7-2,2,.9,4.3-2.2,2.6-4.3,4s-3.7,4.1-4.7,6-8.4,7.6-10.6,9.3c-4.7,3.4-4.4,2.8-8.4,8.1s-1.9.8-2.4,1.7c-1.2,1.9.6,4.7-4,4.9v-11c6.6-3.8,11.5-7,13.5-15-.5-.5-11.8,6.6-12.9,7.5-2.4,1.9-3,5.2-6,5.4-1.4-6,16.3-22.4,1.6-20.7s-3.1,2.3-4.7,3.2-3.7.4-3.9.6c-.3.3-.2,7.6,0,9-1.3-2.2-1.2-2.6-3.7-1.2-5.3,2.8-9.8,7.4-14.4,10.7-3.4,2.4-15.9,11.8-18.7,12.4-5,1-10.6-2.6-12.6-7.1s.3-2.5.3-2.7c2.3,2.3,4.2,5.9,7.5,7.1s9.2.2,9.5-.1-.2-2.9.3-4.2c2.5-6.9,3.5-6.1-.3-13.8l8-1-2-2,14.5-3,1,3c2.8-2.4,3.9-4.4,2.5-8l3,1-1-3c14.4,2.9,5.9-6,8.1-12.4s4.9-1.8,5.9-4.1-6.9.9-7.7,1.3c-12.2,5.8-23.8,22.9-33.4,26.6-4.3,1.7-10.3-.3-12.9,2.6,2.5-4.1,8-5,11.9-7.6,12.3-8.2,23.1-19.8,35.1-27.9s6.5-1.7,9-4c2-1.8,5-11.1,3.7-13.4s-4.2-2.6-4.7-2.7c-6.7-1.5-5,4.4-6.3,5.3s-3.4-.2-4.4,1.1,2.5,6.6-2.4,11.6c-7.8,8.1-30.2,20.2-40.7,25.8s-1.7,3.4-7.4,3.6c4.4-3.5,9.6-4.2,8.8-11.2s-7.3-7.1,1-12.7c2.6-1.8,5.5-3.2,8.7-3.1s7.4,3.7,8.4,3,1.4-5.8,7.1-3.9l-2-2c1.7-1.2,7.7.3,8,0s-.3-2,.2-2.8c1.1-1.5,6.8.3,5.8-6.7-.2-1.6-1.8-3.1-2.3-4.8s1.4-4.6-1.1-3.8c-5.8,1.9-16.3,7.9-21.5,11.5-5.4,3.8-9.2,9.5-13.9,12.3s-6,3.1-6.7,3.1-.7-4-4.5-1c4.1-4.1,7.5-4.8,11.5-8,6.5-5.1,11.5-11.4,19.6-15.4,8.3-4.1,23-6.6,30.4-11.6s-4.1-14.8-2.3-17.9c9.2-4.9,20.1-8.4,29.2-13.3s2.7-2.2-.4-1.9c1-.5,5.1-4.9,6.5-6s2.7-.5,3.5-1.7c3-4.5.8-10,2-14.6s2.5-1,3-2.3c.6-1.9-1-3.5-.9-4.8s1.5-.5,1.9-1.4c2.7-6.5.9-12.8,5.1-17.7-4.2-1.2-.5-1.4,1.1-3.2s.4-2.5,1.1-3.1c1.4-1,9.5-3.1,11.5-4.5s.9-2.1,1.7-2.7,6.2-3.7,6.4-4.1c.3-.9-2.8-4,2.7-3.4s4.9,2.6,4.5,5-1.9.4-2,1.2c-1.5,6.2,2.4,4.8,6.1,5.2-.5-.5-.5-1.3,0-1.7s1.3-.5,1.7,0,.5,1.3,0,1.7-1.3.5-1.7,0c0,.1,0,1,.7,1.1,5.5.4,1.9-5.6,2.2-6s2.6.3,3.5-1,2.9-7.5,3-8c.4-1.7-.9-3.2-.1-5s6-3.4,7.1-7,0-3.9.5-5.4,2-.7,2-1.3c0-1-1.3-2.5-1-3.8s2.8-1.3,3-2.3c.5-2.4-2-4.3-2.2-6.8s1.1-9,1.5-10.6c.7-2.4,5.3-4,6.6-6.4l-3-1c.8-.7,1-2,1-3-.5-11.6.7-23.2,1.9-34.1s3.2-16.6,3.1-22.9c0-3.6-2.3-9-2-11.9s1.7-5.9,2.2-10c1-7.9,2.6-9.2,4.4-15.2s-.8-4.5-.6-5.7,3-3,3-3.2c.5-3.6-2.4-12.7-1.1-17.7s1.9-1,2.4-1.8c3.4-5.5.5-3.3-2.7-5s-.3-1.9-1.2-2-.2,1.7-1.7,2.4c-2.5,1-6.3-.5-5.8,2.6h-1c.2-4.8-3.6,1.2-5.2,2.2s-5.2,1.4-7.3,2.7-2.8,4-3.8,4.7c-3.1,2.2-13.1,2.4-15.8-.2s.1-3-.1-3.4-1.8-.5-2.4-1.1c-1.8-2-.5-4.6-3.5-4.1-1.8,11.7-2.9,23.6-5.3,35.2s.1,5.6-2.7,4.8c0-8.6,3.5-18.3,4-26.5s-.4-19.5-.7-21.3c-1.2-6-14.5-22.2-18.1-28.9-2.6-4.7-3.8-9.4-5.2-14.3s-.5-5.1-1-7c0,0,1.4-.3,2,.7,1.1,1.8,1.4,5.1,2.7,7.1l4.3,4.2c-2.6-4.6-1.3-7.1-1.4-11.4-.1-7.7-9.2-3.2-7.6-.6ZM784,970c-1.1-1.3-4.7,3.3-5,4.5-.6,2.6,2.2.7,3.1,2.1s.7,3.2.9,4.4c1.7.2.9-2.3,1-3.5.1-2.5,0-5,0-7.5ZM727.9,1094.1c-.7-.5-4.2-.2-5,.3s-.6,3.5-1.9,5-5.7,2.7-6,4.1l3.5,4.5,1.5-3h-3c1.5-3.9,7.2,0,10.1-2.7s2.2-7.3.8-8.2ZM739,1104l-5-1,2,1.5c-2.7.6-4.3,5.2-1.5,6.5s5-6.3,4.5-7Z" fill="#515151"/>
      <path d="M224,677l9.4,3.1,6.6,4.4c-6.3,7.4-12.7,14.7-19,22-11.6,13.5-22.4,26.2-36.4,37.1s-10.9,8.2-14.6,9.8-3.9.2-4.8.7-3.3,9.3-3.1,11.2c.4,5.6,6.4,14.5,7.9,20.2,3.3,12.1,6.6,23.3,10.4,35.6,5.7,18.9,6.4,35.2,8,54s6.9,23.8,8.5,34.5-.4,8.3.2,11.7,2.5-.1,3.1,1.2.7,3.8.8,5c1.2,8.9,6.8,23.3,10.7,32.3s8.7,13.9,10.2,18.8c2.4,8,3,16.2,5.8,24.2s0,3.7.7,4.8,6.2,2.9,7.7,3.8c4.7,3.1,4.4,5.4,11.8,6.4s2.2-1,2.3-1c12.4,1.5,25.6.5,38,1s17.2,25.8,10.4,26.9c-3.8-1.5-7-5-11.4-4.9,3.1,4-2.4,7-2,8.5s4.6,1.9,6.2,2.8c4.8,2.9,16.6,12.1,19.8,15.7-6.7-3-9.4,4.1-14,8,.5-2.4,1.7-7.5,3-9.3s3.3.3,3-1.7c-1.2-.2-5.7.3-6,0-.5-.5,1.3-4.4-2.5-5l1.5,4h-4c.9-8-.5-4.8-4.5-7.1s-.6-2.4-.8-2.7c-2.6-3-11.7-2.4-15.2-2.7s-2.5-1.5-4-1.5c-2.6,0-4.5,3.6-7.5,2.9.7-.9,3-6.8,2.9-7.3-.8-4.8-14.5-.6-10.9,4.3-5.4.5-12.9.9-11,8.3s2.1,1.2,2.9,2.3c1.7,2.3-.5,3.6-.9,5.9-.5,3.5,1.1,6.3-3,8.4-2.5-2-2.1-9.1-3-10-2.3-2-1.7,4.7-6.2,2s-1-2.8-2-3.8-3.7-.6-3.9-1.8,1.1-7.8,1.3-8.2c.4-.7,5.1-1.9,3.7-4.1s-1.4.1-1.7-.5.2-3.5-.2-4.5c4.5,2,7.4-2.4,12-3l1,4c2.5-7.1-1.3-4.6-2.8-6.3s0-2.3-.3-2.6c-.7-.7-17.1-.3-19.2.8s-1.9,4.5-2.9,6.2c-2.1,3.6-4.8,2.4-7.2,3.8s-2.9,5.7-5.2,5.1-4.3-8.4-5.1-8.9c-2.7-1.7-5,0-5.3-.3s-.4-1.9-1.8-2.6c-3-1.7-9.6-.9-12.4-3.9s-6.7-12.3-6.8-13c-.3-1.7,2.2-2.4,2.7-4s-.6-8.8.2-11.3c-3.7-.8-1.4,4.9-2,7-3.8,1-1-3.7-2.1-4.9s-2.5,0-3.4-1.1-2-8.9-2.8-11.2c-2-6.2-3.7-12-5.4-18.6s-2.8-6-3.1-8c-.5-2.8,2.4-6.6,1.8-7.2s-2.2.4-3.9-1.6-2.3-5.6-3.2-7.6-1.7-.8-1.9-1.5c-1.4-6.5,3-9.5,9-9.3.8,2.7-1.4,1.5-1.9,2.7-2.9,6.9.1,4.4,2.9,5.8,4.9,2.4-2.9,10.6,4,9.5-2.3,4.2,2.6,9.1,2.8,11.7s-2.9,3.9-1.8,6.3c1.1.7,4.7,0,4.9,0,2.1,2.7,2.2,9.8.1,12.9,2.9.6,1.4-2.5,4.7-2.8s3.4,2.3,2.2,5-1.9.8-1.9,1.4c0,1.1,1.3,2,.5,3.4-2.1,3.6-2.4-.8-2.6-.9-1-.8-3.9,2.3-4,2.5-.2,2.2,2.4,4.8,2.1,7.3,1.9.3.5-1.9,1.1-2.9s3.8,0,4.9-1.1c3.8,3.1-.8,15.2.5,17s10.4,2,11.3-1.7.3-9.2.3-9.8c-.1-1.1-4.7-1-6.1-2.1s-2.1-9.2-2-9.9c.1-1,2.6-.8,2.8-2s-.9-8.3-.8-11.1,1.6-6.2,1-9.5l-11,.5c4.9-2.5,8.5-3.8,9-10.1s-1.1-4.2-1-4.4,3.7-.7,4-1.1c.5-.7-.7-2.5-.5-3.4.7-3.2,4.3-3.1-2.4-3.5-.6-.9,1.9-5.9.9-6.9s-1.9-.1-2.8-.7-1.9-2.1-2.8-2.3c-2-.5-4.6,2.9-7.3,1.9,3.5-5.7,6.7-12.2,4-19-.5-.4-6.3,4.5-8,2.5,2-1.2,1.5-3.7,2.4-5.2,1.7-2.8,6.4-1.8,5.6-3.8-1.7-4.2-3.3,1.7-5-.5l-1,3c0-1.5-.4-7.2-1.2-7.8s-4.7,0-4.8-1.7,2.6-3.5,2.7-5.8-1.8-8.4-3.2-9.8-6.4,1.5-5.1-6.3,1.5-2.7,1.6-4.2-.7-7.2-1-7.4c-.6-.6-11,.2-13,1,4.6-3.9,8.2-6,8-13-2.9.3-5.3.1-7-2.5-.7-2.1,2.6-1.6,3.5-3.5s.7-4.3-1.5-5c-3.9,8.2-3.5-2.4-4-5.5s-12-2.1-12,1.9,2.6,3.1-1,4.1c.6,1.8,9.3.6,4,9l4-.5c.3,3.7.4,6.3-4,6-1.4,1.4,6.7,6,3.1,10.6s-3,1.3-3.1,1.5,1.5,3.1,1.7,4.6-1,3-.7,3.3c.8.9,5.7-.1,5.9,0,.8.6.8,5.5,1.6,7s7.7,4.9,1.5,3l-2,9c5.1-.6,4.1.4,4,5l5-1c0,3.8,0,7.7,0,11.5s-1.1,3.1-1,3.9,5.4,3,6,6.1c-3.6,1-2.7,3.2-7,1.5-.4.4,2.3,10.5-1,7s-.6-6-1.1-7.2c-2.8-7.7-5.9-10.9-8.2-19.9s-4-6.9-5.3-9.8-1-5.5-1.7-7.3-3.3-1.9-3.7-3.4.8-2.7.6-3.7c-.7-3-4.1-6.8-3.7-10.7l-2,1c1.2-4.1.6-5.4-2-8.5s-2.7-1.3-2.9-1.6,1.5-5.7.9-8.2-1.8-.6-2-1.4c-1.6-7.2-1.8-17.4-3.6-24.2s-2.3-2-2.5-3.6c-.4-4.2,2-9,1.1-13.5-2.6.2-.8,4.8-1,5-2.2,2-3.4-4.8-3-6l2,2c-.2-1.8.3-3.8,0-5.5s-2.4-1.6-2.9-3.1-.4-5.5-.2-6.9c.5-2.5,2.7-2.1,3-3.2,1.1-4.2-1.5-3.8-2.1-5.7-1.8-5.6-.9-13.7-3.4-19.5-2.1,2.1-1.9,7.8-1.6,10.6s1.7,1.3,1.9,1.9c.6,2.1-1.6,7,1.2,10-4.4,4.1-2-.2-2.8-3.1-1.7-6.4-9.7-29.8-8.7-34.4s1.8-2.7,1.5-3c-.6-.4-3.3,1-3-1,7.4-.9,3.8,1,5.2,3.7s5.2,4.9,5.8,4.2c0-2.9-.3-7.8,1-10.4s1.9,1.5,2.3,2,1.8.7,2.5,2,1.5,7.6,2.3,8.3,4.2-1.6,3.9.5-2.9,1.4-3,1.5c-.2.3,1.8,5.8,2,6,2.2,1.9,3.3-3.3,5-2s2,6.2,3,7.5c-2.6,2.2-1.2-1.6-3-1.5-1.6,3.7-6.3,7.8,1,8,.4-.3.4-5.7,3-4s5.8,7.8,5,9l-6-1c.9,1.5,0,6.3.4,7,1.2,1.7,5.3.3,5.5,0,1.8-2.5-4.1-2.4-4-4,2.2.2,4.4-.9,6.5-1,3.6-.2-.6,5.4,3,5,.3-2.7,4.4-3.1,4.6-3.6,1-3.5-1.6-10.1,1.9-14,.6-3.1-2.4.1-3-.5-1.8-1.7,3.2-2,3-5.4s-3.5-5.3-3.7-5.8c-.7-1.5-1.2-11.3-.4-13.4,2.7-6.6,4.6-14.4,5.1-22s-.6-5-2-8.5c4.6.1,8.3-2,12.3-4,7.3-3.7,15.9-8.5,22.1-13.6,4.8-4,8.7-3.8,5.6-11.3,2.2-2.2,7.7,1.3,8,1s-.2-2.3,1-3.5,4.4-1,5.5-2.5,0-4.5,2.5-2.9.9,4.2,3,2-3.8-3.1,6-5.5c5.9-1.5,7.1-3.5,12.1-6.8s9.6,1.6,14.9,2.4c-2.1-2.8-5-4.4-8-6ZM134,806c-3.5-1.1-8,3-4.5,6,1.3.5,5.4-5.1,4.5-6ZM138.8,838.2c-1-1-6.4-1.4-8.2-1.2l-8.6,3.4c4.2,3.3,6.6-1,8.5,5.5,1.1-1.4,5.6-3.2,6.9-3s.2,2.4,1,2.1c2.1-.8,1.3-5.7.3-6.8ZM125.9,850.1c-2.4-1.1-4.4,4.2-3.9,5.9,5,.4,3.2.2,4-2.3s1.7.7,2,.3c.5-.6-1.9-3.8-2.1-3.9ZM167.5,912v1c.6-.3.6-.7,0-1ZM290.8,1021.3c-2-.8-15.7-1.3-16.8-.3.4,13.5,16.7,13.4,24,21-.4-2,2.2-1.6,1.9-3.3s-3.8-10.9-4.7-12.5-4.2-4.9-4.5-5ZM277,1039c-.7-2.2-2-7.5-4.6-7.9s-5,4.8-8.4,2.9c-1,.8,3.7,5.1,4.3,5.4,2.3,1,6.1-1,8.7-.4ZM286,1045c1.6-1.4-4.2-5.5-6-4s4.2,5.5,6,4ZM235,1053c-1.9-2-6,3.6-5,6,4.1,2,6.6-4.3,5-6Z" fill="#515151"/>
      <path d="M294,1108c-.2-2.3.8-6-1-7.5l-14-7c-5.1-5.4-12.3-12.6-18.5-16.5s-2.2,0-2.3-.1c-.5-.7-1.5-5.3-2.3-5.7s-2,.8-3.2.6-2.5-2.3-4.7-.7v-7c5.4.5,9.8,2.4,14.5,5s2.8,5.3,6.7,1.1.6-4,3-3.9c4.4.1,1.8,7.3.5,8.7s-1.6,0-1.8.2c0-.6,1.6-4.2-.5-4s-4.5,5-3.5,7c1.4-.9,2.7-2,4-3-.2,4-.9,3.9,4,6-1.4,3.7.7,4.4,3.5,7,6.8,6.4,20.2,8.5,15.5,20Z" fill="#515151"/>
      <path d="M275,1141c1.5-7.8-2.2-9.7-7.1-14.4s-2.8-1.1-3.6-1.9c-2.6-2.7-6.3-13.1-7.5-13.5s-2.4,1.2-2.8.8.9-3.8.8-5.3c-.4-4.7-5.5-10.1-3.8-15.7,5.6-1.9,6.5,4.2,7.7,8.8s.9,6,2.3,10.2-.1,7,4,7c-2.6,5.7,1.9,4.3,3,5s0,1.4.6,1.9c1.7,1.6,7.5,6.2,8,8,1.2,4.4-.9,5.9-1.6,9.1Z" fill="#515151"/>
      <path d="M233.8,1081.1c1.7,2-.9,6.7-1.5,8.6s2.2,3.4-3.8,3.2-2.9-2.7-3.6-4.1-1.9-.6-2.1-2.3c-.2-2.9,1.3-5.7,1.1-8.5,1.3-.7,9.5,2.8,9.8,3.1Z" fill="#515151"/>
      <path d="M812,1009c0,.8,0,1.7,1,2,0,5.1-.2,5.6-2,10s-1.3,3.6-2.5,5c-1.6-5.9,1.8-12,1.5-18,.3-.4,1.6,1,2,1Z"/>
      <path d="M818,991c-.2,1.8,1.1,3.8,1,5.5-.3,3.8-1.8,11.2-6,12.5s-.7,0-1,0c0-2.1.6-9.6,1.1-11.4s1.8-.6,2-1.3c.4-1.8-1.1-3.9-1.1-5.8l4,.5Z"/>
      <path d="M742,1119c1-1.9,2.8-4.7,4.7-6s5.2.3,4.3-4c2.7,1.7,2,.7,2-2,1.1.2,2.8,2.8,3,3.5s-5,1.2-2,4.5c-4.1,2.1-4.9,2-9,3l-2,1h-1Z"/>
      <path d="M248,1076l-1,6c1.5,0,1.7-2.6,2.1-2.9s2.8.8,2.9.9c1.3,1.3-3.8,2.7-1,5-5.1,1-6.3-.6-10-3-.2-2.1,3-.3,3.9-1.1s-.2-5.9,3.1-4.9Z" fill="#515151"/>
      <path d="M271,1064c-1.2,1-10.6-1.4-10-5,4-1.7,9.1.5,10,5Z" fill="#515151"/>
      <path d="M223.9,1040c.2.1,1.8,4.5,1.6,5l-5.5,1.9c-2.3-2.7,1-8.8,3.9-6.9Z" fill="#515151"/>
      <path d="M768,1107c-2.5,4.3-4.4,6.1-10,6,1.2-.8,1.8-2.4,5.9-4.6s3.2-4,4.1-1.4Z"/>
      <path d="M820,977c0-1.3-.5-3.3,1-4-.2,1.2.6,3.3-1,4Z" fill="#515151"/>
      <path d="M265,1117c.2,0,2.8-1.9,4-1s-.5,4.6-1,6c-1.1-.7-5.6.7-3-5Z" fill="#fefefe"/>
      <path d="M290.8,1021.3c.3.1,4.1,4.3,4.5,5,.9,1.5,4.4,10.8,4.7,12.5s-2.3,1.3-1.9,3.3c-7.3-7.6-23.6-7.5-24-21,1.1-1,14.7-.6,16.8.3Z" fill="#fefefe"/>
      <path d="M138.8,838.2c1,1,1.8,6-.3,6.8s-.2-2-1-2.1c-1.3-.1-5.8,1.7-6.9,3-1.9-6.5-4.3-2.2-8.5-5.5l8.6-3.4c1.7-.2,7.2.2,8.2,1.2Z" fill="#fefefe"/>
      <path d="M277,1039c-2.7-.7-6.4,1.4-8.7.4s-5.2-4.6-4.3-5.4c3.4,1.8,7-3.2,8.4-2.9,2.6.4,3.9,5.7,4.6,7.9Z" fill="#fefefe"/>
      <path d="M235,1053c1.6,1.6-.9,8-5,6-1-2.4,3-8,5-6Z" fill="#fefefe"/>
      <path d="M134,806c.9.9-3.2,6.5-4.5,6-3.5-3,1-7.1,4.5-6Z" fill="#fefefe"/>
      <path d="M125.9,850.1c.2,0,2.6,3.3,2.1,3.9s-1.5-1.7-2-.3c-.8,2.5,1,2.6-4,2.3-.5-1.7,1.5-7,3.9-5.9Z" fill="#fefefe"/>
      <path d="M286,1045c-1.8,1.6-7.6-2.6-6-4s7.6,2.6,6,4Z" fill="#fefefe"/>
      <path d="M167.5,912c.6.3.6.7,0,1v-1Z" fill="#fefefe"/>
      <path d="M271,1075c-1.3,1-2.6,2.1-4,3-1-2,2.1-6.9,3.5-7,2.1-.2.5,3.4.5,4Z"/>
    </g>
    <g>
      <path d="M503,231c4.6,3.5,3.2-3.3,2.2-5.7-2.6-6.5-7.3-9.9-12.2-14.3,5.1.1,9.4,5.2,12.5,9,1.6-2.7,3-4.3,6.5-4,.5,3-3.2,2.4-4.5,5-3.9,8.2,7.8,1.4,11.1,1.3s4.8,1.5,7.3,1.7l-6-7c1.7.3,5.7-.6,6.9.1s1.3,6.3,3.1,3.9-.8-3.1.6-4.1c2.2-1.6,10.4-2.8,13.4-3.9-1.1,2.7-4.4,2.5-6.5,4-3.4,2.4-5.4,7.4-9.6,9.4-1.8,2.5-.6,5.8-.9,8.6-.5,4.3-2.5,11.9-1.8,16.2s4.3,14.2,4.9,14.6c1.9,1.6,7.9-2.4,7.8,6.8s-2.9,5.3-4.9,8.4c7.5-.4,8.7-1.9,10-9,.7,2.7,2.6,7.7-1,9.5s-6.2-.8-6,2c5.3,5.9,4.6-1.6,10,0s3.7,5.8,5.9,4.5c3.6-2,.2-12.6,6.5-11.9s7.2,4.1,7.6.5c-3.8-3.5-11.9-1.5-15.4-3.7s-1.4-6.2-7.6-3.9c0,0-1.4.2-1.7-.3-.6-1.1-.3-2.7-.9-3.7-2.4-3.8-14.3-14.7-4.5-15.1-3.3,2.8.2,6.3,2.5,9,9.4,10.9,24,12.9,36.5,6-.3.5-.6,1-1,1.5l1,.5c-3.9,2.6-7.2,4.5-12,5.5,2.6,2.1,9.7,3.7,10.5,7.4s-.7,3-.5,4.6c.9,9.5-.8,20.2,1,29.1s4.4,6.1,4.1,1.5c5.5,3.2-2.6,2.9,0,6-2,.2-2.6-1.5-4.5-2-6.9-1.5-4.6,1.3-6.4,3.5s-2.3,1.1-2.8,1.7c-1.5,1.8-.6,6.1-5.6,2.8s.4-6.4-1.2-9.1c-1.7,2-2.3,6-2.5,8.5-.6,8.2,2.6,9.6-3.6,16.5s-2.6.8-3.1,1.3c-1,1-.6,4.8-3.8,4.7s-3.3-2.7-5.5-2l1,4c-2,1.2-6.1-2.6-7-2s-3.3,9.4-4,11c-.2.1-3.2-1.9-3.6-2.3-1.4-1.5-1.6-4.2-3.3-4.7,2.1,7.7-4.7,4.8-6,6s2.4,3.4-2,4.6-6.8-.4-9.5-.7-1.2-2.3-6.6,0c1.6-2.1-.3-4.6,0-7-1.1.4-2.4,2-3,3l-2-3c.9,4.6-2.5,4.9-5,7.5-.7,2.1,1.9,1.4,2,1.5.2.3-.2,2.2,0,3-7.6-.3-2.2-7.2-3-8s-4.4-1.7-4.7-1.7c-1.5-.2-4.5,1.3-5.3.7s2.1-3-.6-3.9-3-.3-3.3,0-2.3,7.3-2,8.3,2.4,1.4,3,2.3c2.9,4.8,7.8,10.6,13,13.7s6.1,1.5,8.3,3.7,1.8,3.9,2.5,4.5,7.4-1,9.1,0,1.5,2.6,2.2,3.2,10.7,3.2,11.3,3.2c2.1.2,5-1.6,7.5-1-2.1,7.9,10.1,7.1,15.4,10s.3,2.6.7,2.9c.7.7,16.1,1,19.2,2.2s1.2,2.7,2.8,3.5,3.7.3,4,.5c1.6,1.6-4.7,29.3,2.5,32.9,3.2-6.5,10.1-5.8,15.3-7.6s5.3-5.3,12.2-3.3c-1.4.4-4-1.4-4,1.5s4.4-.8,4.7,4.1-2.3,25.3-11.7,23.4l3,3c-4.1.6-5.3,7.6-9,8.6s-4.5-6-6.5-6.3c-4.3-.7-11,3.2-15.2,4.6s-5.8.5-7.6,1.1-1.8,3.6-2.7,3,.4-1.4-.7-1.9c-2.7-1.2-6.9-1-10.4-3.1s-1.6-2.6-3-3.2c-4.2-1.9-9.2,1.4-6.8-5.7l-3,1c-1-5.1,3.1-4.5,3.8-5.2s0-2.1.4-2.6,2.7,0,4.3-1.2,3.3-6,3.5-8c-.9-.8-7.3,3.2-8.5,4-4.4,3-4.9,6.4-11.5,4.9,1.5-5.3.4-3.1-.9-4.6-3.6-4.1,2.8-4.9,4.3-7.5s2.3-10.2,1.5-11c-5.1-1.2-1.3,3.2-5,5,2.4-7.8-5-5.4-7.9-7.5-4.4-3.1-.7-5.3-.3-8.2s-.1-6.1,1.1-8.9,3.1-2.4,3.1-3c.1-1.3-2-4.9-1.8-6s2.1-1,2.5-1.7c.7-1.1.4-5.1,1.2-6.8-.6-.5-8.5.4-9,1-1.3,1.7,2.3,3.7,4,2l-.5,3c-6-1.1-8.4-2.6-6.5-9-3.9-.3,0,4.7-5,5,1.3-5.7-3.6-5-8-5-.2,1.9,5.7,3,4,5-3.1,3.7-11,.4-15,2,1.9-4.2-3.4-9-3.1-11.5s4-.8,1.6-4.6-4.1,2.4-6.5,2l3-2.5c-1.6-2.5-5.2-.8-6.8-1.7s-5.5-6.4-5.7-6.8c-.7-1.3-.4-3.8-.5-4-1.1-1.2-4.4,2.2-5.5,2s-.8-2.7-1.1-3.1c-.9-.9-2.5-.7-3.2-1.2-2.5-2.2-2.9-13-8.3-15.2l5-1.5c-9,.1-3.1-7.4-9-9,0-.6,0-1.4,0-2,2.1.9,6,.4,7-2-8.3,3-3.1-4.7-4.1-5.9s-4-1.9-4.5-2c-2.3-.7-1.5,2.5-1.5,4-1.4-1.4-1.5-3.2-2-5,1.7-4,2.7-.5,5.1-.5,9.9.2,3.8-7.5,9.9-9.5,1.1,4.8,2.4,8,1,13l5-1-1,15c3.6-.2,9.2-2.3,9-6.6s-4.1-2.9-4-6c.8-1,2.4.3,2-1.4-3,0-7.4-4.6-6.8-7.4s2.2-1.9,2.6-3.3c.9-2.9-.7-6.9,2.7-9.3,4.8,2.8-1.6,4.5,2,7s0-4.1,2.5-.5l-1.5,2.5c2.2-1.5,6.4-1.7,7.3-4.7,2.2-7.6-1.7-5.5-3.3-7.3-3.2-3.5-1.2-15.8,2-19s2.4-.9,3.4-1.6c1.5-1.1,1-3.5,5.1-2.4l1,2c1.3-9,4.7-2,5.5-2,1.7-5.9,7.1-2.7,7.5-3s.1-2.9,1.7-4.1,10.4-3.7,11-3.8c2.7-.3,8.7,6.6,10.3,8.8.4-4.1,5.3-4.2,6-8-7.3,4.3-8.6-3.8-11.5-4.1s-3.2,1.3-5,1.6-2.5-.9-3.9-.4-2,4-4.2,3.6c-6.7-1.1,2.5-9.7,10.8-8.5s4.7.5,7.1.7-.9,3.2,5.6,1.1c-.3.9-1.3,1.8-1,3,2.9-.4,5.1,3.5,6.7,3.9,5.2,1.4,6.9-9.6-2.2-8.9s-2.5,1.6-3.5,2c.8-2.6.8-5.9,1.7-7.8s3.3-1.4,3.2-3.5c-.2-3.1-2.8-10.2-6.9-6.7-1.8-4.3,2.1-5.2,2-5.5-1.2-3.1-4.6,1-5,.5-1.6-2.7,2.2-9,1.8-9.9-.7-1.8-6.9-1.8-7.3-5.1-.7,0-6.6,10.5-7.9,12.2s-.9,2.4-3.6,1.8c2.6-6,4.4-8.9,4-16ZM532,278c4.1.2,4-6,1.5-8-3.2,0-.8,6.3-1.5,8ZM531.8,280.2c-.7-.6-3.2-.1-4.3-1.2-2,.8.2,4.5-2,4.9s-3.1-1.4-3.5-1c-1.4,1.6,3.9,6.6,5.1,8.5s.8,3.4,1,3.5c.8.7,4.1-1.2,5.3-1.1s1,2,1.7,2.5c2.2,1.5,4.8,2.2,6.5,4.6,3.1-6,2.5,1.5,2.7,1.8s1.4.3,1.8,1c1.6,2.3-.2,4.2,5,3.3l.5-4,4.5,5c1.7-8.9-3-4.7-6.6-7.9s-1.4-3.5-2.4-4.6c-2.4-2.6-10.3-7.7-13.6-11.4s-1.2-3.5-1.6-3.8ZM512,283c-.1-.2-3,.9-4,0-.2,4,.5,9.8,5.5,9.9s6.5-1.6,5.5-4.9c-2.3-.9-3.9,4.4-5.5,2-1.3-1.2-1.3-6.8-1.5-7ZM495,296l-.5-6c-2.2,1.1-3.9,5.8-5.5,6.5s-5.6-1.8-7,4.4c3,2.5,13.3-2.4,13.9-1.9s.3,2.4,1.7,2.9c2.5.8,7.8-2.7,12.7,0s.1,2.4,1.6,2c-.5-5.3,5.6-4.6,6.5-6s-.7-1.9-.5-2c1.3-.9,5.6,4.2,8,3-2.1-8.9-7.6-3.6-13.4-4s-4.9-2.6-6.3-2.7c-2-.3-10.4,4.7-11.3,3.8ZM474,292c-2.8-.5-1.6.7-2.2,2.2s-4.1,8.9-1.2,8.8,2.9-9.2,3.5-11ZM512,328l-12,1c-1.1-8.2-.9-8.4,7.5-9,5-.4,11.2,1.9,12.8,1.8s5.4-3.1,8.7-1.8c-1.9-4.9-2.7-6.1,0-11-4.9-1-9.5.3-14.5,0-7.2-.5-13.4-3.3-20.5,0,.6,1.8,3.6.8,1.5,4l-15-9c-.9.2-4.5,9.2-4.5,10.6-.1,2.1,3,.7,1.9,3.7s-8.8,12.8-2.3,10.7,1.4-6.7,4.5-6c-2.3,5.7,1.2,10.9-7,10.5,3,4.2,7.2-1,9.5-.5,3.2.8-1.3,5.5,2,5l3.5-5c.2,4.6-2.2,6.3,1,10,1.6.4.5-1.7,1.6-2s2.3.1,3.4,0c-1.9,3.6,1.4,5.3,1,9,2.3-1.3,2.5-4.2,4.2-6.4s5.9-4.2,7.3-5.7,2.9-6.4,5.6-7.9c.1.2,3,1.8,3.5,2,5.3-2.1.2-10.1-2.5-8,2.7,5.2-.7,3.6-1,4ZM523.9,327.9c.3-.4.6-3.5-.3-3.9l-4.5,5c.9-.2,4.6-.8,4.8-1.1ZM522,342c.9-7.6-2.9-4.2-3-5.5l3-3.5-4.8.2c-.3,2.7-6.2,6.8-6.3,8.3-.4,4.1,2.3,6.2,5.7,3.6s-.8-2.8,5.4-3.1c-.6,4.7-2.5,3.3-3,4.7s.4,2.9-.5,4.3-5.5,2.2-1,3.9,2.3-4.3,4-6.9,11.5-6.6.5-6ZM491,351l-6,.5,5,3.5,1-4ZM551,432c-4.7,1.9-8.4,4.5-7,10,1.1,1.3,9.4-7.1,7-10ZM542,445v-4c-.6-1.2-2.5,3.4-2,4h2Z" fill="#515151"/>
      <path d="M555,123c-1.3,0-2.7,0-4,0-.2.1,1.6,2.6,2,3-1.2,2.4-3.9,4.1-6.5,4.1s-1.4-1.5-2.7-2.4-2.3-.3-2.8-.7c-1.5,3.2,1,9.2-2,11,.4-2.9-.8-6.1-.3-8.8s-.2-2.6,2.3-2.2c-.1,0,.5-1.4-1.2-2.3-2.7-1.4-11.2-.7-8.7-4.6s20.8-.3,24,2.9Z" fill="#515151"/>
      <path d="M532,141c-5.5,7.9-8.3,8.7-15.5,2-2.2-2-5.6-6.9-.5-5.6s9.7,6.3,16,3.6Z" fill="#515151"/>
      <path d="M579,417c-4.8,0,1.1,1.9,2.1,3.5,3.4,5.5-3.4,2.1-7.1,3.5-.3-.3,1-6.8,1-8,1.8-.7,3,.7,4,1Z" fill="#515151"/>
      <path d="M532,135c1.4.3,2.4-.3,2.8-1.7.7-2.2-1-6.4,1.2-7.3-.2,3,.6,7-.7,9.8s-3.3.6-3.8,3.2c-.6-4.3-2.4-8.8-.5-13l1,9Z" fill="#515151"/>
      <path d="M492,404c.3.3-2.8,5.8-3.1,6-.7.5-3.5-1.8-3.6-3.6-.4-5.4,3-2.3,6.7-2.4Z" fill="#515151"/>
      <path d="M444,229c0,8.5-.4,14.3,3.2,22.3s5.9,7.2,4.8,8.7l-2-.5c2.8,5.1-2.1,6.2-2.6,8.4s.5,7.9-.6,11.4-6.5,4.7-2.8,11.7l-3-1c-.8,5.5-3.5,12.8-2,18.3s4.3,3.6,4.5,5.7l2.5-2-1,16c-3.5-3.7-5.3-3.1-10-2-.4-5.9-.6-2.9-1.8-6.7s0-5.7-.2-8.3c-.4-6.8-1.9-16-1.6-22.3s2.8-9.7,1.6-14.7c-3.4.9-2.3,8.2-3.6,9.1s-6.4,1.7-7.1,1.6c-2.1,0-4.3-3.4-7.3-.7.2-2.5,3-14.6,4.5-16s6.9-3,8-3.1c3.7-.4,4.4,1.3,7.5,2.1,0-3.1-.2-6.2.2-9.3s1.6-6.6,3.8-5.7c.2,1.1-.8,3.2,1,3,.8-2.7,5.8-11.4,1-11l-2,6c.1-5.7,2.9-6.5,3.8-10.7s-.8-7.4,1.2-10.3Z" fill="#515151"/>
      <path d="M452,212c-1.8-3.1-1-1.4.9-1.6,3.2-.4,4.5-1.6,6.9-2.1,6.1-1.3,12.3-1.3,18.2-3.3l-2-1c-.4-4,4.2-2.8,6-3.6,3.3-1.6,5.3-4,9.9-4.9s9.7.4,10.1.1c1-.8,1.5-6.8,3-8.6,3.7,5.3,2.5,1,5,1.4s1.9,2.5,2.6,2.6c2,.3,5.9-1,7.8-2-1.1,4.6.2,2,1.6,3s1.3,1.9,2,2.4c2.2,1.6,3.8-1.1,1.9,3.6,2.6-.8,5.7-1,8.3,0s.3,2,1.2,2-.4-2.4,1.5-2c-.6,5,1.1,2,3.1,2.6,7.6,2.3,15.1,5.3,22.3,8.6s3.1.5,2.6,2.8c-4.4-1-8.4,1.1-13-1l5-2c-14.4-8-30.6-6-46.5-6s-27.6,1.5-43.7,5.2c-3.5.8-12.1,2.6-14.8,3.7Z" fill="#515151"/>
      <path d="M433,311c-1.6.2-3.5-.3-5,0l-1-1c-5.9-9.1-12.9-13.1-12-26,3-2.7,5.2.7,7.3.7s6.7-1.3,7.1-1.6c1.3-.9.1-8.3,3.6-9.1,1.2,5-1.5,10.2-1.6,14.7-.2,6.4,1.2,15.5,1.6,22.3ZM425,290c.3-1.5-.8-2.9-2-3.5-4.9-2.6-4,4.6,2,3.5Z" fill="#fefefe"/>
      <path d="M543,269c6.3-2.3,5.5,2.5,7.6,3.9,3.4,2.2,11.6.2,15.4,3.7-.4,3.6-6.6-.4-7.6-.5-6.3-.6-2.9,9.9-6.5,11.9s-2.5-3.5-5.9-4.5c-5.4-1.6-4.7,6-10,0-.2-2.8,3.8-.9,6-2,3.6-1.8,1.7-6.8,1-9.5s.3-2.6,0-3Z" fill="#fefefe"/>
      <path d="M575,267l-1-.5c.4-.5.7-1,1-1.5,2.3-3.6,6.3-6.1,8.2-10.3,4.1-9.4,5.5-20.3.8-29.7,8,1.5,4.8,4.2,5,8.5.4,14.7-.7,24.6-14,33.5Z" fill="#fefefe"/>
      <path d="M438,335c0-1.4-.8-4.7,1.5-4s4.3,1.9,4.5,2c.9,1.3-4.2,8.9,4.1,5.9-1,2.4-4.9,2.9-7,2s-3-3.5-3-6Z" fill="#fefefe"/>
      <path d="M498,363c-3.9,1.7-4.1,5.1-8,5-.2-.8.2-2.7,0-3,4.2-.7,3.7-3.9,5-6s1.9-2.6,3-3c-.3,2.4,1.6,4.9,0,7Z" fill="#fefefe"/>
      <path d="M424,256c5.2-.3,3,8.6-.5,8s1.2-6.4.5-8Z" fill="#515151"/>
      <path d="M439,250l2-6c4.8-.4-.2,8.3-1,11-1.8.3-.8-1.9-1-3s0-1.4,0-2Z" fill="#fefefe"/>
      <path d="M428,311c0,0-.2,1.2-1,1-.2-.6.2-1.7,0-2l1,1Z" fill="#515151"/>
      <path d="M452,234c2.8-4.9,4.2-.1,4.7,0,4.8,1,10.1-1.4,13.8-4,1.3,0-.7,5.1,2,4,4.9-2,.6-3.4.5-3.7-1.6-6.2-1.2-3-2.9-5.4s1.2-2.2.9-2.8-5-1.8-5.9-2.7c-1.4-1.3-1-4.6-4-4.5l9.5-3c13.8-.8,31.5,2.1,32.5,19,.4,7.1-1.4,10-4,16-4.3,9.8-7.2,14.5-18,17-1.9.1-4.9-.8-6,1-1,0-2,0-3,0-.7-1.5-6.5-1.7-8.4-3.1s-1.4-2.7-1.6-2.9c3.3-1.8,1.8-7.3,3-10.2s3.6-1.2,3-3.8c-3.3.1-6.9-.7-10,1s-.8,0-.9.5l.9.5c0,.7,0,1.3,0,2-2.8.6-2.3-1.6-1.9-3.4s4.6-7.9,3.9-8.6c-3,0-5.5-1.6-8-3Z"/>
      <path d="M512,330c-2.7,1.5-4.2,6.5-5.6,7.9s-5.3,3.1-7.3,5.7-1.9,5.1-4.2,6.4c.4-3.7-2.9-5.4-1-9-1.1.1-2.4-.3-3.4,0s0,2.4-1.6,2c-3.2-3.7-.8-5.4-1-10l-3.5,5c-3.3.5,1.2-4.2-2-5s-6.4,4.7-9.5.5c8.2.4,4.7-4.8,7-10.5-3.1-.7-2.7,5.4-4.5,6-6.5,2.1,2.1-9.9,2.3-10.7,1.1-3-2-1.6-1.9-3.7s3.6-10.4,4.5-10.6l15,9c2.1-3.1-.9-2.2-1.5-4,7.1-3.3,13.3-.5,20.5,0s9.6-1,14.5,0c-2.7,4.9-1.9,6.1,0,11-3.2-1.3-6.7,1.6-8.7,1.8s-7.8-2.1-12.8-1.8c-8.4.6-8.7.8-7.5,9l12-1c0,0,0,1.8,0,2Z" fill="#fefefe"/>
      <path d="M531.8,280.2c.4.3.5,2.6,1.6,3.8,3.3,3.6,11.3,8.7,13.6,11.4s1,3.4,2.4,4.6c3.6,3.2,8.3-.9,6.6,7.9l-4.5-5-.5,4c-5.2.9-3.4-1-5-3.3s-1.7-.7-1.8-1,.4-7.7-2.7-1.8c-1.7-2.4-4.2-3.1-6.5-4.6s-.8-2.4-1.7-2.5-4.6,1.7-5.3,1.1-.3-2.3-1-3.5c-1.1-1.9-6.5-6.9-5.1-8.5s2.7,1.1,3.5,1c2.2-.4,0-4.1,2-4.9,1.1,1,3.6.6,4.3,1.2Z"/>
      <path d="M495,296c.9,1,9.3-4,11.3-3.8s3.5,2.5,6.3,2.7c5.8.4,11.3-4.8,13.4,4-2.4,1.2-6.7-3.8-8-3s.8,1.6.5,2c-.9,1.4-7.1.6-6.5,6-1.5.4-.7-1.5-1.6-2-4.9-2.7-10.2.8-12.7,0s-1.4-2.6-1.7-2.9c-.6-.4-10.9,4.5-13.9,1.9,1.4-6.2,5.2-3.6,7-4.4s3.3-5.4,5.5-6.5l.5,6Z" fill="#fefefe"/>
      <path d="M522,342c-6.2.3-2.9,1.1-5.4,3.1s-6.1.5-5.7-3.6,6-5.6,6.3-8.3l4.8-.2-3,3.5c.1,1.3,3.9-2.1,3,5.5,11.1-.6,1.3,3.3-.5,6s-.4,8.4-4,6.9.8-3.7,1-3.9c.9-1.4.1-3.1.5-4.3s2.4,0,3-4.7Z" fill="#fefefe"/>
      <path d="M521,271c1-.3,1.8-1.8,3.5-2,9.1-.8,7.4,10.2,2.2,8.9s-3.8-4.3-6.7-3.9c-.3-1.2.7-2.1,1-3Z"/>
      <path d="M512,283c.2.3.2,5.8,1.5,7,1.6,2.4,3.2-2.9,5.5-2,1,3.2-2.8,4.9-5.5,4.9-4.9-.1-5.7-5.9-5.5-9.9,1,.9,3.8-.2,4,0Z"/>
      <path d="M551,432c2.4,2.9-5.9,11.3-7,10-1.4-5.5,2.3-8.1,7-10Z" fill="#fefefe"/>
      <path d="M512,328c.3-.4,3.7,1.2,1-4,2.7-2.1,7.7,5.8,2.5,8-.5-.2-3.4-1.8-3.5-2s0-1.9,0-2Z"/>
      <path d="M490,365c-.1-.1-2.7.6-2-1.5,2.5-2.7,5.9-3,5-7.5l2,3c-1.3,2.1-.8,5.3-5,6Z"/>
      <path d="M474,292c-.6,1.7-2,10.9-3.5,11-2.8,0,.8-7.7,1.2-8.8.6-1.5-.6-2.7,2.2-2.2Z" fill="#fefefe"/>
      <path d="M532,278c.7-1.7-1.7-8,1.5-8,2.5,2,2.6,8.1-1.5,8Z" fill="#fefefe"/>
      <polygon points="491 351 490 355 485 351.5 491 351" fill="#fefefe"/>
      <path d="M523.9,327.9c-.2.3-3.9,1-4.8,1.1l4.5-5c.9.3.6,3.5.3,3.9Z"/>
      <path d="M542,445h-2c-.5-.6,1.4-5.2,2-4v4Z" fill="#fefefe"/>
      <path d="M452,212c2.7-1.2,11.3-2.9,14.8-3.7,16.1-3.7,27.2-5.2,43.7-5.2s32.2-2,46.5,6l-5,2c4.6,2.1,8.6,0,13,1s11,3.8,13,7c-14.8-4.2-33.1-6.8-44,6.5,5.2,4.1,3-2.5,8-3.5.3,1.3,1.7,8.7,2,9,.6.6,3.8-1.2,4-1,1.6,1.8-1.7,2.2-2.5,3-9,8.7-4.5,3.7-7.5,1.5s-5.8-.1-6.1,0c-1.6.9-2.1,4.7-2,6.6l-3-6c.3-2.8-.9-6.1.9-8.6,4.2-2.1,6.2-7.1,9.6-9.4s5.4-1.3,6.5-4c-3,1.1-11.3,2.3-13.4,3.9s-.2,3.6-.6,4.1c-1.8,2.4-2.7-3.6-3.1-3.9-1.2-.7-5.1.2-6.9-.1l6,7c-2.5-.1-4.8-1.7-7.3-1.7s-15.1,6.8-11.1-1.3,4.9-2,4.5-5c-3.5-.3-4.9,1.3-6.5,4-3.1-3.7-7.4-8.9-12.5-9,4.9,4.4,9.6,7.8,12.2,14.3s2.4,9.2-2.2,5.7c-1-16.9-18.7-19.8-32.5-19l-9.5,3c3.1-.1,2.6,3.1,4,4.5s5.6,2.2,5.9,2.7-1.1,2.4-.9,2.8c1.7,2.5,1.3-.7,2.9,5.4s4.4,1.6-.5,3.7-.7-4.1-2-4c-3.8,2.6-9.1,5-13.8,4s-1.9-4.9-4.7,0c-.2-.1-1.2.3-1.8-.2s-.1-3.5-2.2-3.8c-3.6,14.6,5.1,28,18,34.5-1.2,2.2-9.6-.6-5.4,3.4,15.2,1.1,32,5.4,38.4-12.9-3.7-.3-5.2,4.2-6.9,5.6s-7.6,4.8-10.4,5.6-9.3,1.2-9.6.8.2-1.5,0-2c1,0,2,0,3,0,3.1,0,3.5-.4,6-1,10.8-2.5,13.7-7.2,18-17,2.7.5,2.4-.2,3.6-1.8s7.1-12.2,7.9-12.2c.4,3.3,6.7,3.3,7.3,5.1s-3.5,7.2-1.8,9.9c.4.5,3.8-3.6,5-.5s-3.7,1.2-2,5.5c4-3.5,6.7,3.6,6.9,6.7s-2.5,1.8-3.2,3.5-.9,5.2-1.7,7.8c-6.5,2.2-4.6-.9-5.6-1.1-2.4-.3-4.2-.3-7.1-.7-8.3-1.2-17.5,7.5-10.8,8.5s2.9-3.2,4.2-3.6,2.9.6,3.9.4c1.7-.3,3.1-1.8,5-1.6,2.9.2,4.2,8.4,11.5,4.1-.8,3.8-5.7,3.9-6,8-1.6-2.2-7.6-9.1-10.3-8.8s-10.5,3.4-11,3.8c-1.6,1.2-1.5,3.9-1.7,4.1-.4.3-5.8-2.9-7.5,3-.8,0-4.2-7-5.5,2l-1-2c-4.1-1.1-3.6,1.3-5.1,2.4s-2.6.8-3.4,1.6c-3.2,3.2-5.2,15.5-2,19s5.5-.3,3.3,7.3-5.1,3.1-7.3,4.7l1.5-2.5c-2.5-3.6-1.9.9-2.5.5-3.6-2.5,2.8-4.2-2-7-3.4,2.3-1.8,6.4-2.7,9.3s-2.4,2.3-2.6,3.3c-.5,2.7,3.9,7.3,6.8,7.4.4,1.7-1.1.4-2,1.4,0,3.1,3.9,4.2,4,6,.1,4.3-5.5,6.3-9,6.6l1-15-5,1c1.4-5,0-8.2-1-13-6.1,2.1,0,9.7-9.9,9.5s-3.3-3.5-5.1.5c-.4-1.4-.9-2.1-1-4,4.6-1.1,6.5-1.7,10,2l1-16-2.5,2c-.3-2.1-4.4-5.3-4.5-5.7-1.4-5.5,1.2-12.8,2-18.3l3,1c-3.7-7,1.7-8.4,2.8-11.7s0-8.5.6-11.4,5.4-3.3,2.6-8.4l2,.5c1.1-1.6-4-7.2-4.8-8.7-3.7-8-3.2-13.8-3.2-22.3s1.2-2.4,0-4l-6,4c-1.6-7.5,8.1-8.3,8.8-9.2,1.2-1.8.3-5.7,5.2-7.8ZM480.4,277.6c-.6-.5.1-1.9-1.4-1.6-2.8,7,5.8,8.3,5,4.5s-2.7-2.2-3.6-3Z" fill="#fefefe"/>
      <path d="M472,265c.2.4-.3,1.7,0,2s8.2-.5,9.6-.8c2.9-.7,8-3.7,10.4-5.6s3.2-5.9,6.9-5.6c-6.4,18.3-23.1,13.9-38.4,12.9-4.3-3.9,4.1-1.1,5.4-3.4-12.8-6.5-21.5-19.9-18-34.5,2.1.2,1.5,3,2.2,3.8s1.5,0,1.8.2c2.5,1.5,5,2.9,8,3,.6.7-3.5,6.7-3.9,8.6s-.9,4,1.9,3.4c0,2.2-.4,5.3.2,7.3s3.2,2.1,3.8,2.7,0,1.8,1.6,2.9,7.8,1.6,8.4,3.1Z" fill="#515151"/>
      <path d="M480.4,277.6c.9.8,3.5,2.2,3.6,3,.8,3.8-7.8,2.5-5-4.5,1.5-.4.8,1,1.4,1.6Z" fill="#515151"/>
      <path d="M425,290c-6,1.1-6.9-6.1-2-3.5s2.3,2,2,3.5Z" fill="#515151"/>
      <path d="M458,246c3.1-1.7,6.7-.9,10-1,.6,2.6-2.3,2.2-3,3.8-1.3,3,.3,8.4-3,10.2-.6-.6-3-.1-3.8-2.7s-.2-5.1-.2-7.3,0-1.3,0-2v-1Z" fill="#fefefe"/>
      <path d="M481,264c-2.5.6-2.9,1-6,1,1.1-1.8,4.1-.9,6-1Z" fill="#515151"/>
      <path d="M458,247l-.9-.5c.1-.5.6-.3.9-.5v1Z" fill="#515151"/>
    </g>
    <g>
      <path d="M441,343c-.8,5.6-1.3,6.8-.2,12.7s.2,1.8-1.3,1.3c-6.1-1.9-18.8-9.8-24.4-13.6-26.8-17.8-40.7-40.5-37.1-73.9s10.9-16.1,17.4-24.6,27.7-43,28.4-45.6c4-16.8,13.3-42.6,23.8-56.2,9.7-12.5,9.4-9.9,22.9-15.1,10-3.9,18.9-9.4,30-9.1,3.2,0,6.2,1.6,9.5,1.1-7.8,6.9-4.4,4.8-2.3,11.8s.3,4.9,1.9,8.1,12.7,13,17.1,13.9,17.7-2.8,21.7-6.8c4.3-4.3,3.6-9.1,5-14s2.3-2.7,2.4-3.6c.3-2-2.1-2.4-2.9-3.3s-2.2-2.9-2-3c1.3,0,2.7,0,4,0,14.8-.2,23.1,13,32,22.5,2.9,3.1,7.4,5.1,9.9,9.1s8.7,21.1,8.9,23.1c.4,3.1-.7,5-.6,7.5.8,14.3,10.2,23,17.2,33.8,15.7,24.2,12.5,35.5,19.6,60.4,2,7,7.7,11.8,7.7,19.1.2,19.4-28.4,43-44.1,51.7s-25.4,10.3-27.1,13.9c-2.5,16-4.5,32.3-4.6,48.5,0,1.5,1,2.8,1,3.5,0,1.2-1.3,7.7-1,8,3.7-1.4,10.4,2,7.1-3.5s-6.9-3.4-2.1-3.5c.3,0,.7,0,1,0l4,2c29.9,12.3,59.2,25.7,88.7,38.8,4.9,2.2,10.3,6.5,15.6,8.4,9.2,3.3,22.7,3.5,30.6,9.4,4.2,3.1,9.7,12.6,12.5,14.5s4.2.5,6.1,1.9,8.6,14,12,18c8.2,9.3,13.8,14.6,21,25s15.9,20.3,20.4,29.6,6.1,20.6,9,30,3.3,5.8,3.6,8.4-1.3,3.5-1.6,5.6c-.8,5.8,2.5,8.1,4,12.9,12.6,40.3,33,77.6,45.6,117.4,7,22,6.4,35.7,5.1,57.7-2.9,48.8-11.9,94.2-25,140.8-3,10.6-9,25.5-10.8,35.7-1.5.7-1,2.7-1,4s0,.7,0,1l-1.7,4.8-2.3,2.2c1.8-13.4,5.8-26.2,9.3-39.2,5.9-21.5,13.3-43.8,17.4-65.6,2.5-13.3.2-25.5,2.3-38.7,4.3-27.4,10.2-57.1,2.5-84.6-.4-1.6-4.3-12.2-4.8-12.8s-4.6-2-6.2-4.2c-3-4.2-4.6-13.3-10-14-8.2-1.2-17.8,2.8-26.6,0v-3c4.7,2.5,5.4-3,0-1.6s-2.2,2-3.9,1.6c2-3.8-.6-2.6-.9-3.7-.5-1.8-.2-5.1-1-6.6s-1.9-.5-2.7-1-.5-3-2.3-1.6.3,1.7-.7,2c-1.7.5-4.4-.3-6.3,0-.9-3.4,2.4-1.5,3-2s.5-2.4-1.5-2c-4.9.9-6.9,5.7-8.7,6.3s-12,2.6-13.3,2.6c-2.5,0-14.8-7.7-14.4.7s1.9,2.3,2,2.4c.5,1.9.4,4.9,1,7-5.5-7.2-8.2-17.6-13.6-24.9-4.6-6.3-16.3-15.5-22.5-21.5-1.2-1.1-2.2-3.5-3-4.1-2-1.2-8.1.8-9.4,2.6-4.4,5.7-.7,33-.5,41.4,1,63.2-6.9,126.2-7,189,0,22.3-2.1,43.8-2,66,0,11.1-2.3,27-1,37s2.1,7.5,6.1,8.9c7.7,2.8,31.8,7.8,38.8,4.7,3.1-.4,2.2.9.4,1.9-9.1,4.9-20,8.4-29.2,13.3-1.8,3.1,8.4,13.8,2.3,17.9s-22.1,7.5-30.4,11.6c-8.1,4-13.1,10.3-19.6,15.4s-7.4,3.9-11.5,8-2.5,1.9-3.6,3.9c-4.1,7.4-1.9,18.4,7.6,18.1,5.7-.2,5-2.4,7.4-3.6,10.5-5.6,32.8-17.8,40.7-25.8s1.4-10.3,2.4-11.6,3.5-.5,4.4-1.1c1.3-.9-.4-6.8,6.3-5.3.4,0,4.5,2.4,4.7,2.7,1.3,2.2-1.7,11.5-3.7,13.4-2.5,2.3-6.9,2.6-9,4-12.1,8.1-22.8,19.6-35.1,27.9-3.9,2.6-9.4,3.4-11.9,7.6-.2.2.2.8,0,1-1.6,0-2.4.5-3,2s0,.6,0,1v1c-.2,1.5,0,3.4,0,5s-1.3.5-.3,2.7c2,4.5,7.6,8.1,12.6,7.1s15.3-10,18.7-12.4c4.6-3.2,9-7.8,14.4-10.7,2.5-1.3,2.4-.9,3.7,1.2.1,1.1.6,2.9,1,4,1.8,4.4-3.1,7.4-5.4,11.1-5.3,8.6-8.1,13.8-14.6,21.4-13.2,15.3,7.7,25.9,15.4,8.9l11.7-11.3c2.9,8.3,4.4,21.2-2.4,28.1s-11,1.4-9.5,13.4,1.1,9.2,1.1,17.1c0,9.9,1.6,19.9,1.8,30,.7,27.4-5.1,54.6-1.9,81.9.8,6.6,3.8,14.3,3.5,21s-4.6,18.9-5.6,20.2c-3.7,5.1-19.8,12.5-22.5,18.5-1.1,6.5-3.5,13.1-4.5,19.5-2.6,16.5-2.9,33.2-3.2,49.9-.4,25.6-2.7,51.6-4.9,77-1,11.8.8,24.8,1.1,36.9s1.5,7,.8,10.5h-30c-1.5-3-4.6-12.4-4.7-15.6s1.9-8.3,1.6-10.8-1.8-3-2.1-5c-1.4-9.5-.5-11.9,2.3-20.8,1.3-4,3.2-10.2,4.9-14s1.9-.8,2-1.4c.1-1.4-1.1-2.8-1.1-3.8s1.9-.5,2.1-1.2c.5-2-1.1-4.2-.6-6.4s2.8-8.8,3.2-9.8c.7-1.6,5.5-1.7.3-3.7-.1-1,1.6-.2,1.9-.6s-.9-7.4-.8-9.4c.3-5.9,2.4-11,3-16,1.6-13.5-.5-33.5-.9-47.2,0-1.4.9-5.3.7-5.9s-1.6,0-1.8-1c-.5-2.3,2-1.1,2.1-2,0-1.7-1.9-5.6-3.9-5.9-5.4.2-11.1-.3-16.5-.9-24.1-2.6-49.3-6.5-72.4-15.4s-25.8-14.7-37.9-18.1c-2.4-.7-6.5-2.2-8.4,0-1.3-2.4-6.7-7.5-8.5-9.9-6.5-8.6-12.6-18.1-10.4-29.5s3.9-5.6,4-10.1-.9-9.6-1.3-11.7c-.9-4.2-6.8-21.3-12.5-14.5s-4.7,12.7-5.5,14.9c-2.4,6.1-4.1,13.1-6.9,19.1s-9.9,10.8-12.6,15.4-5,13.9-7.4,19.6c-24.6,56.9-36.3,118.2-51,178-3.7,14.9-10.9,28.8-12.7,43.8h-17l2-2c.5-7.3,1.9-14,7-19.5-5.1-1.8-.2-2.5,0-3.1,1.3-6.3-3.2-8-4-11.9s3.4-.3,2-2.4-3.9-.5-2.5-5l-2.5,6c-4.7-2-2-.2-3.3,1.6-3.8,5.4-9.6,14.8-13.9,19.1s-3.1.5-4.1,1.2-2.3,7.4-5.6,7.1l2,1.5c-2.6,1.8-2.9,4.8-4,7.5h-34c-.6-2.8,3-4.2,3-7.5v-16c0-4.6,10.1.1,11.5.5s.4-1.7.6-1.9c1.3-1,2.6,1.9,4.2,1.7,4.1-.6,6-5,8.2-6.8s6-3.7,7.5-5.5c3.5-4.3,5-13.1,10.3-17.2s9.1-3.7,10.5-6.5-.9-1.9-.6-3.1c.6-2,2.6-4.4,3.5-6.6s-.1-3.4.5-4.1,3.8-.8,4.5-2.4-.7-1.7-.2-2.7c2.2-4.2,2.9-4.4,4.5-9.6s1.7.8,2,.5c2.1-2-1.9-1.9-1.9-2-1.4-2.2,1.7-1.7,1.9-2.6.4-1.4-.1-3.4.4-5.4,2.4-8,6-15.7,7.6-23.9,5.2.7,3.2-1.1,4.9-3.6s6.1-4.9,1-7c4.6-3.5-.7-8.4,6-8.5.3-1.5-1.3-.5-1.9-1.7s-.4-2.3-1.1-3.2l4,1c-2.6-4.8,2-7,2-7.5-.7-4.9-5.1-9.7,1-13.1-4-1.3-2.4-6.7,2-4.5.3-1.9-.5-4.6,0-6.3s2.6-1,3-2.3-1.1-2.9-.8-3.3,2.2-.3,2.7-1.7,1.5-9.9,1.6-11.2c.1-2,0-11.1-.4-12.5-.5-2.2-17.8-1.7-20.6-1.7-19.3-.2-39.5.3-58.7-4.2-29.1-6.9-49.2-16.2-74.8-30.7s-7.7-8.8-13.1-12.4-8.1-2.9-8.5-3.5c-1.3-1.8,0-9.5-.5-12.5s-3.5-5.5-3-9,4-5,5.2-7.9c13.2-29.8,6.5-72.8,20.1-102.9l10.7-40.8h2c.3.6,3.9,2.7,4.5,4,2.9-2.7,2.6-7.2,3.5-11s2.8-4.7,1.6-9.1-6.3-6.4-8-8-.5-1.8-.6-1.9c.5-1.4,2.4-4.9,1-6s-3.8,1-4,1c-4.1,0-3.2-4.5-4-7,6.3,3.6,9.2,2.4,13.5-3,1.8-.6,2.7,3.9,5,5,.5-2.2.7-4.7,3.6-2.6s1.8,9.6,4.4,8.5c2.8-2.3,5.2-6.7,6.5-10,4.6-11.5-8.7-13.6-15.5-20s-4.9-3.3-3.5-7,1.2-1.4,1.6-2.6-.8-2.3-.2-3.3c3.1-5.3,11.7-1.2,15.8.9s1.1,2.2,1.7,2.6c.9.5,2.2-.7,2.8-.4s4.8,7.2,7.2,8.4c6.5,2.9,8.7-.2,10.4-5.5,2.7-8.3,1.7-8.3-3.4-13.9s-15.1-12.7-19.8-15.7-5.9-1.7-6.2-2.8,5.1-4.5,2-8.5c4.3,0,7.6,3.4,11.4,4.9,6.8-1.1-.7-26.5-10.4-26.9,2.4-3.9-1.6-8.5-3-12.5-10.2-30-9.2-44.9-7-76,.5-7.7,3-17.9,3.1-25s-3.2-20.1-3.1-29c.3-18.7,9.4-39.7,10.6-60.2,2.7-43.9-11.5-84.6-10.7-127.9s1.6-12,1.6-17.4-8.1-1.2-10.3-.3c-24.4,10.2-51.5,55.2-73.2,74.8-4.1,3.7-15.4,9.9-16.1,14.9-2,15.6,10.2,50.2,13.8,67.3,3.9,18.9,4.3,35,6.3,53.7,3.8,34.5,18,74.1,30.2,106.8s8.3,21.8,10.1,23.4,7.4,4,9.7,6.3c-.1,0-1,1.1-2.3,1-7.3-1-7-3.3-11.8-6.4s-7-2.6-7.7-3.8-.2-3.3-.7-4.8c-2.7-8-3.4-16.3-5.8-24.2s-7.9-13.8-10.2-18.8c-4-8.9-9.5-23.4-10.7-32.3s-.5-4.3-.8-5c-.6-1.3-2.9,0-3.1-1.2-.6-3.4.3-8.9-.2-11.7-1.6-10.7-7.6-23.7-8.5-34.5-1.6-18.9-2.2-35.2-8-54-3.7-12.4-7.1-23.6-10.4-35.6s-7.5-14.6-7.9-20.2,2-10.5,3.1-11.2,3.1,0,4.8-.7c3.7-1.6,11.8-7.5,14.6-9.8,14-11,24.8-23.6,36.4-37.1,6.3-7.4,12.7-14.6,19-22l-6.6-4.4-9.4-3.1c-6.6-3.4-13.9-5.4-20.3-9.2-15.5-9.1-37.2-28.1-36.7-47.4.5-19.8,6.5-23.5,13.2-39.8,10-24.2,10.7-35.4,29.8-56.2s12.2-10.7,12.6-11.5c1.4-2.7-3.4-9.4,1.5-13.5s10.5.5,13.9-1,5.5-7,7.5-8.6,7.8-2.3,10.9-4.1,7.7-8.9,10.7-10.3,5.5-.9,8.1-1.9c6.3-2.4,5.3-6.4,8.8-10.2,7.6-8.2,25.6-8.8,36.4-11.6,26.3-6.7,46.8-17.1,71.3-26.7,8.7-3.4,18.3-5.1,26.7-9.3.5,3.6-3.4,3.9-3.4,8.4,0,7.9,10.8,27.4,15.5,34.5,27.1,41.1,76.1,60,123.4,43.6s49-31,51-56,1.8-10.5-5-12.5-6.6,1.3-12.2,3.3-12.1,1.2-15.3,7.6c-7.3-3.6-.9-31.4-2.5-32.9s-2.7.1-4-.5-1.4-3-2.8-3.5c-3-1.1-18.5-1.5-19.2-2.2s.5-2.3-.7-2.9c-5.3-2.9-17.4-2-15.4-10-2.5-.7-5.3,1.2-7.5,1s-10.8-2.9-11.3-3.2c-.8-.5-.9-2.4-2.2-3.2s-8.8.3-9.1,0c-.8-.6-.9-2.9-2.5-4.5s-6-2.3-8.3-3.7c-5.2-3.1-10.1-8.9-13-13.7s-2.5-1.1-3-2.3,1.6-8,2-8.3,2.6-.2,3.3,0c2.7.9.4,3.8.6,3.9.9.6,3.8-.9,5.3-.7s4.5,1.5,4.7,1.7c.8.8-4.6,7.7,3,8s4.1-3.3,8-5,3.1-.5,6.6,0,7.2,1.3,9.5.7c4.4-1.2,1.6-4.3,2-4.6,1.3-1.2,8.1,1.7,6-6,1.8.5,2,3.2,3.3,4.7s3.5,2.5,3.6,2.3c.7-1.6,3.6-10.6,4-11,.8-.6,5,3.2,7,2l-1-4c2.2-.7,3.9,2,5.5,2,3.2,0,2.8-3.8,3.8-4.7s2.3-.4,3.1-1.3c6.1-6.8,3-8.3,3.6-16.5s.8-6.5,2.5-8.5c1.6,2.6-1.8,7.1,1.2,9.1,5,3.3,4.1-1,5.6-2.8s2-.8,2.8-1.7c1.9-2.2-.4-5.1,6.4-3.5s2.6,2.2,4.5,2c-2.6-3.1,5.5-2.8,0-6,.4,4.7-3.8,0-4.1-1.5-1.7-8.9,0-19.6-1-29.1-.2-1.5.8-3.3.5-4.6-.8-3.7-7.9-5.2-10.5-7.4,4.8-1,8.1-2.9,12-5.5,13.2-8.9,14.4-18.7,14-33.5s3.1-7-5-8.5c4.7,9.4,3.3,20.3-.8,29.7s-5.9,6.7-8.2,10.3c-12.5,7-27.1,4.9-36.5-6s-5.8-6.2-2.5-9c-9.8.3,2,11.3,4.5,15.1s.3,2.5.9,3.7,1.6.2,1.7.3c.3.4-.2,2.2,0,3-1.3,7.1-2.5,8.5-10,9,2-3.1,4.9-4.2,4.9-8.4.1-9.2-5.9-5.2-7.8-6.8s-4.8-13.6-4.9-14.6c-.7-4.3,1.3-12,1.8-16.2l3,6c0-1.8.4-5.6,2-6.6s5.8-.2,6.1,0c3,2.2-1.5,7.2,7.5-1.5s4.1-1.2,2.5-3-3.4,1.6-4,1-1.8-7.7-2-9c-4.9,1-2.8,7.6-8,3.5,10.9-13.3,29.2-10.7,44-6.5-2-3.2-9.3-6.1-13-7,.5-2.3-1.1-2.2-2.6-2.8-7.2-3.3-14.7-6.3-22.3-8.6s-3.7,2.5-3.1-2.6c-1.8-.4-.3,2-1.5,2s0-1.5-1.2-2c-2.6-1.1-5.7-.9-8.3,0,1.9-4.7.3-2-1.9-3.6s-.8-1.5-2-2.4-2.7,1.6-1.6-3c-1.9,1-5.8,2.3-7.8,2s-.8-2.3-2.6-2.6-1.4,3.8-5-1.4c-1.5,1.8-1.9,7.7-3,8.6s-6.9-.7-10.1-.1c-4.7.9-6.6,3.2-9.9,4.9s-6.4-.3-6,3.6l2,1c-5.9,2-12.1,2-18.2,3.3s-3.7,1.7-6.9,2.1-2.7-1.5-.9,1.6c-4.9,2.1-4,6-5.2,7.8s-10.4,1.7-8.8,9.2l6-4c1.2,1.6,0,3.5,0,4-2.1,2.8-.5,6.8-1.2,10.3s-3.6,5-3.8,10.7,0,1.4,0,2c-2.2-.9-3.6,4.9-3.8,5.7-.5,3.1-.2,6.2-.2,9.3-3.1-.8-3.8-2.4-7.5-2.1s-7.4,2.5-8,3.1c-1.5,1.4-4.3,13.5-4.5,16-.9,12.9,6.1,16.9,12,26s-.2,1.4,0,2c.7.2.9-1,1-1,1.5-.3,3.4.2,5,0,.2,2.6-.5,6,.2,8.3,1.2,3.8,1.4.8,1.8,6.7s.6,2.6,1,4,.6,3.6,2,5c0,2.5.3,4.9,3,6,0,.6,0,1.4,0,2ZM424,256c.7,1.6-3.4,7.5-.5,8s5.7-8.3.5-8ZM639.7,659.7c.8-1.1,1.2-3.8,1.3-5.2,1.5-15.3.7-33.5,1-49,.1-5.4,4.1-13.1-3.9-15-74.4-6.2-148.9-6.1-223.5-4.4-11.5.3-25-1-36.1,0-3,.3-5.8.7-7.3,3.7-.7,22.1-2.7,44.4-2.7,66.3l3.5,1.6c35.2-3.4,70.3-2.1,105.6-1.6,40.1.5,83.3-.5,123,2,10.2.7,24.4,4.3,34,4.1,1.4,0,4.4-1.3,5.1-2.4ZM652,1073c3.2,10.5,17.1-.1,22.5-4s3.7-4.4,6.1-5.9c5.4-3.2,11.8-1.5,15.8-8.2,2.4-4-.8-15.5-5.9-15.8-9.8-.6-39.3,16-38.6,28.9-.2.8-.2,4.3,0,5Z"/>
      <path d="M705,1126c0,.1,1.1.3,1.5,1.1.9,1.9-.2,3.7,2.5,4.4-3,2.1-6.4,5.7-8.1,9-3.6,7.1-1.8,8.6-7.7,14.9s0,1.9-.5,2.3c-3,3.1-9.6.6-9.8,9.8s1.4,7.8,7.4,6.3c9.1-2.3,4.1-15.1,4.7-15.8s2.3.5,3.1-.6.7-6.2,2.4-6.3c2.6,1.2,4.2.6,4,3.9,1.8-1.3,4.9-3.5,6.9-2.1s.3,2.3.6,3.1l-11.7,11.3c-7.7,17-28.6,6.4-15.4-8.9,6.6-7.6,9.3-12.7,14.6-21.4,2.3-3.7,7.2-6.7,5.4-11.1Z" fill="#515151"/>
      <path d="M745,1118c-.1,0-.9,1.4-2,1l2-1Z" fill="#515151"/>
      <path d="M736,1026c-7,3.2-31.1-1.9-38.8-4.7s-5.5-4.8-6.1-8.9c-1.3-10,1-25.9,1-37-.1-22.3,2-43.7,2-66,0-62.8,8-125.8,7-189-.1-8.4-3.9-35.7.5-41.4s7.5-3.8,9.4-2.6,1.8,2.9,3,4.1c6.2,6.1,17.9,15.3,22.5,21.5,5.3,7.3,8,17.8,13.6,24.9,1.4,4.9,2.6,9.6,5.2,14.3,3.7,6.6,17,22.8,18.1,28.9s.9,18.7.7,21.3c-.6,8.3-4,18-4,26.5,2.8.8,2.3-3,2.7-4.8,2.4-11.6,3.5-23.5,5.3-35.2,2.9-.5,1.6,2.1,3.5,4.1s2.2.7,2.4,1.1-1.4,1.9.1,3.4c2.7,2.6,12.7,2.4,15.8.2s1.9-3.5,3.8-4.7,4.9-1.3,7.3-2.7,5.4-7.1,5.2-2.2h1c-.5-3.1,3.4-1.7,5.8-2.6s.9-2.4,1.7-2.4.1,1.4,1.2,2c3.1,1.6,6.1-.5,2.7,5s-2.1.9-2.4,1.8c-1.3,5,1.5,14.1,1.1,17.7s-3,3-3,3.2c-.2,1.2,1.2,3.7.6,5.7-1.8,6-3.4,7.3-4.4,15.2s-2,8-2.2,10c-.3,3,2,8.3,2,11.9,0,6.3-2.3,16-3.1,22.9-1.2,10.9-2.4,22.6-1.9,34.1,0,1-.2,2.3-1,3l3,1c-1.3,2.5-5.9,4-6.6,6.4s-1.6,9.1-1.5,10.6c.2,2.5,2.7,4.4,2.2,6.8s-2.7,1-3,2.3,1,2.8,1,3.8-1.8.4-2,1.3c-.4,1.5.1,3.4-.5,5.4-1.1,3.6-6.1,4.6-7.1,7s.5,3.3.1,5-2.8,7.7-3,8c-1,1.3-3.3.8-3.5,1-.4.3,3.3,6.4-2.2,6s-.7-1-.7-1.1c.5.5,1.3.5,1.7,0s.5-1.3,0-1.7-1.3-.5-1.7,0-.5,1.3,0,1.7c-3.7-.4-7.6,1-6.1-5.2s2-.7,2-1.2c.4-2.4-2.2-4.8-4.5-5-5.5-.6-2.5,2.5-2.7,3.4s-5.5,3.5-6.4,4.1-1,2.2-1.7,2.7c-1.9,1.4-10.1,3.5-11.5,4.5s-.5,2.4-1.1,3.1c-1.6,1.9-5.2,2-1.1,3.2-4.2,4.9-2.4,11.2-5.1,17.7s-1.9.9-1.9,1.4c0,1.3,1.5,2.9.9,4.8s-2.7,1.2-3,2.3c-1.2,4.5,1.1,10-2,14.6s-2.5.8-3.5,1.7-5.5,5.6-6.5,6ZM768.7,963.7c.6-.7,2.1-5.7,2.1-6.3-.1-1.2-2.8-1.3-3.8-2s-.5-2.7-2-2.4c.6,4.4-5.4,8.9-4.6,12s1.6,3.3,3,2.9,5.1-4,5.3-4.2Z" fill="#fefefe"/>
      <path d="M648,1094c3.8-3,4.2,1,4.5,1,.7,0,5.6-2.5,6.7-3.1,4.7-2.8,8.5-8.5,13.9-12.3,5.1-3.6,15.7-9.6,21.5-11.5s.7,2.3,1.1,3.8,2.1,3.2,2.3,4.8c1,7-4.7,5.1-5.8,6.7s0,2.5-.2,2.8-6.3-1.2-8,0l2,2c-5.6-1.8-6,3.2-7.1,3.9s-5.3-3-8.4-3-6.2,1.4-8.7,3.1c-8.3,5.6-1.6,6.9-1,12.7s-4.4,7.7-8.8,11.2c-9.4.3-11.7-10.6-7.6-18.1s2.2-2.5,3.6-3.9Z" fill="#fefefe"/>
      <path d="M658,1124c2.7-2.9,8.6-.9,12.9-2.6,9.5-3.7,21.2-20.8,33.4-26.6s8.8-4.2,7.7-1.3-5.2,2.2-5.9,4.1c-2.2,6.4,6.2,15.3-8.1,12.4l1,3-3-1c1.4,3.6.3,5.6-2.5,8l-1-3-14.5,3,2,2-8,1c3.8,7.7,2.8,6.9.3,13.8s0,4-.3,4.2c-.3.3-7.9.7-9.5.1-3.2-1.2-5.2-4.8-7.5-7.1,0-1.6-.2-3.5,0-5s0-.7,0-1,0-.8,0-1c2,.2,2.1-1,3-2s-.2-.8,0-1Z" fill="#fefefe"/>
      <path d="M652,1073c1.9,7,16.3,1.4,15.9-8.5s-5.6-9.4,3.1-12c-3.6-.9-6.6,3.2-9.3,4.7s-3.6.5-4.7,1.3-4.9,8.9-5,9.5c-.7-12.9,28.8-29.5,38.6-28.9,5.1.3,8.2,11.8,5.9,15.8-3.9,6.8-10.4,5.1-15.8,8.2s-4,4.3-6.1,5.9c-5.4,3.9-19.3,14.5-22.5,4ZM692,1046c-.1,0-2.4-.2-2.7.4l-3.3,2.6c4.1-1.4,3,2,6,2-.2-1.1.3-4.7,0-5Z" fill="#515151"/>
      <path d="M652,1068c.1-.6,4.6-9.2,5-9.5,1.2-.8,3.4-.5,4.7-1.3,2.7-1.6,5.7-5.6,9.3-4.7-8.8,2.5-3.3,7.6-3.1,12,.4,9.9-14,15.6-15.9,8.5s-.2-4.2,0-5Z" fill="#fefefe"/>
      <path d="M658,1125c-.9,1-1,2.2-3,2,.6-1.5,1.4-2,3-2Z" fill="#515151"/>
      <path d="M655,1129v-1c0,.3,0,.7,0,1Z" fill="#515151"/>
      <g>
        <path d="M509,1365c2-2.2,6.1-.6,8.4,0,12.1,3.4,25.5,13.3,37.9,18.1,23,8.9,48.2,12.8,72.4,15.4,5.3.6,11.1,1.1,16.5.9,2.1.3,4,4.2,3.9,5.9s-2.6-.3-2.1,2,1.5.2,1.8,1-.7,4.5-.7,5.9c.4,13.7,2.5,33.6.9,47.2-.6,5-2.7,10.2-3,16s1.1,9,.8,9.4-2-.4-1.9.6c5.2,2,.4,2.1-.3,3.7s-3,8.9-3.2,9.8c-.5,2.2,1.1,4.3.6,6.4s-2.1.6-2.1,1.2c0,1,1.2,2.4,1.1,3.8s-1.7.6-2,1.4c-1.7,3.8-3.6,10-4.9,14-2.8,9-3.7,11.3-2.3,20.8.3,2.1,1.9,3.6,2.1,5,.3,2.5-1.7,7.6-1.6,10.8s3.1,12.6,4.7,15.6h-93c.9-6.8-3-12.8-4.7-18.8s-1-8.8-3.3-13.5-1.9-.6-2-1.4c-.3-1.9,1.2-3.7.8-5.6s-3.1-4.7-3.7-7.3-1.7-17-1.9-20.9,2.9-3.9-2.2-3.5c.2-5.9,3.3-11.7,3.1-17.5s-3.5-11.1-2.9-13,2.2.2,1.8-1.5c-3.6,1.2-3.6-2.7-3.6-5.7-.1-8.7,1.3-21.2-1-29s2.6-2.7-2.4-2.3c-.2-1.8,1.9,0,2.1-2.4s-1.2-6.1-1.2-9.1c0-5,1.4-11.3,1.1-16.5l-3,4c0-4.4,0-8.9-3-12.5.8-1.9,2.9-.4,3-.5,1.6-3-4-7.6-3-11l-2,1c-1.8-7.6-1.8-13.4,0-21,.3-.4,7,5.1,8,2-3.6-.7-6.7-3.7-10-5.3s-2.7-.1-3.4-.6c-1.3-.9-.3-2.6-.6-3.1Z" fill="#515151"/>
        <path d="M340,1580c1.1-2.7,1.4-5.7,4-7.5l-2-1.5c3.3.3,4.4-6.3,5.6-7.1s3.3-.4,4.1-1.2c4.4-4.3,10.2-13.7,13.9-19.1s-1.4-3.6,3.3-1.6l2.5-6c-1.5,4.5,2.3,4.7,2.5,5,1.4,2.2-2.1,2.1-2,2.4.7,3.9,5.2,5.6,4,11.9s-5.1,1.3,0,3.1c-5.1,5.5-6.5,12.2-7,19.5l-2,2h-27Z" fill="#515151"/>
        <g>
          <path d="M254,1337c25.5,14.6,45.6,23.9,74.8,30.7,19.2,4.5,39.3,4,58.7,4.2,2.8,0,20.1-.5,20.6,1.7s.5,10.5.4,12.5-1.4,10.7-1.6,11.2c-.5,1.4-2.5,1.4-2.7,1.7s1.1,2.1.8,3.3-2.7,1.2-3,2.3c-.4,1.7.3,4.4,0,6.3-4.4-2.2-6,3.2-2,4.5-6.1,3.3-1.7,8.1-1,13.1s-4.5,2.6-2,7.5l-4-1c.6.9.6,2.3,1.1,3.2s2.3.2,1.9,1.7c-6.7.2-1.4,5-6,8.5,5,2.1.6,4.6-1,7s.3,4.2-4.9,3.6c-1.7,8.2-5.2,15.9-7.6,23.9s0,3.9-.4,5.4-3.4.5-1.9,2.6,4,0,1.9,2-1.7-1.5-2-.5c-1.6,5.1-2.3,5.4-4.5,9.6s.4,2.2.2,2.7c-.7,1.6-4.3,2.2-4.5,2.4-.6.7,0,2.8-.5,4.1-.9,2.2-2.9,4.6-3.5,6.6s.8,2.6.6,3.1c-1.4,2.8-8.5,5-10.5,6.5-5.3,4.1-6.8,12.9-10.3,17.2s-5.5,3.8-7.5,5.5-4.1,6.3-8.2,6.8-2.9-2.7-4.2-1.7,0,2.1-.6,1.9c-1.4-.4-11.5-5.2-11.5-.5v16c0,3.3-3.6,4.7-3,7.5h-59c1.7-5.8-1-8.7,1-15s.7-6.9,1.4-12,4.5-12.6,5.2-17.6-1.9-19.8-.8-27.9,2.1-1.3,2.1-2c.7-19.4-3.5-39.4-5-58.4s-5.1-78.5-.9-90.2,3.2-.1.9-4.8h5s-1-5-1-5c.5-.4,7.1.7,8.3,1s.5,3.2,1.7,1.4c-2.5-4.8-10.3-6.8-11-12.5ZM276.7,1354.3c-2.9-1.5-6.4-2.3-9.2-4.4-2.6-.8-.5,3.1-.3,3.3s5.2,4.6,5.5,4.7c3.1,1.8,11.1.7,9.3,7.9,1-.2,3.6.3,4,0,2.3-1.8-2.6-1.8-2-3,5.3-2.6,7.4,4.2,13,4l-1,2h5s-.5-2-.5-2c5.3,1.6,8.1,6.1,14.5,3l-6.8-3.7c-11.6-1.6-21.9-6.9-31.5-11.9Z" fill="#515151"/>
          <path d="M251,1447c1.5,19,5.7,39.1,5,58.4,0,.7-1.8,0-2.1,2-1.1,8.1,1.8,21,.8,27.9s-4.6,12.9-5.2,17.6.4,6-1.4,12c.8-3.2-1-6.7-1-9.5,0-18.4.5-37.4,2-56s3.8-20.1,3-32-3.9-14.2-1-20.5Z"/>
          <path d="M276.7,1354.3c9.6,5.1,19.9,10.3,31.5,11.9l6.8,3.7c-6.3,3.1-9.1-1.4-14.5-3l.5,2h-5s1-2,1-2c-5.6.2-7.7-6.6-13-4-.6,1.2,4.3,1.2,2,3s-3-.2-4,0c1.8-7.2-6.2-6.1-9.3-7.9s-5.3-4.4-5.5-4.7-2.2-4.1.3-3.3c2.7,2.1,6.2,2.8,9.2,4.4Z" fill="#fefefe"/>
        </g>
      </g>
      <path d="M727.9,1094.1c1.4.9.7,6.8-.8,8.2-2.8,2.7-8.6-1.2-10.1,2.7h3s-1.5,3-1.5,3l-3.5-4.5c.3-1.3,5-2.9,6-4.1s.9-4.3,1.9-5,4.3-.8,5-.3Z"/>
      <path d="M749,720c-1.6-2.5,7.5-7.1,7.6.6s-1.3,6.8,1.4,11.4l-4.3-4.2c-1.3-2-1.6-5.3-2.7-7.1s-2-.6-2-.7Z" fill="#fefefe"/>
      <path d="M784,970c0,2.5.1,5,0,7.5s.8,3.7-1,3.5c-.2-1.3-.3-3.4-.9-4.4s-3.7.5-3.1-2.1,3.8-5.8,5-4.5Z" fill="#fefefe"/>
      <path d="M739,1104c.5.7-4.1,7.2-4.5,7-2.8-1.2-1.2-5.9,1.5-6.5l-2-1.5,5,1Z" fill="#fefefe"/>
      <path d="M768.7,963.7c-.2.3-4.9,4.2-5.3,4.2-1.5.3-2.7-1.9-3-2.9-.8-3.1,5.2-7.6,4.6-12,1.5-.3.9,1.5,2,2.4s3.6.9,3.8,2-1.5,5.6-2.1,6.3Z" fill="#515151"/>
      <path d="M692,1046c.3.3-.2,3.9,0,5-3,0-1.8-3.4-6-2l3.3-2.6c.3-.6,2.6-.5,2.7-.4Z" fill="#fefefe"/>
      <g>
        <path d="M639.7,659.7c-.7,1-3.8,2.3-5.1,2.4-9.6.2-23.8-3.4-34-4.1-39.7-2.5-82.9-1.5-123-2-35.3-.5-70.3-1.8-105.6,1.6l-3.5-1.6c0-22,2-44.2,2.7-66.3,1.5-3,4.2-3.5,7.3-3.7,11.1-.9,24.6.4,36.1,0,74.6-1.7,149.2-1.8,223.5,4.4,8,1.9,4,9.6,3.9,15-.3,15.6.5,33.7-1,49s-.5,4.1-1.3,5.2ZM414,594c-10.2.2-23.9-1.2-33.6,0s-1.5,0-1.4,1l-3,54c4.5-.1,9,.2,13.5,0,52.5-2.1,104-.8,156.5-1,12.8,0,25.3.9,38,1s1.3,0,2,0c2.5,0,5.6.3,8,0l38,4,3-55c-9.6-.2-19.4-.4-29-1s-12.9-.7-19-1c-21.7-1-43.7-2.8-65.5-3-9.2-.1-18.4.1-27.5,1,0,3.5,4.3,3.9,5.9,6.6,4.1,7-3.1,9.5-7.9,12.4-2.3-2.5-5.7-3.3-9-3,1.4,2.8,5.7,2.8,8,4,8.4,4.4,14.3,10.6,11.3,20.8-3.2,11-16.1,12.5-25.8,11.1-4.8-.7-8.9-5.3-12.1-6s0,2-.5,3.4c-1,2.8-12.7,2.2-15.3,1.4s-2.4-3.5-3.7-4.3-14.6-.9-16.3-.5-1.6,4.3-5.2,5-13.5.2-14.4-1.1l.5-3.9c8.1-11.5,12.9-25.9,20.3-37.7s9.7-12.4,15-3.7,10.9,24,15.4,33.7.8,2.4.8,3.7c1.6,1.5,7.1-8.7,10.5-9s9.8,5.6,14.5,4c.5-2.7-.7-1.7-2-2.5-7.9-4.7-22-8.8-18.6-21.5s8.3-12,13-12h14.5c-.9-1.7-5.7-1.9-7.5-2-23-1.5-48.4.6-71.5,1Z" fill="#fefefe"/>
        <path d="M414,594c23.2-.5,48.5-2.5,71.5-1,1.7.1,6.6.4,7.5,2h-14.5c-4.7,0-11.8,7.5-13,12-3.5,12.7,10.7,16.9,18.6,21.5s2.5-.2,2,2.5c-4.6,1.6-11-4.4-14.5-4s-8.9,10.5-10.5,9c0-1.3-.3-2.5-.8-3.7-4.4-9.6-10.3-25.3-15.4-33.7s-11.4-2.2-15,3.7c-7.3,11.8-12.2,26.2-20.3,37.7l-.5,3.9c.9,1.3,12.3,1.5,14.4,1.1,3.6-.7,4-4.7,5.2-5,1.7-.4,15.2-.2,16.3.5s1.5,3.7,3.7,4.3,14.3,1.4,15.3-1.4-2.5-4.1.5-3.4,7.3,5.2,12.1,6c9.6,1.4,22.5-.1,25.8-11.1,3-10.3-2.9-16.5-11.3-20.8.3-.3.6-.8,1-1,4.7-2.9,12-5.4,7.9-12.4s-6-3.1-5.9-6.6c9.2-.9,18.3-1.2,27.5-1,21.7.3,43.7,2,65.5,3l1,1c-2.1.5-2.8,2.5-3.1,4.5-1.1,8.9-.7,29.7,0,39.1s.5,5.5,5,6.5c-.7,0-3.1,1.5-4,2-.7,0-1.3,0-2,0-1.4-2.3-6.4-.3-8-1v-1c1.1,0,2.1-.3,3-1,5.4-4,3.6-16-1.5-16h-14.5c-.1-2.3-.3-1.8,1.5-2,5.9-.8,14.3,3,14.6-5.5.2-4.5-.8-9.1-6.1-8.5.8-.1,3-1.5,4-2s2.1.4,3.5-1c2.3-2.3,2.4-12.7-1.2-13.9-5.7,1.1-30-3.6-32.9.8s-1.1,38.2-1,43.6,1.3,3.2,1.5,4.5-.8,1.4-1,2c-52.5.2-104-1.1-156.5,1-4.5.2-9,0-13.5,0l3-54h10s0,1,0,1c-1.1,0-2.1.2-3,1-4.8,4.3-2.7,18.9-3,25.5s-2.6,15.7-1,23.5c17,1.6,16.8-1.1,16-17,12.1.4,18.6,1.8,15.6-13.1-2.1-2.9-16.3,1.4-14.6-4.9h16.5c3.3,0,4.6-11.7,2.5-13.5s-3.4-1.4-4-1.5v-2ZM542.8,610.8c1.5-1.5,1.9-11.1.8-12.8-2-3-17-1.8-21.1-1.9s-15.8-2.1-18,.9-.8,12.2-.3,12.9c1.2,1.8,10.5.7,10.9,1.1.8.8,0,20.4,0,23.5-.1,7.4-3.5,12.8,8.5,12.5s8-5,8.5-12.5-1.2-17.8.1-21.9,7.3,1.4,10.6-1.9Z"/>
        <path d="M606,597c9.6.6,19.4.8,29,1l-3,55-38-4c1.2-.2,4.8-1.3,6-2,3.4-1.8,1.8-5.9,2-9.5s-.7-4.4,1.5-3.5,5.9,12.9,8.6,14.5,15,3.1,15.8-1.1-9.7-16.9-9.6-17.9,5.4-5.1,6.3-9.4c2.6-12.2-7.6-20.2-18.6-22.1v-1Z"/>
        <path d="M579,646c-.9.7-1.9,1.1-3,1v1c1.6.7,6.6-1.3,8,1-12.7-.1-25.2-1-38-1,.2-.6,1.1-1.7,1-2h32Z" fill="#515151"/>
        <path d="M414,594v2c-8.9-1.3-19,1.4-28,1,.9-.8,1.9-1.1,3-1v-1s-10,0-10,0c0-1,.7-.9,1.4-1,9.6-1.2,23.3.2,33.6,0Z" fill="#515151"/>
        <path d="M606,597v1c-3-.5-15.6-1.6-18-1l-1-1c6.1.3,12.9.6,19,1Z" fill="#515151"/>
        <path d="M600,647c-1.2.7-4.8,1.8-6,2-2.4.3-5.5,0-8,0,.9-.5,3.3-1.9,4-2,3.1-.4,6.8.3,10,0Z" fill="#515151"/>
        <path d="M492,613c-.4.2-.7.7-1,1-2.3-1.2-6.6-1.2-8-4,3.3-.3,6.7.5,9,3Z" fill="#515151"/>
        <path d="M606,598c11,1.9,21.1,9.8,18.6,22.1s-6.3,8.8-6.3,9.4c0,1,10.2,14.9,9.6,17.9s-12.8,2.8-15.8,1.1-7.8-14.1-8.6-14.5c-2.2-.9-1.4,2.3-1.5,3.5-.2,3.6,1.4,7.7-2,9.5-3.2.3-6.9-.4-10,0-4.6-1-4.7-2-5-6.5-.7-9.4-1.2-30.2,0-39.1s.9-4,3.1-4.5,15,.5,18,1ZM602,613c-2.8,2.8,4.7,7.9,6,3.5s-5.3-4.2-6-3.5Z" fill="#fefefe"/>
        <path d="M577,612l-14-1c-.4,4.1,7.5,3.4,10,3,5.2-.6,6.2,4,6.1,8.5-.3,8.5-8.7,4.8-14.6,5.5s-1.6-.3-1.5,2h14.5c5.1,0,6.9,12,1.5,16h-32c-.2-1.3-1.5-2.6-1.5-4.5-.1-5.3-.2-41.8,1-43.6,2.9-4.4,27.2.3,32.9-.8,3.6,1.2,3.5,11.6,1.2,13.9s-2.8.6-3.5,1Z" fill="#fefefe"/>
        <path d="M414,596c.6,0,3.7,1.2,4,1.5,2.1,1.8.8,13.5-2.5,13.5h-16.5c-1.8,6.3,12.5,2,14.6,4.9,3,14.8-3.5,13.5-15.6,13.1.8,15.9,1,18.6-16,17-1.7-7.8.6-15.7,1-23.5s-1.8-21.2,3-25.5c9,.4,19.1-2.3,28-1Z" fill="#fefefe"/>
        <path d="M542.8,610.8c-3.3,3.3-9.4-1.8-10.6,1.9s.3,16.4-.1,21.9.2,12.3-8.5,12.5-8.6-5.2-8.5-12.5c0-3.2.8-22.7,0-23.5s-9.7.7-10.9-1.1-.4-12,.3-12.9c2.2-3,14.7-1,18-.9s19.1-1.1,21.1,1.9.8,11.3-.8,12.8Z" fill="#fefefe"/>
        <path d="M577,612c-1,.5-3.2,1.9-4,2-2.5.4-10.4,1.1-10-3l14,1Z" fill="#515151"/>
        <path d="M602,613c.7-.7,7.1-.4,6,3.5s-8.8-.7-6-3.5Z"/>
      </g>
    </g>
  </g>
</svg>